<svg width="30" height="30" viewBox="0 0 30 30" fill="none" xmlns="http://www.w3.org/2000/svg">
<g clip-path="url(#clip0)">
<path d="M6.15234 0.175781C4.50896 0.175781 2.96402 0.815742 1.80199 1.97777C0.639961 3.1398 0 4.68475 0 6.32812C0 7.52473 0.339609 8.66895 0.972715 9.65139C1.72811 7.91848 2.80934 6.3249 4.18623 4.94801C5.80096 3.33322 7.7134 2.12443 9.79957 1.37203C8.74898 0.59543 7.48295 0.175781 6.15234 0.175781Z" fill="#597AB2"/>
<path d="M28.1978 1.97777C27.0357 0.815742 25.4908 0.175781 23.8474 0.175781C22.5168 0.175781 21.2508 0.59543 20.2002 1.37203C22.2864 2.12443 24.1987 3.33322 25.8135 4.94795C27.1904 6.32484 28.2717 7.91842 29.027 9.65133C29.6602 8.66895 29.9998 7.52473 29.9998 6.32812C29.9998 4.68475 29.3598 3.1398 28.1978 1.97777Z" fill="#597AB2"/>
<path d="M4.8781 27.2251L3.7207 28.7704L5.12765 29.8242L6.25845 28.3144C5.78062 27.9801 5.32002 27.6164 4.8781 27.2251Z" fill="#597AB2"/>
<path d="M25.1226 27.2251C24.6806 27.6164 24.22 27.9801 23.7422 28.3144L24.873 29.8241L26.2799 28.7704L25.1226 27.2251Z" fill="#597AB2"/>
<path d="M15 6.62109C9.95982 6.62109 5.85938 10.7215 5.85938 15.7617C5.85938 20.8019 9.95982 24.9023 15 24.9023C20.0402 24.9023 24.1406 20.8019 24.1406 15.7617C24.1406 10.7215 20.0402 6.62109 15 6.62109ZM14.1211 16.6406V8.37891H15.8789V14.8828H22.3828V16.6406H14.1211Z" fill="#597AB2"/>
<path d="M15 2.22656C7.52473 2.22656 1.46484 8.28645 1.46484 15.7617C1.46484 23.237 7.52473 29.2969 15 29.2969C22.4753 29.2969 28.5352 23.237 28.5352 15.7617C28.5352 8.28645 22.4753 2.22656 15 2.22656ZM15 26.6602C8.99057 26.6602 4.10156 21.7712 4.10156 15.7617C4.10156 9.75229 8.99057 4.86328 15 4.86328C21.0094 4.86328 25.8984 9.75229 25.8984 15.7617C25.8984 21.7712 21.0094 26.6602 15 26.6602Z" fill="#597AB2"/>
</g>
<defs>
<clipPath id="clip0">
<rect width="30" height="30" fill="white"/>
</clipPath>
</defs>
</svg>
