<svg width="40" height="40" viewBox="0 0 40 40" fill="none" xmlns="http://www.w3.org/2000/svg">
<path d="M38.5657 2.6768H16.1897C15.8201 2.6768 15.5204 2.97641 15.5204 3.34602C15.5204 3.71562 15.8201 4.01523 16.1897 4.01523H37.8964V18.0878H9.1849V4.01523H13.9589C14.3285 4.01523 14.6281 3.71562 14.6281 3.34602C14.6281 2.97641 14.3285 2.6768 13.9589 2.6768H8.51568C8.14607 2.6768 7.84646 2.97641 7.84646 3.34602V4.43266H6.25248V0.669219C6.25248 0.299609 5.95287 0 5.58326 0H1.43436C1.06475 0 0.765137 0.299609 0.765137 0.669219V26.8123C0.765137 27.182 1.06475 27.4816 1.43436 27.4816C1.80396 27.4816 2.10357 27.182 2.10357 26.8123V1.33844H4.91412V38.6616H2.10357V29.043C2.10357 28.6734 1.80396 28.3738 1.43436 28.3738C1.06475 28.3738 0.765137 28.6734 0.765137 29.043V39.3308C0.765137 39.7004 1.06475 40 1.43436 40H5.58334C5.95295 40 6.25256 39.7004 6.25256 39.3308V17.6704H7.84646V18.757C7.84646 19.1266 8.14607 19.4263 8.51568 19.4263H38.5657C38.9354 19.4263 39.2349 19.1266 39.2349 18.757V3.34602C39.2349 2.97633 38.9353 2.6768 38.5657 2.6768ZM7.84639 16.332H6.25248V14.4887H7.84639V16.332ZM7.84639 13.1502H6.25248V8.95281H7.84639V13.1502ZM7.84639 7.61437H6.25248V5.77102H7.84639V7.61437Z" fill="#597AB2"/>
<path d="M33.7605 12.6182C33.3908 12.6182 33.0913 12.9178 33.0913 13.2874V14.5278C33.0913 14.8974 33.3908 15.197 33.7605 15.197C34.1302 15.197 34.4297 14.8974 34.4297 14.5278V13.2874C34.4297 12.9179 34.1301 12.6182 33.7605 12.6182Z" fill="#597AB2"/>
<path d="M21.3605 11.7394C21.7302 11.7394 22.0297 11.4397 22.0297 11.0701C22.0297 10.7005 21.7302 10.4009 21.3605 10.4009H18.9805V8.2442H21.3604C21.7301 8.2442 22.0297 7.94459 22.0297 7.57498C22.0297 7.20537 21.7301 6.90576 21.3604 6.90576H18.3113C17.9417 6.90576 17.6421 7.20537 17.6421 7.57498V14.528C17.6421 14.8976 17.9417 15.1972 18.3113 15.1972H21.3604C21.7301 15.1972 22.0297 14.8976 22.0297 14.528C22.0297 14.1584 21.7301 13.8588 21.3604 13.8588H18.9805V11.7394H21.3605Z" fill="#597AB2"/>
<path d="M36.1321 6.90576H31.3889C31.0193 6.90576 30.7197 7.20537 30.7197 7.57498C30.7197 7.94459 31.0193 8.2442 31.3889 8.2442H33.0913V11.3849C33.0913 11.7545 33.3908 12.0541 33.7605 12.0541C34.1302 12.0541 34.4297 11.7545 34.4297 11.3849V8.2442H36.1321C36.5018 8.2442 36.8014 7.94459 36.8014 7.57498C36.8014 7.20537 36.5018 6.90576 36.1321 6.90576Z" fill="#597AB2"/>
<path d="M28.6449 6.90584C28.2753 6.90584 27.9757 7.20545 27.9757 7.57506V12.0927L25.0869 7.23303C24.9329 6.97404 24.6248 6.8499 24.3342 6.92975C24.0437 7.00959 23.8423 7.27373 23.8423 7.57506V14.5281C23.8423 14.8977 24.1418 15.1973 24.5115 15.1973C24.8812 15.1973 25.1808 14.8977 25.1808 14.528V10.0104L28.0696 14.8699C28.1924 15.0764 28.4131 15.1972 28.6449 15.1972C28.7037 15.1972 28.7634 15.1894 28.8221 15.1732C29.1127 15.0933 29.3141 14.8292 29.3141 14.5279V7.57506C29.3142 7.20545 29.0146 6.90584 28.6449 6.90584Z" fill="#597AB2"/>
<path d="M14.018 11.6899C14.836 11.2964 15.4068 10.4224 15.4068 9.40912C15.4068 8.02881 14.3484 6.90576 13.0473 6.90576H11.6502V6.90584C11.2806 6.90584 10.981 7.20545 10.981 7.57506V14.5281C10.981 14.8977 11.2806 15.1973 11.6502 15.1973C12.0198 15.1973 12.3194 14.8977 12.3194 14.5281V11.9125H12.6332L14.0872 14.8269C14.2044 15.0617 14.4408 15.1975 14.6866 15.1975C14.787 15.1975 14.8888 15.1748 14.9848 15.1269C15.3156 14.9619 15.4499 14.5601 15.2849 14.2293L14.018 11.6899ZM13.0474 10.574H12.3196V8.24435H13.0474C13.6104 8.24435 14.0685 8.76685 14.0685 9.4092C14.0685 10.0515 13.6104 10.574 13.0474 10.574Z" fill="#597AB2"/>
</svg>
