<svg width="40" height="40" viewBox="0 0 40 40" fill="none" xmlns="http://www.w3.org/2000/svg">
<path d="M39.9394 10.3002L35.9057 1.13137C35.7914 0.87168 35.5346 0.704102 35.2509 0.704102H4.74914C4.46546 0.704102 4.20859 0.87168 4.09437 1.13137L0.0605323 10.3002C-0.0367335 10.5214 -0.015796 10.7769 0.116236 10.9792C0.248345 11.1816 0.473736 11.3036 0.715299 11.3036H2.10327V38.5804C2.10327 38.9755 2.42358 39.2957 2.81858 39.2957H11.2163H28.7837H37.1814C37.5765 39.2957 37.8967 38.9754 37.8967 38.5804V18.5644C37.8967 18.1694 37.5764 17.8491 37.1814 17.8491C36.7864 17.8491 36.4661 18.1694 36.4661 18.5644V37.865H29.4991V35.3287C29.4991 34.9336 29.1788 34.6134 28.7838 34.6134H27.4403V32.0771C27.4403 31.682 27.12 31.3617 26.725 31.3617H24.7693V17.7437C24.7693 17.3487 24.4489 17.0284 24.0539 17.0284H15.9462C15.5511 17.0284 15.2309 17.3487 15.2309 17.7437V26.2858C15.2309 26.6809 15.5512 27.0011 15.9462 27.0011C16.3413 27.0011 16.6615 26.6808 16.6615 26.2858V18.4591H23.3385V31.3617H16.6615V28.6989C16.6615 28.3038 16.3412 27.9836 15.9462 27.9836C15.5511 27.9836 15.2309 28.3039 15.2309 28.6989V31.3617H13.275C12.8799 31.3617 12.5597 31.682 12.5597 32.077V34.6133H11.2163C10.8212 34.6133 10.5009 34.9336 10.5009 35.3286V37.865H3.53398V11.3037H12.2656L9.52922 14.04C9.24985 14.3194 9.24985 14.7723 9.52922 15.0516C9.8086 15.3309 10.2616 15.3309 10.5408 15.0516L19.9999 5.59247L29.4589 15.0516C29.5986 15.1912 29.7817 15.2611 29.9647 15.2611C30.1478 15.2611 30.3309 15.1912 30.4705 15.0516C30.7499 14.7722 30.7499 14.3192 30.4705 14.04L27.7342 11.3037H36.4658V16.1513C36.4658 16.5464 36.7861 16.8666 37.1811 16.8666C37.5761 16.8666 37.8964 16.5463 37.8964 16.1513V11.3037H39.2844C39.5261 11.3037 39.7513 11.1816 39.8834 10.9793C40.0158 10.7768 40.0368 10.5214 39.9394 10.3002ZM11.9316 36.044H22.0892C22.4843 36.044 22.8046 35.7237 22.8046 35.3287C22.8046 34.9336 22.4842 34.6134 22.0892 34.6134H13.9905V32.7924H26.0097V34.6134H24.5025C24.1075 34.6134 23.7872 34.9337 23.7872 35.3287C23.7872 35.7238 24.1075 36.044 24.5025 36.044H28.0686V37.865H11.9316V36.044ZM26.3038 9.87295L20.5058 4.07497C20.2264 3.79559 19.7735 3.79559 19.4942 4.07497L13.6963 9.87295H1.81147L5.21578 2.13481H34.784L38.1883 9.87295H26.3038Z" fill="#597AB2"/>
<path d="M33.7058 19.2002H27.625C27.2299 19.2002 26.9097 19.5205 26.9097 19.9155V28.3128C26.9097 28.7079 27.23 29.0281 27.625 29.0281H33.7058C34.1009 29.0281 34.4211 28.7078 34.4211 28.3128V19.9155C34.4211 19.5204 34.1008 19.2002 33.7058 19.2002ZM32.9904 27.5974H28.3403V23.9609H31.2926C31.6876 23.9609 32.0079 23.6406 32.0079 23.2456C32.0079 22.8506 31.6876 22.5303 31.2926 22.5303H28.3403V20.6311H32.9904V27.5974Z" fill="#597AB2"/>
<path d="M12.3752 19.2002H6.29442C5.89934 19.2002 5.5791 19.5205 5.5791 19.9155V28.3128C5.5791 28.7079 5.89942 29.0281 6.29442 29.0281H12.3752C12.7703 29.0281 13.0905 28.7078 13.0905 28.3128V19.9155C13.0905 19.5204 12.7703 19.2002 12.3752 19.2002ZM11.6599 27.5974H7.00981V23.9609H11.6599V27.5974ZM11.6599 22.53H7.00981V20.6308H11.6599V22.53Z" fill="#597AB2"/>
<path d="M17.9389 25.9882C18.334 25.9882 18.6543 25.668 18.6543 25.2729C18.6543 24.8779 18.334 24.5576 17.9389 24.5576C17.5439 24.5576 17.2236 24.8779 17.2236 25.2729C17.2236 25.668 17.5439 25.9882 17.9389 25.9882Z" fill="#597AB2"/>
</svg>
