<svg width="10" height="6" viewBox="0 0 10 6" fill="none" xmlns="http://www.w3.org/2000/svg">
<g clip-path="url(#clip0_1112_12)">
<path d="M4.70302 4.72933L8.74311 0.643913C8.97452 0.409911 9.3497 0.409911 9.58111 0.643913C9.81251 0.877915 9.81251 1.25731 9.58111 1.49131L5.54101 5.57672C5.30961 5.81073 4.93442 5.81073 4.70302 5.57672C4.47161 5.34272 4.47161 4.96333 4.70302 4.72933Z" fill="#597AB2" stroke="#597AB2" stroke-width="0.4"/>
<path d="M4.45909 5.35628L0.418998 1.27087C0.187592 1.03686 0.187592 0.657472 0.418998 0.42347C0.650404 0.189468 1.02559 0.189468 1.25699 0.42347L5.29709 4.50889C5.52849 4.74289 5.52849 5.12228 5.29709 5.35628C5.06568 5.59028 4.6905 5.59028 4.45909 5.35628Z" fill="#597AB2" stroke="#597AB2" stroke-width="0.4"/>
</g>
<defs>
<clipPath id="clip0_1112_12">
<rect width="10" height="6" fill="white"/>
</clipPath>
</defs>
</svg>
