<svg width="40" height="36" viewBox="0 0 40 36" fill="none" xmlns="http://www.w3.org/2000/svg">
<path d="M39.5764 8.07786L28.8714 3.90286C28.529 3.76935 28.1434 3.93872 28.0099 4.28083C27.8765 4.6231 28.0457 5.0088 28.3879 5.14216L35.3531 7.85864C35.3525 7.86981 35.3514 7.88083 35.3514 7.89208V9.12481H11.9777C11.6102 9.12481 11.3125 9.42262 11.3125 9.78996C11.3125 10.1573 11.6102 10.4551 11.9777 10.4551H35.3514V11.87H31.0007C30.6333 11.87 30.3355 12.1678 30.3355 12.5351C30.3355 12.9025 30.6333 13.2003 31.0007 13.2003H35.3514V14.6151H4.64861V13.2003H28.7835C29.1509 13.2003 29.4486 12.9025 29.4486 12.5351C29.4486 12.1678 29.1509 11.87 28.7835 11.87H4.64861V10.4551H9.76048C10.1279 10.4551 10.4256 10.1573 10.4256 9.78996C10.4256 9.42262 10.1279 9.12481 9.76048 9.12481H4.64861V7.89208C4.64861 7.88083 4.64744 7.86981 4.64689 7.85864L20.0001 1.87076L25.8552 4.15435C26.1976 4.28786 26.5832 4.11849 26.7167 3.77638C26.8502 3.43412 26.6809 3.04841 26.3387 2.91505L20.2419 0.537168C20.0864 0.476543 19.9141 0.476543 19.7585 0.537168L0.423621 8.07786C0.0814346 8.21137 -0.087862 8.59707 0.0456534 8.93918C0.148153 9.20207 0.399403 9.36285 0.665496 9.36285C0.745886 9.36285 0.827605 9.34817 0.907058 9.31715L3.31815 8.37684V24.5427C3.31815 24.91 3.61588 25.2078 3.9833 25.2078C4.35072 25.2078 4.64846 24.91 4.64846 24.5427V15.9457H35.3513V34.1783H30.0661V32.6381H30.9973C31.3647 32.6381 31.6625 32.3403 31.6625 31.973V29.8444C31.6625 29.477 31.3647 29.1792 30.9973 29.1792H30.5095V24.7855C30.5095 24.0674 30.151 23.4317 29.604 23.0468L30.0994 22.5514H31.1746C31.542 22.5514 31.8397 22.2536 31.8397 21.8863C31.8397 21.5189 31.542 21.2211 31.1746 21.2211H29.824C29.6476 21.2211 29.4784 21.2912 29.3536 21.416L28.2169 22.5527L27.4903 19.4741C27.2305 18.3737 26.2596 17.6052 25.1291 17.6052H14.6933C13.5627 17.6052 12.5918 18.3737 12.332 19.4741L11.6394 22.4092L10.6463 21.4159C10.5215 21.2911 10.3524 21.221 10.1759 21.221H8.82509C8.45767 21.221 8.15993 21.5188 8.15993 21.8862C8.15993 22.2535 8.45767 22.5513 8.82509 22.5513H9.9004L10.3958 23.0467C9.84876 23.4316 9.49024 24.0672 9.49024 24.7854V29.1791H9.00243C8.63501 29.1791 8.33728 29.477 8.33728 29.8443V31.9729C8.33728 32.3402 8.63501 32.638 9.00243 32.638H9.93368V34.1782H4.64861V26.7599C4.64861 26.3926 4.35088 26.0948 3.98346 26.0948C3.61604 26.0948 3.3183 26.3926 3.3183 26.7599V34.1782H1.34878C0.981355 34.1782 0.683621 34.476 0.683621 34.8434C0.683621 35.2107 0.981355 35.5085 1.34878 35.5085H38.6512C39.0186 35.5085 39.3164 35.2107 39.3164 34.8434C39.3164 34.476 39.0186 34.1782 38.6512 34.1782H36.6818V8.37692L39.0931 9.31731C39.1725 9.34824 39.2542 9.36301 39.3346 9.36301C39.6007 9.36301 39.8521 9.20223 39.9545 8.93934C40.0878 8.597 39.9185 8.21129 39.5764 8.07786ZM13.6268 19.7796C13.7441 19.2825 14.1827 18.9355 14.6932 18.9355H25.1291C25.6397 18.9355 26.0782 19.2826 26.1954 19.7796L26.8754 22.6605H12.9469L13.6268 19.7796ZM9.66743 31.3077V30.5095H14.0173C14.3847 30.5095 14.6824 30.2117 14.6824 29.8444C14.6824 29.477 14.3847 29.1792 14.0173 29.1792H10.8204V24.7855C10.8204 24.3474 11.177 23.9908 11.6151 23.9908H28.3846C28.8227 23.9908 29.1793 24.3474 29.1793 24.7855V29.1792H16.2345C15.8671 29.1792 15.5694 29.477 15.5694 29.8444C15.5694 30.2117 15.8671 30.5095 16.2345 30.5095H30.3322V31.3077H9.66743ZM13.3038 34.1783H11.2639V32.6381H13.3038V34.1783ZM25.3656 34.1783H14.6341V32.6381H25.3656V34.1783ZM28.7358 34.1783H26.696V32.6381H28.7358V34.1783Z" fill="#597AB2"/>
<path d="M26.4742 24.4341C25.276 24.4341 24.3013 25.4088 24.3013 26.607C24.3013 27.8051 25.276 28.7799 26.4742 28.7799C27.6724 28.7799 28.647 27.8051 28.647 26.607C28.647 25.4088 27.6724 24.4341 26.4742 24.4341ZM26.4742 27.4495C26.0096 27.4495 25.6316 27.0716 25.6316 26.607C25.6316 26.1424 26.0095 25.7644 26.4742 25.7644C26.9388 25.7644 27.3167 26.1424 27.3167 26.607C27.3167 27.0716 26.9388 27.4495 26.4742 27.4495Z" fill="#597AB2"/>
<path d="M13.5254 24.4341C12.3272 24.4341 11.3525 25.4088 11.3525 26.607C11.3525 27.8051 12.3272 28.7799 13.5254 28.7799C14.7236 28.7799 15.6983 27.8051 15.6983 26.607C15.6983 25.4088 14.7236 24.4341 13.5254 24.4341ZM13.5254 27.4495C13.0609 27.4495 12.6828 27.0716 12.6828 26.607C12.6828 26.1424 13.0608 25.7644 13.5254 25.7644C13.99 25.7644 14.368 26.1424 14.368 26.607C14.368 27.0716 13.99 27.4495 13.5254 27.4495Z" fill="#597AB2"/>
</svg>
