<svg width="38" height="40" viewBox="0 0 38 40" fill="none" xmlns="http://www.w3.org/2000/svg">
<path d="M36.6444 7.90041H17.0333C16.6368 6.31407 15.1998 5.13524 13.4924 5.13524H13.2383L11.2319 0.393048C11.1312 0.154766 10.8976 0 10.6389 0C10.3802 0 10.1466 0.154844 10.0458 0.393048L8.03951 5.13524H6.49107C6.13536 5.13524 5.84708 5.4236 5.84708 5.77923V7.90033H1.3559C1.0002 7.90033 0.711914 8.18869 0.711914 8.54431V13.6797C0.711914 14.0353 1.0002 14.3237 1.3559 14.3237H5.84724V15.7865C5.84724 16.1421 6.13552 16.4305 6.49122 16.4305H7.42732V35.2886H3.06762C2.71192 35.2886 2.42364 35.5769 2.42364 35.9326V39.3561C2.42364 39.7117 2.71192 40.0001 3.06762 40.0001H12.0455C12.4012 40.0001 12.6894 39.7117 12.6894 39.3561C12.6894 39.0005 12.4012 38.7121 12.0455 38.7121H3.71161V36.5766H17.5662V38.7121H14.1062C13.7505 38.7121 13.4622 39.0005 13.4622 39.3561C13.4622 39.7117 13.7505 40.0001 14.1062 40.0001H18.2101C18.5659 40.0001 18.8541 39.7117 18.8541 39.3561V35.9326C18.8541 35.5769 18.5659 35.2886 18.2101 35.2886H13.8505V16.4304H16.4984C16.8541 16.4304 17.1424 16.1421 17.1424 15.7864V14.3236H32.8403V20.1662H32.454C32.0983 20.1662 31.81 20.4546 31.81 20.8102C31.81 21.1658 32.0983 21.4542 32.454 21.4542H32.8403V23.0943C32.8403 23.45 33.1286 23.7383 33.4843 23.7383C34.1275 23.7383 34.6509 24.2616 34.6509 24.9048C34.6509 25.548 34.1275 26.0714 33.4843 26.0714C32.8411 26.0714 32.3178 25.548 32.3178 24.9048C32.3178 24.5492 32.0295 24.2608 31.6738 24.2608C31.3181 24.2608 31.0298 24.5492 31.0298 24.9048C31.0298 26.2582 32.1308 27.3594 33.4843 27.3594C34.8378 27.3594 35.9389 26.2583 35.9389 24.9048C35.9389 23.7743 35.1703 22.8197 34.1283 22.5361V21.4542H34.5146C34.8703 21.4542 35.1586 21.1658 35.1586 20.8102C35.1586 20.4546 34.8703 20.1662 34.5146 20.1662H34.1283V14.3236H36.6445C37.0002 14.3236 37.2885 14.0353 37.2885 13.6796V8.54431C37.2884 8.18869 37.0001 7.90041 36.6444 7.90041ZM1.99989 13.0357V10.0992L4.93645 13.0357H1.99989ZM5.84708 12.1249L2.91051 9.18838H5.84708V12.1249ZM10.6389 2.2968L11.8398 5.13532H9.43802L10.6389 2.2968ZM12.5625 35.2885H9.62592L12.5625 32.3519V35.2885ZM8.71521 34.3779V27.2169L12.2958 30.7973L8.71521 34.3779ZM12.5625 29.2426L8.98193 25.662L12.5625 22.0815V29.2426ZM8.71521 24.1073V17.3412L12.0983 20.7243L8.71521 24.1073ZM12.5625 19.367L9.62592 16.4304H12.5625V19.367ZM15.8544 12.2014H11.2169V10.2925C11.2169 9.9369 10.9287 9.64853 10.5729 9.64853C10.2172 9.64853 9.92896 9.9369 9.92896 10.2925V12.8454C9.92896 13.201 10.2172 13.4894 10.5729 13.4894H15.8544V15.1425H7.13505V6.42329H9.92888V8.18884C9.92888 8.54447 10.2172 8.83283 10.5729 8.83283C10.9286 8.83283 11.2169 8.54447 11.2169 8.18884V6.42329H12.8094C12.8101 6.42329 12.8109 6.42345 12.8117 6.42345C12.8128 6.42345 13.4924 6.42329 13.4924 6.42329C14.7948 6.42329 15.8544 7.48291 15.8544 8.78525V12.2014H15.8544ZM17.1423 12.1249V9.18838H20.0789L17.1423 12.1249ZM18.0531 13.0357L21.4362 9.65268L24.8191 13.0357H18.0531ZM22.7934 9.18838H29.9544L26.3738 12.7689L22.7934 9.18838ZM27.9286 13.0357L31.5092 9.45518L35.0897 13.0357H27.9286ZM36.0004 12.1249L33.0639 9.18838H36.0004V12.1249Z" fill="#597AB2"/>
</svg>
