<svg width="40" height="40" viewBox="0 0 40 40" fill="none" xmlns="http://www.w3.org/2000/svg">
<path d="M39.2781 0.000976562H0.721875C0.323203 0.000976562 0 0.32418 0 0.722852V39.279C0 39.6777 0.323203 40.0009 0.721875 40.0009H26.2476C26.6462 40.0009 26.9695 39.6777 26.9695 39.279V36.2096C26.9695 35.811 26.6462 35.4878 26.2476 35.4878H22.2415V28.4599C22.2415 28.0612 21.9183 27.738 21.5196 27.738H18.4803C18.0816 27.738 17.7584 28.0612 17.7584 28.4599V35.4878H4.48305V33.8337H6.67813C7.35648 33.8337 7.95594 33.4918 8.31508 32.9718C8.94289 33.2971 9.6643 33.4713 10.4221 33.4713C12.6738 33.4713 14.5058 31.8973 14.5058 29.9626C14.5058 29.3882 14.3414 28.8185 14.0305 28.3151C13.821 27.9761 13.3761 27.8707 13.037 28.0804C12.6977 28.2899 12.5927 28.7346 12.8022 29.0739C12.9746 29.353 13.062 29.652 13.062 29.9626C13.062 31.1011 11.8777 32.0275 10.4221 32.0275C9.77258 32.0275 9.14937 31.8373 8.66687 31.4994V28.4257C9.14937 28.0879 9.77258 27.8977 10.4221 27.8977C10.8424 27.8977 11.2443 27.9736 11.6166 28.123C11.9863 28.2716 12.4069 28.092 12.5554 27.722C12.7039 27.352 12.5244 26.9317 12.1544 26.7832C11.6102 26.5646 11.0275 26.4539 10.422 26.4539C9.66406 26.4539 8.9425 26.6281 8.31445 26.9536C7.95531 26.4339 7.35609 26.0923 6.67789 26.0923H4.48305V24.1673H24.4071C24.8058 24.1673 25.129 23.8441 25.129 23.4454V20.4062C25.129 20.0075 24.8058 19.6843 24.4071 19.6843H8.68148C8.28281 19.6843 7.95961 20.0075 7.95961 20.4062C7.95961 20.8049 8.28281 21.1281 8.68148 21.1281H23.6853V22.7236H3.76117C3.3625 22.7236 3.0393 23.0468 3.0393 23.4454V36.2096C3.0393 36.6082 3.3625 36.9314 3.76117 36.9314H18.4804C18.8791 36.9314 19.2023 36.6082 19.2023 36.2096V29.1817H20.7978V36.2096C20.7978 36.6082 21.121 36.9314 21.5197 36.9314H25.5258V38.557H1.44375V1.44473H38.5562V4.79223C38.5562 5.1909 38.8795 5.5141 39.2781 5.5141C39.6768 5.5141 40 5.1909 40 4.79223V0.722852C40 0.32418 39.6768 0.000976562 39.2781 0.000976562ZM4.48305 27.5364H6.67813V27.5363C6.97875 27.5363 7.2232 27.7807 7.2232 28.0814V31.845C7.2232 32.1454 6.97875 32.39 6.67813 32.39H4.48305V27.5364Z" fill="#597AB2"/>
<path d="M30.1752 6.31006H24.8459C24.4472 6.31006 24.124 6.63326 24.124 7.03193V16.9458C24.124 17.3444 24.4472 17.6676 24.8459 17.6676H30.1752C30.5739 17.6676 30.8971 17.3444 30.8971 16.9458V14.5876V9.39006V7.03193C30.8971 6.63326 30.5739 6.31006 30.1752 6.31006ZM29.4533 13.8658H28.0764V10.1119H29.4533V13.8658ZM29.4533 8.66818H27.3545C26.9558 8.66818 26.6326 8.99139 26.6326 9.39006V14.5876C26.6326 14.9863 26.9558 15.3095 27.3545 15.3095H29.4533V16.2239H25.5678V7.75381H29.4533V8.66818Z" fill="#597AB2"/>
<path d="M39.2779 6.63615C38.8792 6.63615 38.556 6.95936 38.556 7.35803V38.5562H32.7838V36.9307H36.2386C36.6373 36.9307 36.9605 36.6075 36.9605 36.2088V23.4447C36.9605 23.0461 36.6373 22.7229 36.2386 22.7229H33.1539V21.1274H36.2386C36.6373 21.1274 36.9605 20.8042 36.9605 20.4055V3.73115C36.9605 3.33248 36.6373 3.00928 36.2386 3.00928H21.5194C21.1207 3.00928 20.7975 3.33248 20.7975 3.73115V14.188H19.202V3.73115C19.202 3.33248 18.8788 3.00928 18.4801 3.00928H3.76094C3.36227 3.00928 3.03906 3.33248 3.03906 3.73115V17.3127V20.4054C3.03906 20.8041 3.36227 21.1273 3.76094 21.1273H6.37125C6.76992 21.1273 7.09313 20.8041 7.09313 20.4054C7.09313 20.0068 6.76992 19.6836 6.37125 19.6836H4.48281V18.0346H7.5461C10.0999 18.0346 12.1776 15.9569 12.1776 13.4032V4.45303H17.7582V14.9099C17.7582 15.3086 18.0814 15.6318 18.4801 15.6318H21.5194C21.9181 15.6318 22.2413 15.3086 22.2413 14.9099V4.45303H35.5167V6.31021H33.6103C33.2117 6.31021 32.8885 6.63342 32.8885 7.03209V16.9459C32.8885 17.3446 33.2117 17.6678 33.6103 17.6678H35.5167V19.6836H32.432C32.0333 19.6836 31.7101 20.0068 31.7101 20.4054V23.4447C31.7101 23.8433 32.0333 24.1665 32.432 24.1665H35.5167V35.4869H32.0618C31.6631 35.4869 31.3399 35.8101 31.3399 36.2087V39.2781C31.3399 39.6768 31.6631 40 32.0618 40H39.2777C39.6763 40 39.9995 39.6768 39.9995 39.2781V7.35803C39.9998 6.95936 39.6766 6.63615 39.2779 6.63615ZM10.7339 13.4032H10.7338C10.7338 15.1608 9.30383 16.5908 7.5461 16.5908H4.48281V4.45303H5.00953V4.91967C5.00953 5.31834 5.33274 5.64154 5.73141 5.64154C6.13008 5.64154 6.45328 5.31834 6.45328 4.91967V4.45303H6.88641V6.36342C6.88641 6.76209 7.20961 7.08529 7.60828 7.08529C8.00696 7.08529 8.33016 6.76209 8.33016 6.36342V4.45303H8.76328V4.91967C8.76328 5.31834 9.08649 5.64154 9.48516 5.64154C9.88383 5.64154 10.207 5.31834 10.207 4.91967V4.45303H10.7338V13.4032H10.7339ZM35.5167 16.2241H34.3323V7.75396H35.5167V16.2241Z" fill="#597AB2"/>
<path d="M10.2209 30.684C10.6196 30.684 10.9428 30.3608 10.9428 29.9621C10.9428 29.5634 10.6196 29.2402 10.2209 29.2402C9.82222 29.2402 9.49902 29.5634 9.49902 29.9621C9.49902 30.3608 9.82222 30.684 10.2209 30.684Z" fill="#597AB2"/>
<path d="M7.60859 14.6889C8.00727 14.6889 8.33047 14.3657 8.33047 13.967C8.33047 13.5683 8.00727 13.2451 7.60859 13.2451C7.20991 13.2451 6.88672 13.5683 6.88672 13.967C6.88672 14.3657 7.20991 14.6889 7.60859 14.6889Z" fill="#597AB2"/>
</svg>
