<svg width="40" height="40" viewBox="0 0 40 40" fill="none" xmlns="http://www.w3.org/2000/svg">
<g clip-path="url(#clip0)">
<path d="M39.6962 18.6678L32.3159 12.3653C32.3246 12.3222 32.3332 12.279 32.3418 12.2273V3.98482C32.3332 3.49337 31.9452 3.09677 31.4537 3.07952H27.3325C26.8583 3.07952 26.4703 3.50199 26.4703 3.98482V7.39907L20.5643 2.36391C20.2453 2.08801 19.7711 2.08801 19.4435 2.36391L0.311586 18.6592C-0.0591542 18.961 -0.102264 19.5042 0.199502 19.8749C0.501267 20.2456 1.04444 20.2888 1.41518 19.987C1.42381 19.9784 1.42381 19.9784 1.43243 19.9697L20.0039 4.15725L26.6514 9.82182L30.626 13.2016L38.584 19.9784C38.9461 20.2888 39.4893 20.2456 39.7997 19.8835C40.1015 19.5214 40.0584 18.9782 39.6962 18.6678ZM30.6088 10.9082L28.1947 8.87341V4.81252H30.6088V10.9082Z" fill="#597AB2"/>
<path d="M35.894 20.4095L33.4712 18.3402L20.5643 7.31288C20.2453 7.03698 19.7711 7.03698 19.4434 7.31288L6.53652 18.3402L4.11378 20.4095C3.75166 20.7199 3.70855 21.2631 4.01894 21.6252C4.32071 21.9873 4.85526 22.0304 5.20876 21.7286L5.21738 21.72L6.29511 20.7888V36.9548C6.30373 37.4377 6.70034 37.8343 7.18316 37.8429H32.816C33.2988 37.8343 33.6954 37.4463 33.704 36.9548V20.7888L34.7817 21.72C34.9369 21.8493 35.1266 21.9269 35.3335 21.9269C35.5836 21.9269 35.825 21.8149 35.9888 21.6252C36.3078 21.2544 36.2561 20.7113 35.894 20.4095ZM23.4526 36.1099H16.5551V26.7983H23.4526V36.1099ZM25.177 36.1099V25.962C25.177 25.4878 24.8235 25.0739 24.3493 25.0739H15.6585C15.1842 25.0739 14.8308 25.4878 14.8308 25.962V36.1099H8.01948V19.3145L20.0039 9.10623L31.9883 19.3145V36.1099H25.177Z" fill="#597AB2"/>
</g>
<defs>
<clipPath id="clip0">
<rect width="40" height="40" fill="white"/>
</clipPath>
</defs>
</svg>
