<svg width="10" height="6" viewBox="0 0 10 6" fill="none" xmlns="http://www.w3.org/2000/svg">
<g clip-path="url(#clip0_1112_15)">
<path d="M5.29698 1.27067L1.25689 5.35609C1.02548 5.59009 0.650299 5.59009 0.418893 5.35609C0.187487 5.12209 0.187487 4.74269 0.418893 4.50869L4.45899 0.423276C4.69039 0.189274 5.06558 0.189274 5.29698 0.423276C5.52839 0.657278 5.52839 1.03667 5.29698 1.27067Z" fill="#597AB2" stroke="#597AB2" stroke-width="0.4"/>
<path d="M5.54091 0.643718L9.581 4.72913C9.81241 4.96314 9.81241 5.34253 9.581 5.57653C9.3496 5.81053 8.97441 5.81053 8.74301 5.57653L4.70291 1.49111C4.47151 1.25711 4.47151 0.87772 4.70291 0.643718C4.93432 0.409716 5.3095 0.409716 5.54091 0.643718Z" fill="#597AB2" stroke="#597AB2" stroke-width="0.4"/>
</g>
<defs>
<clipPath id="clip0_1112_15">
<rect width="10" height="6" fill="white" transform="translate(10 6) rotate(-180)"/>
</clipPath>
</defs>
</svg>
