<svg width="38" height="40" viewBox="0 0 38 40" fill="none" xmlns="http://www.w3.org/2000/svg">
<path d="M37.1065 0H0.893984C0.511328 0 0.201172 0.310234 0.201172 0.692813V14.0877C0.201172 15.3646 0.935156 16.4725 2.00281 17.0139V39.3071C2.00281 39.6898 2.31305 39.9999 2.69562 39.9999H35.3053C35.688 39.9999 35.9981 39.6897 35.9981 39.3071V17.0137C37.0655 16.4721 37.7992 15.3644 37.7992 14.0877V0.692813C37.7993 0.310234 37.4891 0 37.1065 0ZM22.2797 1.3857H26.0672V14.0878C26.0672 15.132 25.2177 15.9816 24.1734 15.9816C23.1292 15.9816 22.2797 15.132 22.2797 14.0878V1.3857ZM17.1065 1.3857H20.894V14.0878C20.894 15.132 20.0445 15.9816 19.0002 15.9816C17.956 15.9816 17.1065 15.132 17.1065 14.0878V1.3857ZM6.76008 1.3857H10.5476V9.74602C10.5476 10.1287 10.8578 10.4388 11.2404 10.4388C11.623 10.4388 11.9332 10.1286 11.9332 9.74602V1.3857H15.7207V14.0878C15.7207 15.132 14.8712 15.9816 13.827 15.9816C12.7827 15.9816 11.9332 15.132 11.9332 14.0878V11.9631C11.9332 11.5805 11.623 11.2703 11.2404 11.2703C10.8578 11.2703 10.5476 11.5805 10.5476 11.9631V14.0878C10.5476 15.132 9.69805 15.9816 8.65383 15.9816C7.60961 15.9816 6.76008 15.132 6.76008 14.0878V1.3857ZM1.58687 14.0877V1.3857H5.37437V14.0878C5.37437 15.132 4.52484 15.9816 3.48062 15.9816C2.43641 15.9816 1.58687 15.132 1.58687 14.0877ZM34.6125 38.6143H33.5278V27.2055C33.5278 26.8229 33.2176 26.5127 32.835 26.5127C32.4524 26.5127 32.1422 26.823 32.1422 27.2055V38.6143H25.0976V21.8014H32.1422V24.8961C32.1422 25.2788 32.4524 25.5889 32.835 25.5889C33.2176 25.5889 33.5278 25.2787 33.5278 24.8961V21.1086C33.5278 20.7259 33.2176 20.4158 32.835 20.4158H24.4047C24.022 20.4158 23.7119 20.726 23.7119 21.1086V38.6144H3.38851V17.3649C3.4193 17.3658 3.44977 17.3673 3.48062 17.3673C4.53078 17.3673 5.46656 16.8705 6.06727 16.1002C6.66789 16.8705 7.60375 17.3673 8.65391 17.3673C9.70406 17.3673 10.6398 16.8705 11.2405 16.1002C11.8412 16.8705 12.777 17.3673 13.8272 17.3673C14.8774 17.3673 15.8131 16.8705 16.4138 16.1002C17.0143 16.8704 17.9501 17.3672 19.0002 17.3672C20.0504 17.3672 20.9862 16.8704 21.5869 16.1002C22.1875 16.8704 23.1234 17.3672 24.1735 17.3672C25.2237 17.3672 26.1595 16.8704 26.7602 16.1002C27.3608 16.8704 28.2966 17.3672 29.3468 17.3672C30.3969 17.3672 31.3327 16.8704 31.9334 16.1002C32.5341 16.8704 33.4698 17.3672 34.5201 17.3672C34.5511 17.3672 34.5819 17.3657 34.6127 17.3648V38.6143H34.6125ZM36.4136 14.0877C36.4136 15.132 35.5641 15.9815 34.5198 15.9815C33.4756 15.9815 32.6261 15.132 32.6261 14.0877V5.93125C32.6261 5.54859 32.3159 5.23844 31.9333 5.23844C31.5507 5.23844 31.2405 5.54867 31.2405 5.93125V14.0877C31.2405 15.132 30.3909 15.9815 29.3467 15.9815C28.3025 15.9815 27.453 15.132 27.453 14.0877V1.3857H31.2405V3.71406C31.2405 4.09672 31.5507 4.40688 31.9333 4.40688C32.3159 4.40688 32.6261 4.09664 32.6261 3.71406V1.3857H36.4136V14.0877Z" fill="#597AB2"/>
<path d="M21.4485 18.5684H5.6518C5.26914 18.5684 4.95898 18.8786 4.95898 19.2612V22.7716C4.95898 23.1542 5.26922 23.4644 5.6518 23.4644C6.03437 23.4644 6.34461 23.1541 6.34461 22.7716V19.954H20.7557V35.3813H6.34461V25.0811C6.34461 24.6984 6.03437 24.3883 5.6518 24.3883C5.26922 24.3883 4.95898 24.6985 4.95898 25.0811V36.0741C4.95898 36.4568 5.26922 36.767 5.6518 36.767H21.4486C21.8313 36.767 22.1414 36.4567 22.1414 36.0741V19.2612C22.1414 18.8786 21.8313 18.5684 21.4485 18.5684Z" fill="#597AB2"/>
<path d="M30.5251 22.7251H26.7138C26.3312 22.7251 26.021 23.0353 26.021 23.4179V36.9976C26.021 37.3803 26.3312 37.6904 26.7138 37.6904H30.5251C30.9078 37.6904 31.218 37.3802 31.218 36.9976V23.4179C31.218 23.0353 30.9078 22.7251 30.5251 22.7251ZM29.8323 36.3048H27.4066V34.3649H29.8323V36.3048ZM29.8323 32.9792H27.4066V30.9006H29.8323V32.9792ZM29.8323 29.5149H27.4066V27.4364H29.8323V29.5149ZM29.8323 26.0507H27.4066V24.1108H29.8323V26.0507Z" fill="#597AB2"/>
</svg>
