<svg width="20" height="20" viewBox="0 0 20 20" fill="none" xmlns="http://www.w3.org/2000/svg">
<path d="M16.9037 4.39338H7.97944C7.73409 3.66467 7.04483 3.13818 6.23444 3.13818C5.42405 3.13818 4.73479 3.66467 4.48944 4.39338H3.09644C2.77284 4.39338 2.5105 4.65572 2.5105 4.97932C2.5105 5.30291 2.77284 5.56525 3.09644 5.56525H4.48948C4.73483 6.29396 5.42409 6.82045 6.23448 6.82045C7.04487 6.82045 7.73413 6.29396 7.97948 5.56525H16.9037C17.2273 5.56525 17.4897 5.30291 17.4897 4.97932C17.4897 4.65572 17.2273 4.39338 16.9037 4.39338ZM6.23444 5.64857C5.86542 5.64857 5.56519 5.34834 5.56519 4.97932C5.56519 4.61029 5.86542 4.31006 6.23444 4.31006C6.60347 4.31006 6.9037 4.61029 6.9037 4.97932C6.9037 5.34834 6.60347 5.64857 6.23444 5.64857Z" fill="#808080"/>
<path d="M16.9037 9.41389H15.5107C15.2653 8.68518 14.576 8.15869 13.7657 8.15869C12.9553 8.15869 12.266 8.68518 12.0207 9.41389H3.09644C2.77284 9.41389 2.5105 9.67623 2.5105 9.99982C2.5105 10.3234 2.77284 10.5858 3.09644 10.5858H12.0207C12.266 11.3145 12.9553 11.841 13.7657 11.841C14.576 11.841 15.2653 11.3145 15.5107 10.5858H16.9037C17.2273 10.5858 17.4897 10.3234 17.4897 9.99982C17.4897 9.67623 17.2273 9.41389 16.9037 9.41389ZM13.7657 10.6691C13.3967 10.6691 13.0964 10.3688 13.0964 9.99982C13.0964 9.6308 13.3967 9.33057 13.7657 9.33057C14.1347 9.33057 14.4349 9.6308 14.4349 9.99982C14.4349 10.3688 14.1347 10.6691 13.7657 10.6691Z" fill="#808080"/>
<path d="M16.9037 14.4349H10.4899C10.2445 13.7062 9.55526 13.1797 8.74487 13.1797C7.93448 13.1797 7.24522 13.7062 6.99987 14.4349H3.09644C2.77284 14.4349 2.5105 14.6972 2.5105 15.0208C2.5105 15.3444 2.77284 15.6068 3.09644 15.6068H6.99987C7.24522 16.3355 7.93448 16.862 8.74487 16.862C9.55526 16.862 10.2445 16.3355 10.4899 15.6068H16.9037C17.2273 15.6068 17.4897 15.3444 17.4897 15.0208C17.4897 14.6972 17.2273 14.4349 16.9037 14.4349ZM8.74487 15.6901C8.37585 15.6901 8.07561 15.3899 8.07561 15.0209C8.07561 14.6518 8.37585 14.3516 8.74487 14.3516C9.1139 14.3516 9.41413 14.6518 9.41413 15.0208C9.41413 15.3898 9.1139 15.6901 8.74487 15.6901Z" fill="#808080"/>
</svg>
