<svg width="100" height="100" viewBox="0 0 100 100" fill="none" xmlns="http://www.w3.org/2000/svg">
<g clip-path="url(#clip0)">
<path d="M99.0147 0.2567C98.4055 -0.0909564 97.6563 -0.0850971 97.0528 0.271934L61.2609 21.4368C60.3324 21.9858 60.0248 23.1835 60.5738 24.112C61.1227 25.0403 62.3203 25.3479 63.249 24.7991L88.9291 9.61373L41.0959 59.2452L17.3053 51.9667L48.3531 33.6073C49.2816 33.0581 49.5893 31.8604 49.0402 30.9319C48.4914 30.0036 47.2936 29.6956 46.365 30.2448L11.5058 50.8579C10.8398 51.2518 10.4689 52.0016 10.5605 52.7702C10.6521 53.5387 11.1887 54.1805 11.9285 54.4069L40.3404 63.0991L52.875 85.9141C52.8881 85.9378 52.9016 85.9577 52.9154 85.9754C53.1246 86.3243 53.4381 86.6092 53.8291 86.7737C54.0738 86.8766 54.3311 86.9268 54.5865 86.9268C55.0871 86.9268 55.5799 86.7342 55.952 86.3704L70.3649 72.2844L97.4754 80.5786C97.6629 80.6358 97.8553 80.6641 98.0467 80.6641C98.46 80.6641 98.8682 80.5329 99.2084 80.2811C99.7063 79.9128 100 79.3301 100 78.711V1.95318C100 1.25182 99.6238 0.604161 99.0147 0.2567ZM52.9814 64.3028C52.7553 64.6296 52.634 65.0174 52.634 65.4149V77.3624L44.0748 61.7833L81.95 22.4844L52.9814 64.3028ZM56.5402 80.3338V68.0551L66.1086 70.9825L56.5402 80.3338ZM96.0938 76.071L57.715 64.3296L96.0938 8.92662V76.071Z" fill="#597AB2"/>
<path d="M32.1141 67.8865C31.3512 67.1238 30.1149 67.1238 29.3518 67.8865L11.119 86.1193C10.3563 86.882 10.3563 88.1187 11.119 88.8816C11.5007 89.2628 12.0005 89.4535 12.5003 89.4535C13.0001 89.4535 13.4999 89.2629 13.8813 88.8814L32.1141 70.6486C32.8768 69.8861 32.8768 68.6494 32.1141 67.8865Z" fill="#507587"/>
<path d="M7.8262 92.1733C7.06331 91.411 5.82698 91.411 5.06409 92.1735L0.571899 96.6657C-0.190796 97.4283 -0.190796 98.6651 0.571899 99.428C0.953345 99.8092 1.45315 99.9998 1.95295 99.9998C2.45276 99.9998 2.95256 99.809 3.33401 99.4278L7.8262 94.9356C8.58889 94.1729 8.58889 92.9362 7.8262 92.1733Z" fill="#507587"/>
<path d="M27.861 96.5508C27.4979 96.1875 26.994 95.9785 26.4803 95.9785C25.9645 95.9785 25.4628 96.1875 25.0995 96.5508C24.7362 96.9141 24.5272 97.416 24.5272 97.9316C24.5272 98.4453 24.736 98.9492 25.0995 99.3125C25.4628 99.6758 25.9667 99.8848 26.4803 99.8848C26.994 99.8848 27.4979 99.6758 27.861 99.3125C28.2243 98.9492 28.4335 98.4453 28.4335 97.9316C28.4335 97.416 28.2245 96.9141 27.861 96.5508Z" fill="#507587"/>
<path d="M42.3929 82.0183C41.6306 81.2556 40.3943 81.2556 39.6308 82.0183L29.9734 91.6755C29.2107 92.4382 29.2107 93.675 29.9734 94.4377C30.3548 94.8191 30.8546 95.0097 31.3544 95.0097C31.8542 95.0097 32.3541 94.8189 32.7355 94.4377L42.3929 84.7804C43.1556 84.0177 43.1556 82.781 42.3929 82.0183Z" fill="#507587"/>
<path d="M75.7235 81.277C74.9606 80.5145 73.7243 80.5145 72.9614 81.277L63.2778 90.9605C62.5151 91.7232 62.5151 92.9599 63.2778 93.7228C63.6593 94.1041 64.1591 94.2949 64.6589 94.2949C65.1587 94.2949 65.6585 94.1041 66.0399 93.7228L75.7235 84.0393C76.4862 83.2766 76.4862 82.0398 75.7235 81.277Z" fill="#507587"/>
<path d="M55.3709 26.623C55.0076 26.2598 54.5037 26.0508 53.99 26.0508C53.4763 26.0508 52.9724 26.2598 52.6091 26.623C52.246 26.9863 52.0369 27.4902 52.0369 28.0059C52.0369 28.5195 52.2458 29.0215 52.6091 29.3848C52.9724 29.75 53.4763 29.957 53.99 29.957C54.5037 29.957 55.0076 29.75 55.3709 29.3848C55.7339 29.0215 55.9431 28.5195 55.9431 28.0059C55.9431 27.4902 55.7341 26.9863 55.3709 26.623Z" fill="#507587"/>
</g>
<defs>
<clipPath id="clip0">
<rect width="100" height="100" fill="white"/>
</clipPath>
</defs>
</svg>
