<svg width="250" height="108" viewBox="0 0 250 108" fill="none" xmlns="http://www.w3.org/2000/svg">
<g clip-path="url(#clip0)">
<rect x="177.557" width="73.4718" height="108" fill="#DF3838"/>
<path fill-rule="evenodd" clip-rule="evenodd" d="M10.7769 74.8635C13.9607 74.8635 16.4097 74.7407 18.0016 74.3725C19.7159 74.0044 21.1854 73.3907 22.5324 72.5316C23.6344 71.7953 24.6141 70.9362 25.3488 69.9544C26.206 68.9725 26.6958 67.7453 27.1856 66.518C27.5529 65.2907 27.7978 63.9407 27.7978 62.5907C27.7978 61.2407 27.5529 60.0135 27.1856 58.7862C26.8182 57.5589 26.206 56.4544 25.4712 55.5953C24.7365 54.6134 23.7569 53.8771 22.7773 53.2634C21.6752 52.6498 20.0833 52.1589 18.0016 51.9134C20.0833 51.4225 21.5527 50.8089 22.6548 50.0725C23.512 49.3362 24.0018 48.5998 24.3692 47.8634C25.1039 46.3907 25.4712 44.918 25.4712 43.3225C25.4712 41.4816 24.9814 39.6407 24.1243 37.9225C23.2671 36.2044 22.0426 34.8544 20.4507 33.8725C18.2465 32.5225 15.0627 31.7862 10.6544 31.7862H0.613281V74.8635H10.7769ZM4.89914 54.2453H9.4299C11.879 54.2453 13.7157 54.2453 14.9403 54.368C16.1648 54.4907 17.1444 54.7362 18.1241 54.9816C19.2261 55.3498 20.2058 55.9634 20.9405 56.6998C21.7976 57.4362 22.4099 58.2953 22.7773 59.3998C23.1446 60.3816 23.3895 61.4862 23.3895 62.7134C23.3895 64.1862 23.0222 65.5362 22.2875 66.8862C21.5527 68.1134 20.5731 69.0953 19.2261 69.8316C18.0016 70.568 16.5322 70.9362 14.8178 71.0589H4.89914V54.2453ZM4.89914 35.7134H13.7157C14.328 35.7134 14.9403 35.8362 15.5525 36.0816C16.4097 36.3271 17.1444 36.5725 17.7567 37.0634C18.7363 37.6771 19.5935 38.5362 20.2058 39.6407C20.818 40.7453 21.1854 41.8498 21.1854 43.0771C21.1854 44.3044 20.818 45.4089 20.2058 46.5134C19.5935 47.618 18.7363 48.4771 17.6342 48.968C16.7771 49.4589 15.7975 49.8271 14.5729 49.9498C13.4708 50.1953 11.7565 50.1953 9.4299 50.1953H4.89914V35.7134ZM45.676 74.8635C48.8598 74.8635 51.3088 74.7407 52.9007 74.3725C54.615 74.0044 56.0845 73.3907 57.4315 72.5316C58.5335 71.7953 59.5132 70.9362 60.2479 69.9544C61.1051 68.9725 61.5949 67.7453 62.0847 66.518C62.452 65.2907 62.6969 63.9407 62.6969 62.5907C62.6969 60.5044 62.2071 58.5407 61.2275 56.8225C60.2479 54.9816 59.0233 53.6316 57.309 52.5271C55.962 51.668 54.3701 51.0544 52.7782 50.6862C51.0639 50.318 48.7373 50.1953 45.5535 50.1953H39.6758V31.7862H35.5124V74.8635H45.676ZM73.2279 74.8635V31.7862H68.942V74.8635H73.2279ZM39.7982 54.2453H44.329C46.7781 54.2453 48.6148 54.2453 49.8394 54.368C51.0639 54.4907 52.0435 54.7362 53.0232 54.9816C54.1252 55.3498 55.1049 55.9634 55.8396 56.6998C56.6967 57.4362 57.309 58.2953 57.6764 59.3998C58.0437 60.3816 58.2886 61.4862 58.2886 62.7134C58.2886 64.1862 57.9213 65.5362 57.1866 66.8862C56.4518 68.1134 55.4722 69.0953 54.1252 69.8316C52.9007 70.568 51.4313 70.9362 49.7169 71.0589H39.7982V54.2453ZM121.964 39.6407C120.495 37.7998 118.658 36.2044 116.454 34.6089C112.658 32.3998 108.617 31.1725 104.086 31.1725C100.045 31.1725 96.2491 32.1544 92.8204 34.118C89.3917 36.0816 86.6977 38.7816 84.7385 42.218C82.7792 45.6544 81.7996 49.3362 81.7996 53.3862C81.7996 57.4362 82.7792 61.2407 84.7385 64.6771C86.6977 68.1134 89.3917 70.8134 92.8204 72.7771C96.2491 74.7407 100.045 75.7225 104.086 75.7225C109.719 75.7225 114.739 73.7589 119.148 69.9544C120.127 68.9725 120.985 68.1135 121.597 67.3771C122.209 66.518 123.066 65.4134 123.923 63.818H119.148C117.801 65.4134 116.821 66.6407 115.842 67.3771C115.107 67.9907 113.882 68.8498 112.535 69.5862C109.964 70.9362 107.147 71.5498 104.453 71.5498C101.27 71.5498 98.2083 70.6907 95.3919 69.0953C92.5755 67.3771 90.3713 65.168 88.7794 62.468C87.0651 59.6453 86.2079 56.5771 86.2079 53.3862C86.2079 50.1953 87.0651 47.2498 88.657 44.4271C90.2489 41.6044 92.453 39.3953 95.2694 37.7998C98.0859 36.2044 101.025 35.3453 104.208 35.3453C106.29 35.3453 108.249 35.7134 110.209 36.3271C112.168 37.0634 114.005 37.9225 115.597 39.1498C116.699 40.0089 117.923 41.2362 119.148 42.9544H123.923C123.311 41.6044 122.576 40.4998 121.964 39.6407ZM141.802 34.118C138.373 36.2044 135.679 38.9044 133.597 42.3407C131.516 45.7771 130.536 49.4589 130.536 53.3862C130.536 57.3134 131.516 60.9953 133.597 64.4316C135.679 67.868 138.373 70.568 141.924 72.5316C145.475 74.4953 149.149 75.4771 153.312 75.4771C157.353 75.4771 161.149 74.4953 164.7 72.5316C168.129 70.568 170.945 67.868 173.027 64.4316C175.109 60.9953 176.088 57.3134 176.088 53.2634C176.088 49.2134 175.109 45.5316 173.027 42.0953C170.945 38.6589 168.129 35.9589 164.578 33.9953C161.027 32.0316 157.108 31.0498 152.945 31.0498C148.904 31.0498 145.23 32.1544 141.802 34.118ZM162.374 37.6771C165.19 39.2725 167.517 41.4816 169.109 44.3044C170.823 47.1271 171.68 50.0725 171.68 53.2634C171.68 55.718 171.19 58.0498 170.333 60.2589C169.353 62.468 168.129 64.4316 166.415 66.1498C164.7 67.868 162.741 69.0953 160.537 70.0771C158.333 71.0589 156.006 71.4271 153.435 71.4271C150.128 71.4271 147.067 70.568 144.251 68.9725C141.434 67.3771 139.108 65.168 137.516 62.3453C135.801 59.5225 135.067 56.5771 135.067 53.3862C135.067 50.0725 135.924 47.1271 137.516 44.3044C139.23 41.4816 141.434 39.2725 144.251 37.5544C147.067 35.8362 150.128 35.0998 153.312 35.0998C156.496 35.2225 159.557 36.0816 162.374 37.6771Z" fill="#DF3838" stroke="#DF3838"/>
<path fill-rule="evenodd" clip-rule="evenodd" d="M194.699 74.8639V35.7139H204.496V31.7866H180.617V35.7139H190.413V74.8639H194.699ZM211.72 74.8639L217.965 60.3821H238.048L244.293 74.8639H248.946L230.578 31.7866H225.802L207.189 74.8639H211.72ZM236.211 56.5775H219.557L227.639 37.3093L227.884 36.0821L228.129 37.3093L236.211 56.5775Z" fill="white" stroke="white"/>
<path fill-rule="evenodd" clip-rule="evenodd" d="M8.20435 14.6046V1.71826H6.85737V14.6046H8.20435ZM13.3474 14.6046H14.9393L9.79624 7.85462L14.4495 1.71826H12.98L8.3268 7.85462L13.3474 14.6046ZM2.0817 1.71826H0.612265L5.26548 7.85462L0.122453 14.6046H1.71434L6.73491 7.85462L2.0817 1.71826ZM26.2049 1.71826H24.858L17.7557 12.5183L17.6332 12.7637V1.71826H16.2862V14.6046H17.6332L24.7355 3.80462L24.858 3.55917V14.6046H26.2049V1.71826ZM37.3482 14.6046H38.94L34.0419 1.71826H32.5725L27.6744 14.6046H29.0214L33.1848 3.06826L37.3482 14.6046ZM43.2259 2.33189C42.2463 2.94553 41.3891 3.80462 40.7768 4.78644C40.1646 5.76826 39.9197 6.99553 39.9197 8.10008C39.9197 9.32735 40.287 10.4319 40.8993 11.4137C41.5116 12.3955 42.3687 13.2546 43.3484 13.8683C44.4504 14.4819 45.5525 14.7273 46.777 14.7273C48.0016 14.7273 49.1036 14.4819 50.2057 13.8683C51.3078 13.2546 52.0425 12.5183 52.6548 11.4137C53.267 10.4319 53.6344 9.20462 53.6344 8.10008C53.6344 6.8728 53.267 5.76826 52.6548 4.78644C52.0425 3.80462 51.1853 2.94553 50.0833 2.33189C48.9812 1.71826 47.8791 1.4728 46.5321 1.4728C45.4301 1.4728 44.328 1.71826 43.2259 2.33189ZM49.471 3.43644C50.3282 3.92735 50.9404 4.54099 51.4302 5.40008C51.9201 6.25917 52.165 7.11826 52.165 8.10008C52.165 8.83644 52.0425 9.5728 51.7976 10.1864C51.5527 10.8001 51.0629 11.4137 50.5731 11.9046C50.0833 12.3955 49.471 12.7637 48.8587 13.1319C48.2465 13.3773 47.5118 13.5001 46.777 13.5001C45.7974 13.5001 44.8178 13.2546 43.9606 12.7637C43.1034 12.2728 42.3687 11.6592 41.8789 10.8001C41.3891 9.94098 41.1442 9.08189 41.1442 8.10008C41.1442 7.11826 41.3891 6.25917 41.8789 5.40008C42.3687 4.54099 43.1034 3.92735 43.8382 3.43644C44.6953 2.94553 45.5525 2.70008 46.5321 2.70008C47.6342 2.70008 48.6138 2.94553 49.471 3.43644ZM58.1652 0.981894C58.4101 1.22735 58.655 1.4728 59.0223 1.59553C59.3897 1.84098 59.8795 1.84098 60.4918 1.84098C61.4714 1.84098 62.2061 1.59553 62.6959 0.981894C62.8184 0.736439 63.0633 0.490985 63.1857 0.122803H62.0837C61.8388 0.613712 61.2265 0.981894 60.4918 0.981894C59.7571 0.981894 59.2672 0.736439 58.8999 0.122803H57.7978C57.9203 0.490985 58.0427 0.736439 58.1652 0.981894ZM65.3899 1.71826H64.0429L56.9406 12.5183L56.8182 12.7637V1.71826H55.4712V14.6046H56.8182L63.9205 3.80462L64.0429 3.55917V14.6046H65.3899V1.71826ZM80.2067 14.6046H81.7986L75.9208 7.85462L81.5537 1.71826H79.9618L74.2065 7.85462L80.2067 14.6046ZM72.8595 1.71826V14.6046H74.2065V1.71826H72.8595ZM86.2069 2.33189C85.2273 2.94553 84.3701 3.80462 83.7578 4.78644C83.1456 5.76826 82.9007 6.99553 82.9007 8.10008C82.9007 9.32735 83.268 10.4319 83.8803 11.4137C84.4926 12.3955 85.3497 13.2546 86.3293 13.8683C87.4314 14.4819 88.5335 14.7273 89.758 14.7273C90.9826 14.7273 92.0846 14.4819 93.1867 13.8683C94.2888 13.2546 95.0235 12.5183 95.6358 11.4137C96.248 10.4319 96.6154 9.20462 96.6154 8.10008C96.6154 6.8728 96.248 5.76826 95.6358 4.78644C95.0235 3.80462 94.1663 2.94553 93.0643 2.33189C91.8397 1.71826 90.7377 1.4728 89.5131 1.4728C88.2886 1.4728 87.1865 1.71826 86.2069 2.33189ZM92.3295 3.43644C93.1867 3.92735 93.799 4.54099 94.4112 5.40008C94.9011 6.25917 95.146 7.11826 95.146 8.10008C95.146 8.83644 95.0235 9.5728 94.7786 10.1864C94.5337 10.8001 94.0439 11.4137 93.5541 11.9046C93.0643 12.3955 92.452 12.7637 91.8397 13.1319C91.2275 13.3773 90.4928 13.5001 89.758 13.5001C88.7784 13.5001 87.7988 13.2546 86.9416 12.7637C86.0844 12.2728 85.3497 11.6592 84.8599 10.8001C84.3701 9.94098 84.1252 9.08189 84.1252 8.10008C84.1252 7.11826 84.3701 6.25917 84.8599 5.40008C85.3497 4.54099 86.0844 3.92735 86.8192 3.43644C87.6763 2.94553 88.5335 2.70008 89.5131 2.70008C90.6152 2.70008 91.4724 2.94553 92.3295 3.43644ZM100.534 1.71826H98.5746V14.6046H99.9216V3.06826L104.82 14.6046H105.922L110.82 3.06826V14.6046H112.167V1.71826H110.208L105.677 12.7637L105.31 13.1319L105.187 12.641L100.534 1.71826ZM115.841 14.6046V2.8228H122.575V14.6046H123.922V1.71826H114.616V14.6046H115.841ZM135.066 14.6046H136.658L131.637 1.71826H130.168L125.269 14.6046H126.616L130.78 3.06826L135.066 14.6046ZM145.107 14.6046V13.3773H139.351V8.46826H144.862V7.24098H139.351V2.8228H145.107V1.71826H138.005V14.6046H145.107ZM154.781 14.6046H156.372L150.495 7.85462L156.128 1.71826H154.536L148.78 7.85462L154.781 14.6046ZM147.433 1.71826V14.6046H148.78V1.71826H147.433ZM169.352 4.05008C168.985 3.43644 168.373 2.94553 167.761 2.57735C166.658 1.84098 165.434 1.4728 164.087 1.4728C162.862 1.4728 161.76 1.71826 160.658 2.33189C159.679 2.94553 158.822 3.68189 158.209 4.78644C157.597 5.76826 157.352 6.8728 157.352 8.10008C157.352 9.32735 157.597 10.4319 158.209 11.4137C158.822 12.3955 159.556 13.2546 160.658 13.8683C161.638 14.4819 162.862 14.7273 164.087 14.7273C165.801 14.7273 167.271 14.1137 168.618 13.0092C168.863 12.7637 169.23 12.5183 169.352 12.2728C169.597 12.0273 169.72 11.6592 170.087 11.1683H168.618C168.25 11.6592 167.883 12.0273 167.638 12.2728C167.393 12.5183 167.026 12.7637 166.536 12.8864C165.801 13.2546 164.944 13.5001 164.087 13.5001C163.107 13.5001 162.25 13.2546 161.393 12.7637C160.536 12.2728 159.924 11.6592 159.434 10.8001C158.944 9.94098 158.699 9.08189 158.699 8.10008C158.699 7.11826 158.944 6.25917 159.434 5.40008C159.924 4.54099 160.536 3.92735 161.393 3.43644C162.25 2.94553 163.107 2.70008 164.087 2.70008C164.699 2.70008 165.312 2.8228 165.924 2.94553C166.536 3.19098 167.026 3.43644 167.516 3.80462C167.883 4.05008 168.25 4.41826 168.618 4.90917H170.087C169.72 4.66371 169.597 4.29553 169.352 4.05008ZM0.122453 90.941H1.71434V99.1637L9.55133 90.941H11.5106L5.63284 96.9546L11.7555 104.686H9.79624L4.53076 98.0592L1.59189 101.005V104.686H0V90.941H0.122453ZM14.6944 90.941H19.8374C22.8987 90.941 24.9804 92.5364 24.9804 95.3592C24.9804 98.3046 22.5313 99.9001 19.5925 99.9001H16.2862V104.809H14.6944V90.941ZM19.5925 98.4273C21.9191 98.4273 23.3885 97.2001 23.3885 95.3592C23.3885 93.3955 21.9191 92.4137 19.7149 92.4137H16.2862V98.4273H19.5925ZM31.9602 90.8183H33.4297L39.6748 104.686H37.9604L36.3685 101.005H28.8989L27.307 104.686H25.7151L31.9602 90.8183ZM35.7563 99.6546L32.6949 92.6592L29.5112 99.6546H35.7563ZM41.3891 97.8137C41.3891 93.8864 44.328 90.6955 48.3689 90.6955C50.818 90.6955 52.2874 91.6773 53.6344 92.9046L52.6548 94.0092C51.5527 92.9046 50.2057 92.1683 48.3689 92.1683C45.3076 92.1683 43.1034 94.6228 43.1034 97.8137C43.1034 101.005 45.4301 103.459 48.3689 103.459C50.2057 103.459 51.4302 102.723 52.7772 101.496L53.7569 102.6C52.2874 104.073 50.818 104.932 48.2465 104.932C44.328 104.932 41.3891 101.864 41.3891 97.8137ZM56.9406 90.941H58.5325V97.0773H66.492V90.941H68.0839V104.686H66.492V98.5501H58.5325V104.686H56.9406V90.941ZM71.7574 97.8137C71.7574 94.0092 74.5739 90.6955 78.7373 90.6955C82.9007 90.6955 85.7171 94.0092 85.7171 97.8137C85.7171 101.618 82.9007 104.932 78.7373 104.932C74.5739 104.932 71.7574 101.618 71.7574 97.8137ZM84.1252 97.8137C84.1252 94.7455 81.7986 92.1683 78.7373 92.1683C75.6759 92.1683 73.3493 94.6228 73.3493 97.8137C73.3493 100.882 75.6759 103.459 78.7373 103.459C81.7986 103.459 84.1252 101.005 84.1252 97.8137ZM87.9212 102.723L88.9009 101.618C90.2478 102.968 91.7173 103.582 93.6765 103.582C95.3909 103.582 96.8603 102.6 96.8603 100.882C96.8603 99.041 95.2684 98.3046 93.1867 98.3046H91.7173V97.0773H93.1867C95.146 97.0773 96.493 96.0955 96.493 94.5001C96.493 93.0274 95.146 92.0455 93.4316 92.0455C91.8397 92.0455 90.6152 92.5364 89.3907 93.641L88.5335 92.5364C89.8805 91.3092 91.3499 90.6955 93.5541 90.6955C96.248 90.6955 98.2073 92.291 98.2073 94.3773C98.2073 96.2183 96.9827 97.2001 95.7582 97.5683C97.3501 98.0592 98.6971 99.1637 98.6971 101.005C98.6971 103.214 96.7378 104.932 93.9214 104.932C91.3499 104.932 89.5131 104.196 87.9212 102.723ZM102.126 90.941H103.718V97.0773H111.677V90.941H113.269V104.686H111.677V98.5501H103.718V104.686H102.126V90.941ZM122.575 90.8183H124.045L130.29 104.686H128.576L126.984 101.005H119.514L117.922 104.686H116.33L122.575 90.8183ZM126.371 99.6546L123.31 92.6592L120.126 99.6546H126.371ZM133.474 90.941H135.066L140.086 98.4273L145.107 90.941H146.699V104.686H145.107V93.5183L140.086 100.882H139.964L134.943 93.5183V104.686H133.474V90.941ZM150.862 90.941H160.781V92.4137H152.454V97.0773H159.924V98.5501H152.454V103.336H160.903V104.809H150.862V90.941ZM153.311 87.8728H155.025V89.7137H153.311V87.8728ZM156.74 87.8728H158.454V89.7137H156.74V87.8728ZM164.577 90.941H166.169V97.0773H174.128V90.941H175.72V104.686H174.128V98.5501H166.169V104.686H164.577V90.941Z" fill="#DF3838"/>
<path fill-rule="evenodd" clip-rule="evenodd" d="M179.883 90.9413H181.475V97.0776H189.434V90.9413H191.026V104.687H189.434V98.5504H181.475V104.687H179.883V90.9413ZM199.108 90.8185H200.577L206.822 104.687H205.108L203.516 101.005H196.047L194.455 104.687H192.863L199.108 90.8185ZM202.904 99.6549L199.843 92.6594L196.659 99.6549H202.904ZM211.843 99.164C209.639 98.7958 208.047 97.3231 208.047 95.114C208.047 94.0094 208.414 93.0276 209.027 92.414C209.884 91.5549 211.231 91.064 213.068 91.064H218.945V104.809H217.353V99.4094H213.435L209.394 104.687H207.557L211.843 99.164ZM217.476 98.1822V92.414H213.312C211.108 92.414 209.761 93.5185 209.761 95.2367C209.761 97.0776 211.231 98.1822 213.312 98.1822H217.476ZM221.149 106.405C222.007 106.037 222.496 105.669 222.496 104.932V104.687H221.639V102.6H223.476V104.319C223.476 105.914 222.741 106.65 221.272 107.019L221.149 106.405ZM227.884 102.723L228.864 101.619C230.089 102.723 231.313 103.459 232.783 103.459C234.742 103.459 236.089 102.109 236.089 100.391C236.089 98.6731 234.619 97.4458 232.66 97.4458C231.558 97.4458 230.578 97.814 229.721 98.1822L228.742 97.4458L229.109 90.6958H237.068V92.1685H230.578L230.333 96.5867C231.191 96.2185 231.925 95.9731 233.027 95.9731C235.721 95.9731 237.803 97.5685 237.803 100.269C237.803 102.969 235.721 104.809 232.905 104.809C230.823 104.932 229.109 104.073 227.884 102.723ZM246.375 92.414H238.783V90.9413H248.089V92.0458L241.844 104.687H240.13L246.375 92.414Z" fill="white"/>
</g>
<defs>
<clipPath id="clip0">
<rect width="250" height="108" fill="white"/>
</clipPath>
</defs>
</svg>
