<svg width="30" height="30" viewBox="0 0 30 30" fill="none" xmlns="http://www.w3.org/2000/svg">
<g clip-path="url(#clip0)">
<path d="M19.4441 9.188C19.4441 6.73874 17.4515 4.74609 15.0022 4.74609C12.5532 4.74609 10.5605 6.73874 10.5605 9.188C10.5605 11.637 12.553 13.6297 15.0022 13.6297C17.4515 13.6297 19.4441 11.637 19.4441 9.188Z" fill="#597AB2"/>
<path d="M15.0022 24.7266C15.6905 23.83 19.7257 18.2845 21.0841 16.4317C22.6998 14.2282 24.1902 12.0174 24.1902 9.188C24.1902 4.11369 20.0765 0.000228882 15.0022 0.000228882L15.0011 0C9.92654 0 5.81445 4.11346 5.81445 9.18777C5.81445 12.0172 7.3047 14.2282 8.92038 16.4317C10.279 18.2845 15.0022 24.7266 15.0022 24.7266ZM8.80273 9.188C8.80273 5.76942 11.5839 2.98828 15.0022 2.98828C18.4208 2.98828 21.202 5.76942 21.202 9.188C21.202 12.6064 18.4208 15.3875 15.0022 15.3875C11.5839 15.3875 8.80273 12.6064 8.80273 9.188Z" fill="#597AB2"/>
<path d="M18.3762 23.0977C18.1943 23.3462 14.9698 27.6552 14.9698 27.6552L11.6283 23.0977H7.58286L4.98047 29.9998H25.0237L22.421 23.0977H18.3762Z" fill="#597AB2"/>
</g>
<defs>
<clipPath id="clip0">
<rect width="30" height="30" fill="white"/>
</clipPath>
</defs>
</svg>
