<svg width="179" height="25" viewBox="0 0 179 25" fill="none" xmlns="http://www.w3.org/2000/svg">
<path fill-rule="evenodd" clip-rule="evenodd" d="M32.1942 0.345208C32.0369 0.539804 30.6612 2.10137 29.137 3.81542C27.6129 5.52946 25.9006 7.46249 25.3318 8.11094C24.7631 8.75951 23.899 9.73359 23.4114 10.2755C22.9239 10.8174 20.9292 13.062 18.9786 15.2636C17.0281 17.4651 14.8302 19.9441 14.0943 20.7726C13.3585 21.601 12.7565 22.2944 12.7565 22.3133C12.7565 22.3324 13.4354 22.3088 14.2652 22.2609C15.0951 22.213 16.1065 22.1428 16.5129 22.105C16.9194 22.0671 17.6498 22.0009 18.1363 21.9579L19.0208 21.8796L19.6103 21.1888C19.9346 20.8088 21.6122 18.863 23.3385 16.8647C25.0646 14.8664 27.0338 12.5906 27.7145 11.8073C28.3954 11.024 29.7522 9.45709 30.7299 8.32524C31.7076 7.19338 32.5439 6.28235 32.5885 6.30082C32.6331 6.31918 33.6054 7.41507 34.749 8.73598C35.8926 10.0569 36.8852 11.1982 36.9546 11.2724C37.0241 11.3465 37.7461 12.1745 38.5589 13.1125C39.3718 14.0505 40.8629 15.7635 41.8726 16.919C42.8822 18.0746 43.7975 19.036 43.9066 19.0556C44.0159 19.0752 44.797 18.9258 45.6427 18.7235C46.4883 18.5213 47.4297 18.2899 47.7345 18.2091C48.0393 18.1283 48.3318 18.024 48.3847 17.9772C48.4374 17.9304 46.1927 15.3142 43.3966 12.1633C40.6003 9.01248 37.0379 4.98878 35.4799 3.22165C33.9219 1.45453 32.6096 0.00478864 32.5637 0.000108486C32.5178 -0.00469483 32.3516 0.150613 32.1942 0.345208ZM52.2752 22.5874C52.2438 22.6189 51.1399 22.7878 49.8223 22.9629C48.5046 23.1379 47.3895 23.2922 47.3442 23.3059C47.2989 23.3195 47.618 23.7057 48.0534 24.1642L48.8449 24.9978L51.8147 24.9648L54.7844 24.9318L53.6947 23.7309C53.0952 23.0704 52.5436 22.5301 52.4687 22.5301C52.3938 22.5301 52.3068 22.5559 52.2752 22.5874Z" fill="#ED4941"/>
<path fill-rule="evenodd" clip-rule="evenodd" d="M74.1005 18.4791C72.9788 20.3927 71.7579 22.4802 71.3876 23.1179L70.7143 24.2776H73.5059L74.8595 21.8834H81.0518L82.4115 24.2776H83.8007C84.8795 24.2776 85.1709 24.2359 85.1043 24.0906C85.0572 23.9878 84.3526 22.7588 83.5384 21.3597C82.7243 19.9605 81.5584 17.9572 80.9475 16.9079L79.837 15H76.1402L74.1005 18.4791ZM87.2912 24.2776L89.6999 24.2779V20.3122L91.2614 20.2244L92.6543 21.4017C93.4206 22.0492 94.5072 22.9629 95.0691 23.4323L96.0908 24.2857L99.4975 24.2028L98.2413 23.2162C97.5502 22.6737 96.1787 21.5974 95.1931 20.8247C94.2075 20.052 93.4032 19.3849 93.4058 19.3422C93.4082 19.2996 94.3467 18.5957 95.4914 17.7779C96.636 16.9601 97.969 16.0017 98.4537 15.6482L99.335 15.0054L95.8068 15L93.5759 16.7403C91.7777 18.143 91.2379 18.4948 90.7931 18.5542C90.4898 18.5948 90.1064 18.5848 89.9413 18.5319C89.6413 18.436 89.6412 18.4354 89.6412 16.718V15H87.2912V24.2776ZM103.161 15.1639C102.809 15.2415 102.365 15.4215 102.174 15.564C101.983 15.7064 101.728 15.9917 101.608 16.1979C101.487 16.4041 101.336 16.9764 101.273 17.4698C101.209 17.9632 101.158 18.9729 101.158 19.7136C101.158 20.4544 101.209 21.459 101.271 21.9461C101.352 22.5737 101.478 22.9547 101.702 23.2529C101.876 23.4844 102.261 23.7928 102.557 23.9383C103.037 24.1741 103.567 24.2028 107.442 24.2028C111.621 24.2028 111.811 24.1905 112.327 23.8863C112.699 23.6676 112.922 23.4135 113.052 23.0633C113.154 22.7847 113.274 22.2508 113.317 21.8768L113.396 21.1969L110.968 21.21L110.773 21.7558C110.602 22.2352 110.505 22.3214 109.974 22.4666C109.642 22.5574 108.45 22.6316 107.325 22.6316C106.2 22.6316 105.014 22.5589 104.688 22.4698C104.293 22.3618 104.017 22.181 103.86 21.9259C103.65 21.5864 103.624 21.3202 103.624 19.5371C103.624 17.6296 103.637 17.5129 103.9 17.1783C104.13 16.8859 104.349 16.8079 105.194 16.7183C105.754 16.6589 107.044 16.6391 108.061 16.6745C109.536 16.7256 109.99 16.7924 110.306 17.0047C110.524 17.1511 110.755 17.45 110.82 17.6693L110.938 18.0676L112.157 18.0206C112.828 17.9947 113.376 17.9274 113.376 17.871C113.375 17.8146 113.318 17.499 113.247 17.1698C113.177 16.8406 112.958 16.3551 112.76 16.091C112.562 15.8268 112.156 15.4949 111.86 15.3534C111.398 15.133 110.78 15.0908 107.56 15.0594C105.492 15.0392 103.512 15.0862 103.161 15.1639ZM115.609 24.2776L119.898 24.2691L120.661 23.3485C121.081 22.8423 122.48 21.1578 123.769 19.6053C125.473 17.5519 126.178 16.7945 126.354 16.8265C126.59 16.8696 126.595 16.9513 126.595 20.5741V24.2778L129.004 24.2776V15H126.937C125.025 15 124.846 15.0232 124.561 15.3095C124.391 15.4796 123.852 16.1025 123.363 16.6936C122.873 17.2847 121.788 18.5809 120.95 19.574C120.113 20.5672 119.177 21.6691 118.871 22.0226C118.528 22.4188 118.247 22.6321 118.137 22.5783C117.984 22.5038 117.959 21.9543 117.959 18.7456V15H115.609V24.2776ZM133.402 15.1426C133.074 15.2073 132.61 15.3783 132.371 15.5227C132.132 15.6669 131.819 15.9957 131.675 16.2529C131.425 16.6986 131.413 16.86 131.413 19.6388C131.413 22.4836 131.42 22.5688 131.694 23.0338C131.848 23.2962 132.245 23.6665 132.575 23.8568C133.156 24.1919 133.296 24.2043 136.994 24.251C139.56 24.2835 141.044 24.2423 141.518 24.1256C141.905 24.0301 142.396 23.8167 142.607 23.6514C142.819 23.4862 143.083 23.1386 143.195 22.879C143.366 22.4815 143.398 21.9825 143.398 19.7136C143.398 17.4937 143.364 16.9411 143.204 16.5709C143.098 16.3237 142.91 16.0057 142.787 15.864C142.664 15.7223 142.328 15.491 142.041 15.3499C141.592 15.1296 140.984 15.0884 137.758 15.0591C135.69 15.0404 133.729 15.078 133.402 15.1426ZM145.571 24.2776H148.039V20.5367C148.039 17.0668 148.054 16.7957 148.246 16.7957C148.39 16.7957 148.98 17.9174 150.214 20.5368L151.975 24.2779L155.588 24.2028L157.328 20.5367C158.596 17.8648 159.134 16.8575 159.311 16.8226C159.551 16.7753 159.554 16.8169 159.554 20.5262V24.2776H161.904V15H157.352L155.766 18.4791C154.893 20.3927 154.119 22.1073 154.045 22.2894C153.971 22.4715 153.845 22.5873 153.765 22.5469C153.686 22.5065 153.307 21.7851 152.923 20.9438C152.54 20.1027 152.008 18.943 151.741 18.3669C151.474 17.7908 151.021 16.7984 150.734 16.1615L150.213 15.0037L145.571 15V24.2776ZM167.235 18.7784C166.019 20.8564 164.798 22.9439 164.522 23.4172L164.019 24.2776H166.82L167.436 23.1928C167.775 22.596 168.11 22.0583 168.18 21.9979C168.25 21.9374 169.668 21.887 171.33 21.8857L174.353 21.8834L175.71 24.2619L178.571 24.2776L177.317 22.1453C176.627 20.9726 175.41 18.8851 174.614 17.5065L173.165 15H169.446L167.235 18.7784ZM79.0548 18.3295C79.5752 19.2554 80.0021 20.0633 80.0035 20.1251C80.0049 20.1869 79.0808 20.2374 77.9499 20.2374C76.8189 20.2374 75.8936 20.2024 75.8936 20.1594C75.8936 20.1166 76.3495 19.3086 76.9067 18.3637C77.464 17.4191 77.9623 16.646 78.0142 16.646C78.0662 16.646 78.5344 17.4037 79.0548 18.3295ZM172.329 18.2289C172.795 19.0455 173.233 19.8316 173.302 19.9755C173.419 20.2211 173.295 20.2374 171.298 20.2374C170.128 20.2374 169.187 20.1869 169.209 20.1251C169.23 20.0633 169.692 19.2533 170.236 18.3248C170.779 17.3963 171.281 16.6608 171.352 16.6905C171.422 16.72 171.862 17.4123 172.329 18.2289ZM140.449 16.9661C140.61 17.0598 140.829 17.3677 140.934 17.6506C141.086 18.0585 141.118 18.5324 141.087 19.9454C141.052 21.5288 141.02 21.7618 140.796 22.0465C140.657 22.2225 140.314 22.4233 140.032 22.4926C139.751 22.5619 138.568 22.6186 137.405 22.6186C136.242 22.6186 135.063 22.5626 134.785 22.4941C134.506 22.4257 134.15 22.2149 133.991 22.0256C133.717 21.697 133.704 21.5998 133.704 19.847C133.704 18.8378 133.754 17.8433 133.816 17.6368C133.878 17.4303 134.076 17.1593 134.257 17.0345C134.523 16.8504 135.111 16.8066 137.37 16.8017C139.212 16.7978 140.255 16.8533 140.449 16.9661Z" fill="#ED4941"/>
<path fill-rule="evenodd" clip-rule="evenodd" d="M77.3332 6.76867C77.2387 6.95444 76.8357 7.85051 76.4377 8.76005C76.0398 9.6696 75.7143 10.4443 75.7143 10.4816C75.7143 10.5189 75.9246 10.5494 76.1816 10.5494C76.5748 10.5494 76.6738 10.4854 76.8049 10.1465C76.9537 9.76146 77.0036 9.74168 77.9312 9.7011L78.9019 9.65876L79.088 10.104C79.2494 10.4898 79.3389 10.5494 79.7578 10.5494C80.0974 10.5494 80.2235 10.4949 80.1814 10.3663C80.1486 10.2656 79.748 9.35899 79.2913 8.35172L78.461 6.52033L77.9831 6.47564C77.5907 6.43902 77.4744 6.49147 77.3332 6.76867ZM80.8947 6.55271C80.8671 6.61541 80.8516 7.52393 80.8603 8.57149L80.8763 10.4761L81.3162 10.5216L81.7559 10.5671V8.87887V7.19062L82.8517 7.14857C83.8571 7.10989 83.9475 7.0822 83.9475 6.81335C83.9475 6.53791 83.8574 6.51784 82.4462 6.47945C81.6205 6.45689 80.9223 6.48985 80.8947 6.55271ZM84.4806 8.49824V10.5494H86.2575C87.9554 10.5494 88.0345 10.5364 88.0345 10.2564C88.0345 9.98108 87.9554 9.96335 86.7314 9.96335H85.4283V9.37731V8.79126H86.5339C87.1421 8.79126 87.6693 8.75448 87.7057 8.70951C87.742 8.66453 87.7447 8.4997 87.7116 8.34323C87.6574 8.08698 87.5407 8.0587 86.5398 8.0587H85.4283V7.62429V7.18989L86.6425 7.14813C87.7997 7.10828 87.8585 7.09085 87.8947 6.77672C87.9323 6.44781 87.9287 6.44707 86.2066 6.44707H84.4806V8.49824ZM88.8637 8.49824V10.5494H89.2783H89.6929V9.67033V8.79126H90.6406H91.5884V9.67033V10.5494H92.0655H92.5427L92.5098 8.53486L92.4768 6.52033H92.0622H91.6476L91.6118 7.28952L91.5759 8.0587H90.6345H89.6929V7.25289V6.44707H89.2783H88.8637V8.49824ZM93.1734 6.65981C93.1371 6.77687 93.1419 6.9417 93.184 7.02609C93.2263 7.11048 93.5508 7.17963 93.9054 7.17963H94.5499V8.86451V10.5494H95.0238H95.4976V8.86451V7.17963H96.1492C96.7652 7.17963 96.8007 7.15971 96.8007 6.81335V6.44707H95.0201C93.5726 6.44707 93.2271 6.48692 93.1734 6.65981ZM98.2765 6.72252C98.0132 6.87049 97.6967 7.18212 97.5732 7.41522C97.426 7.69315 97.3517 8.0839 97.3574 8.55083C97.3631 9.01674 97.4466 9.39635 97.5993 9.64967C97.7275 9.86255 97.9888 10.1499 98.1799 10.2883C98.371 10.4268 98.8185 10.5693 99.1744 10.6052C99.5471 10.6429 100.015 10.5881 100.277 10.476C100.527 10.3689 100.862 10.1313 101.02 9.94768C101.178 9.7641 101.289 9.54784 101.267 9.46697C101.245 9.3861 101.072 9.26874 100.883 9.20589C100.59 9.10904 100.489 9.15754 100.216 9.52763C99.9637 9.86915 99.7937 9.96335 99.4295 9.96335C99.1435 9.96335 98.8486 9.8501 98.662 9.66857C98.4953 9.50638 98.3239 9.17673 98.2812 8.93601C98.2384 8.69529 98.2395 8.29561 98.2834 8.04801C98.3334 7.7667 98.5035 7.48906 98.737 7.30783C99.0076 7.09788 99.2413 7.03752 99.5834 7.08938C99.847 7.12938 100.136 7.28365 100.237 7.43793C100.374 7.64642 100.528 7.69901 100.86 7.65096C101.103 7.6158 101.302 7.5399 101.302 7.48218C101.302 7.42445 101.182 7.23824 101.036 7.06843C100.889 6.89862 100.619 6.68926 100.436 6.6034C100.252 6.5174 99.7993 6.44854 99.4288 6.4503C99.0335 6.4522 98.5577 6.56458 98.2765 6.72252ZM101.679 6.77672C101.713 7.06872 101.795 7.11136 102.398 7.15033L103.079 7.19428V8.87184V10.5494H103.494H103.909V8.87184V7.19428L104.59 7.15033C105.193 7.11136 105.275 7.06872 105.309 6.77672L105.347 6.44707H103.494H101.641L101.679 6.77672ZM106.041 8.49824V10.5494H107.572C109.046 10.5494 109.116 10.5353 109.467 10.1701C109.723 9.90401 109.832 9.66154 109.832 9.35753C109.832 9.03374 109.745 8.8629 109.49 8.68182L109.149 8.43948L109.387 8.04112C109.555 7.76011 109.602 7.52848 109.547 7.25508C109.494 6.99796 109.331 6.7965 109.061 6.65717C108.792 6.51784 108.215 6.44707 107.348 6.44707H106.041V8.49824ZM111.445 6.59857C111.257 6.66816 110.977 6.87284 110.821 7.05349C110.666 7.23399 110.479 7.62664 110.407 7.92596C110.334 8.22514 110.309 8.69559 110.351 8.97117C110.393 9.24691 110.573 9.64088 110.751 9.84658C110.93 10.0523 111.209 10.3068 111.372 10.412C111.535 10.5176 112.067 10.6067 112.557 10.6106C113.238 10.6159 113.541 10.5494 113.848 10.3271C114.069 10.1673 114.352 9.86607 114.478 9.65758C114.603 9.44924 114.732 9.0207 114.763 8.70526C114.801 8.3233 114.748 7.96083 114.606 7.61917C114.469 7.29069 114.202 6.98785 113.864 6.77672C113.466 6.52883 113.143 6.45015 112.561 6.45967C112.135 6.46656 111.633 6.52912 111.445 6.59857ZM117.413 8.49824V10.5494H117.828H118.243V9.67033V8.79126H119.19H120.138V9.67033V10.5494H120.615H121.092L121.059 8.53486L121.026 6.52033H120.612H120.197L120.161 7.28952L120.126 8.0587H119.184H118.243V7.25289V6.44707H117.828H117.413V8.49824ZM122.112 6.5448C122.069 6.59842 122.033 7.52144 122.033 8.59596V10.5494H123.81C125.508 10.5494 125.587 10.5364 125.587 10.2564C125.587 9.98108 125.508 9.96335 124.284 9.96335H122.981V9.37731V8.79126H124.106C125.228 8.79126 125.232 8.78994 125.232 8.42498C125.232 8.06002 125.228 8.0587 124.106 8.0587H122.981V7.62429V7.18989L124.195 7.14813C125.352 7.10828 125.411 7.09085 125.447 6.77672C125.485 6.44839 125.478 6.44707 123.838 6.44707C122.932 6.44707 122.156 6.49103 122.112 6.5448ZM126.744 7.65169C126.71 8.31876 126.599 9.11183 126.496 9.41393C126.394 9.71619 126.227 9.96335 126.126 9.96335C125.985 9.96335 125.943 10.1317 125.943 10.6959C125.943 11.4122 125.951 11.4285 126.298 11.4285C126.615 11.4285 126.653 11.3801 126.653 10.9844V10.5403L128.105 10.5815L129.556 10.6227L129.593 11.0256C129.625 11.363 129.687 11.4285 129.978 11.4285C130.316 11.4285 130.326 11.4085 130.326 10.6959C130.326 10.1494 130.282 9.96335 130.152 9.96335C130.011 9.96335 129.972 9.63912 129.945 8.24184L129.911 6.52033L128.358 6.4796L126.806 6.43887L126.744 7.65169ZM131.037 8.49824V10.5494H132.523C133.596 10.5494 134.103 10.4898 134.345 10.3351C134.529 10.2171 134.713 10.014 134.754 9.8835C134.794 9.75311 134.827 9.49173 134.827 9.30273C134.827 9.10553 134.694 8.82906 134.514 8.65398C134.215 8.36315 134.21 8.33605 134.404 8.07027C134.525 7.90589 134.592 7.62107 134.57 7.37566C134.541 7.07019 134.421 6.89188 134.117 6.70376C133.796 6.50539 133.401 6.44751 132.369 6.44737L131.037 6.44707V8.49824ZM135.775 8.48901V10.5494L136.219 10.5485C136.631 10.5476 136.729 10.453 137.552 9.26654L138.44 7.98545L138.475 9.26742L138.509 10.5494H138.919H139.329V8.49824V6.44707L138.885 6.44883C138.47 6.45059 138.383 6.53718 137.565 7.77124C137.083 8.49765 136.664 9.06069 136.633 9.02245C136.602 8.98422 136.57 8.40564 136.561 7.73667L136.545 6.52033L136.16 6.47447L135.775 6.42847V8.48901ZM140.04 6.7401C140.04 6.95459 140.119 7.03312 140.334 7.03312C140.548 7.03312 140.709 7.19033 140.922 7.60686C141.083 7.92245 141.267 8.2206 141.331 8.26939C141.395 8.31832 141.224 8.64504 140.951 8.9955C140.678 9.34595 140.358 9.83896 140.24 10.0911L140.026 10.5494H140.544C141.041 10.5494 141.081 10.5156 141.529 9.70871C141.786 9.24632 142.089 8.84591 142.203 8.81895C142.38 8.77661 142.409 8.89265 142.409 9.65963V10.5494H142.824H143.238V9.65963C143.238 8.89265 143.267 8.77661 143.445 8.81895C143.558 8.84591 143.861 9.24632 144.118 9.70871C144.564 10.511 144.608 10.5494 145.092 10.5494H145.6L145.338 10.0013C145.194 9.69992 144.887 9.21863 144.655 8.93191L144.233 8.41048L144.604 7.7585C144.858 7.31003 145.073 7.09187 145.291 7.06008C145.512 7.0277 145.608 6.92822 145.608 6.73043C145.608 6.51462 145.525 6.44707 145.26 6.44707C145.069 6.44707 144.782 6.50802 144.624 6.5826C144.465 6.65717 144.169 7.05275 143.966 7.46167C143.762 7.87058 143.515 8.20521 143.417 8.20521C143.277 8.20521 143.238 8.01226 143.238 7.32614V6.44707H142.824H142.409V7.32614C142.409 8.01226 142.37 8.20521 142.23 8.20521C142.132 8.20521 141.885 7.87058 141.682 7.46167C141.478 7.05275 141.182 6.65717 141.023 6.5826C140.865 6.50802 140.579 6.44707 140.387 6.44707C140.119 6.44707 140.04 6.51359 140.04 6.7401ZM146.309 6.54773C146.304 6.61322 146.298 7.52393 146.296 8.57149L146.292 10.4761L146.75 10.5194C147.192 10.5613 147.233 10.5235 148.036 9.31929C148.492 8.63552 148.919 8.07203 148.984 8.0672C149.054 8.06192 149.102 8.55288 149.102 9.26713V10.4761L149.487 10.522L149.872 10.568V8.50747V6.44707H149.462C149.191 6.44707 148.966 6.55901 148.797 6.77672C148.657 6.95811 148.242 7.5632 147.875 8.12155L147.207 9.13673L147.148 7.82853L147.088 6.52033L146.703 6.47447C146.492 6.44912 146.314 6.48209 146.309 6.54773ZM150.938 8.49091V10.5494H151.349H151.759L151.793 9.05644L151.827 7.56349L152.242 9.01982L152.656 10.4761H153.123H153.59L153.953 9.20383C154.152 8.5041 154.355 7.88333 154.403 7.82428C154.452 7.76509 154.492 8.35421 154.492 9.13307V10.5494H154.907H155.321V8.49091V6.43242L154.643 6.47638L153.965 6.52033L153.598 7.73872C153.396 8.40872 153.182 8.95315 153.121 8.94847C153.061 8.94378 152.85 8.39553 152.653 7.73008L152.294 6.52033L151.616 6.47638L150.938 6.43242V8.49091ZM157.152 6.65322C156.953 6.76017 156.647 7.05935 156.471 7.31794C156.223 7.68231 156.151 7.94222 156.151 8.47289C156.151 8.884 156.241 9.33775 156.374 9.60879C156.497 9.85698 156.803 10.1839 157.055 10.3351C157.383 10.532 157.769 10.609 158.413 10.606C159.136 10.6024 159.397 10.5368 159.745 10.2704C159.984 10.0883 160.259 9.79823 160.356 9.62564C160.461 9.44148 160.534 8.98729 160.534 8.5249C160.534 7.97416 160.463 7.61477 160.298 7.32878C160.169 7.10389 159.848 6.8135 159.585 6.68354C159.305 6.5448 158.778 6.44942 158.31 6.45279C157.872 6.45601 157.351 6.54612 157.152 6.65322ZM162.246 6.65322C162.047 6.76017 161.741 7.05935 161.564 7.31794C161.317 7.68231 161.245 7.94222 161.245 8.47289C161.245 8.89323 161.335 9.33863 161.477 9.62652C161.604 9.88453 161.857 10.19 162.039 10.3052C162.221 10.4205 162.583 10.5576 162.844 10.6099C163.105 10.6622 163.575 10.6446 163.889 10.5708C164.249 10.4863 164.59 10.2839 164.809 10.0239C165.001 9.79677 165.14 9.5455 165.119 9.46551C165.097 9.38551 164.936 9.27255 164.76 9.21453C164.5 9.12853 164.375 9.19109 164.081 9.55444C163.757 9.95603 163.667 9.99236 163.169 9.92291C162.794 9.87061 162.548 9.74197 162.404 9.52206C162.266 9.3105 162.192 8.95213 162.192 8.48769C162.192 7.94662 162.254 7.70619 162.45 7.47998C162.592 7.31662 162.81 7.143 162.934 7.09407C163.059 7.04528 163.335 7.04587 163.549 7.09539C163.762 7.14491 164.03 7.31281 164.144 7.46855C164.299 7.68085 164.444 7.72993 164.723 7.66444C164.927 7.61638 165.112 7.55924 165.134 7.53741C165.155 7.51558 165.117 7.36878 165.049 7.21128C164.981 7.05378 164.742 6.81731 164.518 6.68589C164.27 6.54026 163.818 6.44927 163.359 6.45279C162.945 6.45601 162.444 6.54612 162.246 6.65322ZM165.628 6.81335C165.628 7.15971 165.663 7.17963 166.279 7.17963H166.931V8.86451V10.5494H167.405H167.879V8.86451V7.17963H168.53C169.146 7.17963 169.182 7.15971 169.182 6.81335V6.44707H167.405H165.628V6.81335ZM169.892 8.49824V10.5494H170.359C170.798 10.5494 170.876 10.4766 171.683 9.30405C172.155 8.61911 172.584 8.0587 172.638 8.0587C172.692 8.0587 172.736 8.61911 172.736 9.30405V10.5494H173.153H173.571L173.538 8.53486L173.506 6.52033L173.075 6.47579C172.663 6.4333 172.602 6.49191 171.712 7.79L170.781 9.14875L170.747 7.79791L170.713 6.44707H170.303H169.892V8.49824ZM108.637 7.40145C108.774 7.56774 108.777 7.64539 108.652 7.83161C108.541 7.99643 108.276 8.0587 107.685 8.0587H106.87V7.64363C106.87 7.41522 106.91 7.17831 106.959 7.11693C107.008 7.05554 107.368 7.04865 107.759 7.10183C108.149 7.15487 108.545 7.28966 108.637 7.40145ZM113.123 7.19062C113.324 7.27721 113.572 7.50562 113.674 7.69828C113.776 7.8908 113.859 8.21122 113.859 8.41033C113.859 8.60929 113.808 8.93821 113.746 9.14098C113.684 9.34375 113.473 9.61187 113.278 9.73655C113.083 9.86123 112.758 9.96335 112.556 9.96335C112.354 9.96335 112.033 9.86372 111.843 9.74212C111.653 9.62037 111.442 9.39401 111.375 9.23885C111.308 9.08384 111.253 8.75053 111.253 8.49824C111.253 8.24594 111.311 7.90648 111.381 7.74414C111.451 7.58166 111.678 7.35779 111.885 7.24673C112.091 7.13553 112.372 7.04206 112.509 7.03883C112.646 7.03576 112.922 7.10403 113.123 7.19062ZM133.699 7.33786C133.775 7.4309 133.77 7.56877 133.686 7.73315C133.585 7.93197 133.385 7.98545 132.743 7.98545C132.051 7.98545 131.922 7.94545 131.887 7.72055C131.864 7.57477 131.878 7.35149 131.917 7.22446C131.978 7.03107 132.12 7.00982 132.786 7.09407C133.225 7.1496 133.636 7.25919 133.699 7.33786ZM159.375 7.60701C159.556 7.85798 159.705 8.23041 159.705 8.4345C159.705 8.63874 159.627 8.9911 159.532 9.21746C159.438 9.44382 159.197 9.71282 158.997 9.81508C158.785 9.92365 158.425 9.96657 158.133 9.91808C157.795 9.86196 157.545 9.71047 157.365 9.45144C157.198 9.21116 157.098 8.8758 157.098 8.55362C157.098 8.27085 157.153 7.91322 157.22 7.75879C157.287 7.60452 157.487 7.37698 157.664 7.25318C157.871 7.10916 158.177 7.05026 158.516 7.08953C158.923 7.1367 159.121 7.25597 159.375 7.60701ZM129.023 8.57149V9.96335H128.213C127.768 9.96335 127.37 9.92174 127.329 9.8709C127.288 9.81992 127.305 9.66139 127.366 9.51854C127.428 9.37569 127.514 8.79097 127.557 8.21913L127.635 7.17963H128.329H129.023V8.57149ZM78.2613 8.20521L78.5614 8.93777H77.9671C77.6403 8.93777 77.3727 8.88825 77.3724 8.82789C77.3723 8.76752 77.4921 8.43787 77.6388 8.09533C77.7855 7.75278 77.9179 7.47265 77.9332 7.47265C77.9486 7.47265 78.0961 7.80231 78.2613 8.20521ZM108.655 8.9429C108.781 9.02641 108.884 9.22581 108.884 9.3861C108.884 9.56748 108.764 9.73406 108.566 9.82695C108.392 9.90914 107.952 9.95691 107.589 9.93317L106.929 9.8901L106.893 9.34068L106.856 8.79126H107.641C108.072 8.79126 108.529 8.85953 108.655 8.9429ZM133.738 8.96707C133.816 9.06377 133.88 9.26317 133.88 9.41027C133.88 9.56543 133.746 9.74021 133.562 9.82695C133.387 9.90914 132.947 9.95691 132.585 9.93317C131.997 9.89479 131.921 9.85303 131.886 9.54975C131.865 9.36265 131.876 9.11534 131.912 9.00033C131.959 8.84752 132.194 8.79126 132.786 8.79126C133.258 8.79126 133.655 8.86466 133.738 8.96707Z" fill="#3B487D"/>
<path fill-rule="evenodd" clip-rule="evenodd" d="M44.8094 10.6753C43.9118 10.6964 43.1775 10.7551 43.1775 10.8057C43.1775 10.8564 43.5516 11.2644 44.0088 11.7126L44.8402 12.5273L46.4413 12.6694C47.3219 12.7475 48.6243 12.8951 49.3356 12.9973C50.0468 13.0995 51.166 13.3143 51.8227 13.4748C52.4794 13.6351 53.3801 13.9398 53.8242 14.1518C54.3472 14.4013 54.6916 14.6543 54.8016 14.8696C54.9055 15.0728 54.934 15.3008 54.8753 15.4566C54.8224 15.5966 54.4977 15.9644 54.1534 16.2739C53.8093 16.5833 53.0695 17.0589 52.5093 17.3309C51.9492 17.6028 50.8813 18.0238 50.1361 18.2664C49.391 18.5092 48.144 18.8708 47.365 19.07C46.586 19.2694 45.2558 19.5728 44.4091 19.7443C43.5624 19.9159 42.0379 20.196 41.0213 20.3667C40.0047 20.5375 38.2312 20.8141 37.0801 20.9816C35.929 21.149 33.5185 21.4524 31.7234 21.6558C29.9283 21.8593 26.8801 22.1658 24.9495 22.337C23.019 22.5082 20.3032 22.7319 18.9146 22.834C17.5259 22.936 15.9464 23.0475 15.4045 23.0818C14.8626 23.116 13.9481 23.1739 13.3723 23.2105C12.7965 23.2469 11.3278 23.3305 10.1085 23.3958C8.88921 23.4612 6.1039 23.5515 3.91889 23.5965C1.734 23.6414 -0.0293127 23.7025 0.000369309 23.7322C0.0300513 23.762 1.3299 23.8603 2.88888 23.9507C4.44787 24.0412 8.09555 24.1819 10.9949 24.2633C14.2216 24.354 18.4882 24.3813 21.9936 24.3335C25.1435 24.2905 28.9123 24.2007 30.3686 24.1338C31.825 24.0671 33.4323 23.9833 33.9403 23.9479C34.4484 23.9124 35.6954 23.8274 36.7115 23.7591C37.7276 23.6906 39.224 23.5781 40.0369 23.5089C40.8497 23.4398 42.7341 23.2453 44.2244 23.0767C45.7146 22.9083 47.9038 22.631 49.0893 22.4608C50.2747 22.2906 52.0205 22.0119 52.9688 21.8415C53.9172 21.6712 55.3028 21.3946 56.0479 21.2267C56.793 21.059 58.0551 20.7545 58.8525 20.5502C59.6499 20.3459 60.9523 19.9557 61.7468 19.6831C62.5412 19.4106 63.7455 18.9153 64.4229 18.5826C65.1003 18.2497 65.9702 17.725 66.3559 17.4165C66.8366 17.032 67.1605 16.6441 67.3859 16.1837C67.6454 15.6532 67.6969 15.4147 67.6308 15.049C67.5847 14.7945 67.4175 14.3874 67.2591 14.1445C67.1007 13.9018 66.6968 13.527 66.3616 13.3118C66.0262 13.0967 65.408 12.7809 64.9877 12.6102C64.5674 12.4394 63.5725 12.1365 62.7767 11.9372C61.981 11.738 60.7289 11.4905 59.9941 11.3874C59.2593 11.2842 57.8216 11.1157 56.7988 11.0129C55.7762 10.9101 53.249 10.7724 51.183 10.7068C49.117 10.6413 47.2049 10.5988 46.9339 10.6124C46.663 10.6261 45.707 10.6544 44.8094 10.6753ZM34.0019 11.3931C33.0536 11.4817 31.4754 11.6508 30.4948 11.769C28.7853 11.9749 28.6976 11.9993 28.3615 12.3612C28.1687 12.5688 27.8948 12.8988 27.7529 13.0945L27.4948 13.4502L28.0388 13.3718C28.338 13.3287 29.6635 13.1849 30.9845 13.0522C32.3054 12.9195 33.9681 12.7784 34.6793 12.7386C35.3906 12.699 36.2089 12.6377 36.4977 12.6024C36.8923 12.5543 36.9994 12.497 36.9287 12.3721C36.877 12.2809 36.6245 11.9795 36.3679 11.7026C36.1111 11.4257 35.8617 11.2065 35.8136 11.2156C35.7655 11.2247 34.9503 11.3046 34.0019 11.3931ZM18.9146 13.7844C18.542 13.9084 16.5829 14.5453 14.5611 15.1994C12.5391 15.8535 10.9066 16.4106 10.9333 16.4372C10.9599 16.4639 11.8106 16.2901 12.8236 16.0511C13.8366 15.8122 15.6056 15.4237 16.7547 15.188C17.9038 14.9522 18.846 14.7471 18.8484 14.732C18.8509 14.717 19.1001 14.4425 19.4021 14.1219C19.7064 13.7991 19.8711 13.5435 19.7715 13.5489C19.6728 13.5542 19.2872 13.6603 18.9146 13.7844ZM10.5396 16.5567C10.5396 16.5905 10.5673 16.6182 10.6012 16.6182C10.635 16.6182 10.6627 16.5905 10.6627 16.5567C10.6627 16.5228 10.635 16.4951 10.6012 16.4951C10.5673 16.4951 10.5396 16.5228 10.5396 16.5567Z" fill="#3B487D"/>
</svg>
