<svg width="259" height="35" viewBox="0 0 259 35" fill="none" xmlns="http://www.w3.org/2000/svg">
<path fill-rule="evenodd" clip-rule="evenodd" d="M110.396 13.4742C110.038 14.0422 108.037 17.7496 108.037 17.845C108.037 17.8889 108.343 17.9248 108.718 17.9248C109.291 17.9248 109.435 17.8494 109.626 17.4505C109.843 16.9973 109.916 16.974 111.268 16.9262L112.683 16.8764L112.954 17.4005C113.189 17.8546 113.32 17.9248 113.93 17.9248C114.765 17.9248 114.82 18.1335 113.25 15.3378L112.04 13.1819L111.344 13.1293C110.772 13.0861 110.602 13.1479 110.396 13.4742ZM115.545 13.306C115.5 13.4275 115.487 14.497 115.517 15.6827L115.572 17.8386L116.207 17.892L116.843 17.9457V15.9583V13.9709L118.44 13.9214C119.905 13.8759 120.037 13.8433 120.037 13.5268C120.037 13.2024 119.906 13.1789 117.832 13.1336C116.163 13.097 115.607 13.1389 115.545 13.306ZM120.814 15.5102V17.9248H123.404C125.879 17.9248 125.994 17.9095 125.994 17.5799C125.994 17.2558 125.879 17.2349 124.095 17.2349H122.195V16.545V15.8552H123.807C124.693 15.8552 125.462 15.8119 125.515 15.7589C125.568 15.706 125.572 15.5119 125.523 15.3277C125.444 15.0261 125.274 14.9928 123.815 14.9928H122.195V14.4814V13.9701L123.965 13.9209C125.652 13.874 125.738 13.8535 125.79 13.4837C125.845 13.0965 125.84 13.0956 123.33 13.0956H120.814V15.5102ZM127.203 15.5102V17.9248H127.807H128.411V16.89V15.8552H129.793H131.174V16.89V17.9248H131.869H132.565L132.517 15.5533L132.469 13.1819H131.864H131.26L131.208 14.0873L131.156 14.9928H129.784H128.411V14.0442V13.0956H127.807H127.203V15.5102ZM133.484 13.3461C133.312 13.7952 133.595 13.958 134.551 13.958H135.49V15.9414V17.9248H136.181H136.872V15.9414V13.958H137.821C138.719 13.958 138.771 13.9345 138.771 13.5268V13.0956H136.176C134.066 13.0956 133.562 13.1425 133.484 13.3461ZM140.922 13.4199C140.538 13.5941 140.077 13.9609 139.897 14.2353C139.488 14.859 139.481 16.1986 139.883 16.8119C140.796 18.2046 143.425 18.4622 144.814 17.2953C145.438 16.7706 145.414 16.5285 144.721 16.3433C144.294 16.2293 144.147 16.2863 143.749 16.722C142.883 17.6692 141.199 17.2534 140.929 16.0256C140.634 14.6832 141.502 13.6895 142.827 13.8517C143.211 13.8988 143.633 14.0804 143.78 14.2621C143.979 14.5075 144.203 14.5694 144.688 14.5128C145.042 14.4714 145.332 14.3821 145.332 14.3141C145.332 14.0941 144.569 13.4685 144.069 13.2797C143.312 12.993 141.705 13.0646 140.922 13.4199ZM145.881 13.4837C145.93 13.8274 146.05 13.8776 146.929 13.9235L147.922 13.9752V15.95V17.9248H148.527H149.131V15.95V13.9752L150.124 13.9235C151.003 13.8776 151.123 13.8274 151.172 13.4837L151.227 13.0956H148.527H145.826L145.881 13.4837ZM152.239 15.5102V17.9248H154.47C156.619 17.9248 156.721 17.9083 157.233 17.4783C157.92 16.901 157.951 16.1922 157.31 15.7258C156.864 15.4014 156.861 15.3862 157.156 14.9364C157.352 14.6372 157.418 14.3238 157.345 14.034C157.17 13.3376 156.345 13.0956 154.144 13.0956H152.239V15.5102ZM160.116 13.274C158.523 13.7503 157.928 16.0012 159.104 17.0975C159.892 17.831 160.372 17.996 161.736 18.0014C162.723 18.0054 163.17 17.925 163.617 17.6639C165.425 16.6066 165.438 14.3885 163.641 13.4837C162.823 13.0715 161.13 12.9708 160.116 13.274ZM168.815 15.5102V17.9248H169.419H170.023V16.89V15.8552H171.405H172.786V16.89V17.9248H173.481H174.177L174.129 15.5533L174.081 13.1819H173.477H172.872L172.82 14.0873L172.768 14.9928H171.396H170.023V14.0442V13.0956H169.419H168.815V15.5102ZM175.664 13.2107C175.6 13.2738 175.549 14.3604 175.549 15.6253V17.9248H178.139C180.613 17.9248 180.728 17.9095 180.728 17.5799C180.728 17.2558 180.613 17.2349 178.829 17.2349H176.93V16.545V15.8552H178.57C180.205 15.8552 180.21 15.8536 180.21 15.424C180.21 14.9944 180.205 14.9928 178.57 14.9928H176.93V14.4814V13.9701L178.7 13.9209C180.386 13.874 180.472 13.8535 180.525 13.4837C180.58 13.0972 180.57 13.0956 178.179 13.0956C176.859 13.0956 175.727 13.1474 175.664 13.2107ZM182.415 14.5137C182.316 16.0763 181.933 17.2349 181.514 17.2349C181.308 17.2349 181.246 17.4331 181.246 18.0973C181.246 18.9405 181.258 18.9596 181.764 18.9596C182.226 18.9596 182.282 18.9027 182.282 18.4369V17.9141L184.398 17.9626L186.513 18.011L186.567 18.4853C186.613 18.8825 186.704 18.9596 187.128 18.9596C187.621 18.9596 187.635 18.9362 187.635 18.0973C187.635 17.454 187.571 17.2349 187.382 17.2349C187.176 17.2349 187.119 16.8532 187.079 15.2084L187.031 13.1819L184.768 13.1339L182.504 13.086L182.415 14.5137ZM188.671 15.5102V17.9248H190.838C193.61 17.9248 194.196 17.6689 194.196 16.4573C194.196 16.2251 194.002 15.8997 193.739 15.6936C193.304 15.3512 193.296 15.3193 193.58 15.0064C193.755 14.8129 193.854 14.4776 193.821 14.1888C193.727 13.3726 192.916 13.0962 190.613 13.096L188.671 13.0956V15.5102ZM195.578 15.4994V17.9248H196.226C196.824 17.9248 196.967 17.8168 198.049 16.545C198.695 15.7862 199.297 15.1653 199.386 15.1653C199.476 15.1653 199.549 15.7862 199.549 16.545V17.9248H200.153H200.758V15.5102V13.0956L200.11 13.097C199.507 13.0984 199.38 13.1996 198.265 14.563C197.606 15.3686 197.007 16.0276 196.934 16.0276C196.86 16.0276 196.778 15.3872 196.75 14.6048L196.7 13.1819L196.139 13.1279L195.578 13.0737V15.4994ZM201.794 13.4406C201.794 13.6908 201.909 13.7855 202.213 13.7855C202.518 13.7855 202.777 13.9996 203.163 14.5703C203.713 15.3855 203.81 15.6827 203.526 15.6827C203.317 15.6827 201.966 17.4522 201.966 17.7249C201.966 17.8415 202.241 17.9248 202.625 17.9248C203.232 17.9248 203.336 17.8479 203.964 16.9352C204.339 16.3909 204.781 15.9195 204.946 15.8878C205.205 15.8379 205.247 15.9745 205.247 16.8774V17.9248H205.851H206.455V16.8774C206.455 15.9745 206.497 15.8379 206.756 15.8878C206.921 15.9195 207.363 16.3909 207.738 16.9352C208.366 17.8479 208.47 17.9248 209.077 17.9248C209.44 17.9248 209.736 17.8605 209.736 17.7818C209.736 17.5214 208.67 16.0259 208.299 15.7665C207.938 15.5144 207.938 15.505 208.256 14.9502C208.761 14.071 209.067 13.7855 209.504 13.7855C209.794 13.7855 209.909 13.6874 209.909 13.4406C209.909 13.1739 209.794 13.0956 209.402 13.0956C208.531 13.0956 208.073 13.3852 207.516 14.29C206.769 15.5023 206.455 15.4552 206.455 14.1305V13.0956H205.851H205.247V14.1305C205.247 15.4552 204.933 15.5023 204.186 14.29C203.629 13.3852 203.172 13.0956 202.3 13.0956C201.909 13.0956 201.794 13.1739 201.794 13.4406ZM210.93 13.2141C210.922 13.2912 210.912 14.3633 210.909 15.5965L210.903 17.8386L211.571 17.8895C212.219 17.9388 212.277 17.8955 213.448 16.4767C214.113 15.6718 214.712 15.0087 214.78 15.003C214.847 14.9975 214.925 15.6332 214.952 16.4157L215.002 17.8386L215.563 17.8926L216.125 17.9467V15.5211V13.0956H215.527C214.872 13.0956 214.597 13.329 213.238 15.0359C212.803 15.5813 212.385 16.0276 212.308 16.0276C212.23 16.0276 212.145 15.3872 212.117 14.6048L212.067 13.1819L211.506 13.1279C211.197 13.098 210.938 13.1369 210.93 13.2141ZM217.679 15.5016V17.9248H218.283H218.887V16.3381C218.887 15.334 218.948 14.8115 219.052 14.9155C219.142 15.0057 219.433 15.7005 219.699 16.4592L220.182 17.8386H220.867H221.551L222.067 16.3295C222.351 15.4995 222.645 14.8203 222.721 14.8203C222.797 14.8203 222.859 15.5188 222.859 16.3726V17.9248H223.463H224.067V15.5016V13.0784L223.076 13.1301L222.084 13.1819L221.565 14.6041C221.279 15.3862 220.964 16.0266 220.865 16.0269C220.765 16.0273 220.454 15.3872 220.173 14.6048L219.662 13.1819L218.67 13.1301L217.679 13.0784V15.5016ZM226.735 13.3383C225.839 13.7283 225.276 14.5549 225.277 15.4804C225.278 17.1739 226.362 17.9998 228.573 17.9914C229.627 17.9872 230.008 17.91 230.515 17.5964C231.424 17.0357 231.664 16.6051 231.664 15.5416C231.664 14.3997 231.259 13.7646 230.282 13.374C229.438 13.0366 227.474 13.0168 226.735 13.3383ZM234.159 13.3383C233.87 13.4642 233.423 13.8164 233.167 14.1208C232.302 15.1468 232.673 17.0314 233.858 17.6373C235.116 18.2808 237.043 18.1226 237.896 17.3062C238.486 16.7418 238.469 16.5257 237.825 16.3534C237.445 16.2522 237.263 16.3258 236.835 16.7536C236.362 17.2263 236.23 17.2691 235.505 17.1873C234.457 17.0694 234.082 16.624 234.082 15.4978C234.082 14.6249 234.436 14.088 235.163 13.8573C235.67 13.6969 236.59 13.9269 236.926 14.2981C237.153 14.548 237.364 14.6058 237.77 14.5287C238.46 14.3978 238.461 14.3968 238.246 13.9952C237.808 13.1784 235.412 12.7931 234.159 13.3383ZM239.089 13.5268C239.089 13.9345 239.141 13.958 240.039 13.958H240.988V15.9414V17.9248H241.679H242.37V15.9414V13.958H243.319C244.217 13.958 244.269 13.9345 244.269 13.5268V13.0956H241.679H239.089V13.5268ZM245.305 15.5102V17.9248H245.985C246.625 17.9248 246.738 17.8391 247.915 16.4588C248.602 15.6525 249.229 14.9928 249.307 14.9928C249.385 14.9928 249.449 15.6525 249.449 16.4588V17.9248H250.058H250.667L250.619 15.5533L250.571 13.1819L249.94 13.1293C249.339 13.0793 249.25 13.1469 248.065 14.5521C247.381 15.3636 246.752 16.0276 246.668 16.0276C246.583 16.0276 246.514 15.3679 246.514 14.5616V13.0956H245.909H245.305V15.5102ZM156.023 14.2191C156.223 14.4149 156.227 14.5063 156.045 14.7255C155.883 14.9195 155.497 14.9928 154.635 14.9928H153.448V14.5042C153.448 14.2353 153.506 13.9564 153.577 13.8842C153.778 13.6807 155.748 13.9506 156.023 14.2191ZM162.562 13.9709C163.486 14.2928 163.86 15.2396 163.469 16.2668C163.142 17.1282 161.704 17.495 160.696 16.9745C160.088 16.6603 159.836 16.2318 159.836 15.5102C159.836 14.7612 160.114 14.3159 160.756 14.037C161.427 13.7455 161.868 13.7295 162.562 13.9709ZM192.552 14.1443C192.662 14.2538 192.655 14.4161 192.533 14.6096C192.385 14.8436 192.094 14.9066 191.158 14.9066C190.15 14.9066 189.962 14.8595 189.911 14.5947C189.768 13.8548 189.988 13.7314 191.221 13.8573C191.86 13.9226 192.459 14.0516 192.552 14.1443ZM229.975 14.4611C231.133 15.7556 230.019 17.43 228.165 17.1816C226.931 17.0162 226.254 15.7232 226.834 14.6398C227.368 13.6427 229.152 13.5413 229.975 14.4611ZM185.736 15.5965V17.2349H184.505H183.275L183.391 16.6744C183.454 16.3662 183.553 15.6289 183.61 15.0359L183.714 13.958H184.725H185.736V15.5965ZM111.717 15.0849C112.133 15.9566 112.097 16.0276 111.231 16.0276C110.804 16.0276 110.454 15.9545 110.454 15.865C110.454 15.6273 111.157 14.4754 111.303 14.4754C111.37 14.4754 111.557 14.7496 111.717 15.0849ZM62.6693 14.9492C61.4109 14.9787 60.3815 15.0609 60.3815 15.1318C60.3815 15.2027 60.9061 15.7746 61.547 16.4028L62.7125 17.5447L64.0938 17.658C68.7528 18.04 72.4557 18.6911 74.5631 19.4989C77.0728 20.4608 77.4046 21.2909 75.8477 22.7124C71.4926 26.688 54.4793 29.8781 26.453 31.9739C17.8785 32.6152 7.73515 33.1008 2.89866 33.1017C1.24471 33.102 -0.0587357 33.1519 0.00204214 33.2126C0.183858 33.3944 7.43834 33.7574 15.2878 33.9778C22.9983 34.1943 35.6244 34.1077 42.5108 33.7911C67.9352 32.6219 87.0336 29.0567 92.8761 24.3892C94.1198 23.3954 94.8413 22.0569 94.6633 21.0739C94.133 18.1473 89.5208 16.4307 79.4777 15.4219C77.0716 15.1803 67.2387 14.7815 65.6478 14.861C65.2679 14.8802 63.9277 14.9199 62.6693 14.9492ZM47.518 15.9543C46.1885 16.0783 43.976 16.3151 42.6012 16.4807C40.2062 16.7689 40.0812 16.8036 39.6072 17.31C38.9945 17.965 38.5555 18.6019 38.6512 18.6976C38.6909 18.7373 40.0565 18.6225 41.6859 18.4426C43.3154 18.2627 45.9546 18.0278 47.551 17.9205C51.1353 17.6796 51.5762 17.6178 51.5737 17.3565C51.5717 17.1225 50.2325 15.6699 50.0519 15.7058C49.9878 15.7186 48.8475 15.8303 47.518 15.9543ZM156.049 16.0337C156.54 16.2965 156.47 16.8655 155.92 17.0744C155.665 17.1711 155.024 17.2273 154.495 17.1994L153.534 17.1487L153.48 16.5019L153.427 15.8552H154.571C155.2 15.8552 155.865 15.9355 156.049 16.0337ZM192.608 16.0621C193.284 16.7375 192.48 17.2815 190.927 17.1994C190.071 17.1542 189.96 17.1051 189.909 16.748C189.799 15.968 189.964 15.8552 191.221 15.8552C191.908 15.8552 192.487 15.9416 192.608 16.0621ZM26.3667 19.3034C25.8444 19.4774 23.2143 20.3304 20.5223 21.1988C17.8303 22.0672 15.6689 22.8188 15.7191 22.8692C15.7696 22.9194 16.8454 22.7145 18.1102 22.4137C19.375 22.1129 21.7116 21.6003 23.3029 21.2749L26.1962 20.6828L26.8425 19.9729C27.8737 18.8403 27.8511 18.8085 26.3667 19.3034Z" fill="#3A477B"/>
<path fill-rule="evenodd" clip-rule="evenodd" d="M44.9837 0.483415C44.7632 0.755918 42.8345 2.94267 40.6978 5.34294C38.5611 7.74322 36.1605 10.4501 35.3632 11.3582C34.5658 12.2664 33.3544 13.6305 32.6708 14.3894C31.9874 15.1482 29.1909 18.2915 26.4564 21.3744C23.722 24.4573 20.6278 27.9431 19.5808 29.1206L17.677 31.2615L20.0793 31.1487C21.4007 31.0868 23.3941 30.9412 24.5091 30.8253L26.5367 30.6147L27.3527 29.6596C28.4352 28.3926 36.5069 19.0592 38.7035 16.5344C39.658 15.4375 41.5602 13.2433 42.9309 11.6583C44.3015 10.0733 45.474 8.79753 45.5365 8.8234C45.599 8.8491 46.962 10.3837 48.5654 12.2335C50.1686 14.0832 51.5601 15.6815 51.6575 15.7853C51.7549 15.8892 52.767 17.0487 53.9066 18.3622C59.4918 24.8 61.1483 26.6389 61.4037 26.6846C61.8122 26.7577 67.416 25.4097 67.6816 25.1745C67.7555 25.1089 64.6087 21.4453 60.6887 17.033C56.7685 12.6207 51.7742 6.98607 49.59 4.51146C47.4058 2.03686 45.5661 0.0067058 45.5016 0.000151919C45.4374 -0.00657443 45.2043 0.210911 44.9837 0.483415ZM104.717 29.0062C100.829 34.2118 100.44 34.748 100.44 34.8968C100.44 34.9534 101.321 34.9996 102.397 34.9996H104.355L105.35 33.6198L106.345 32.2401H110.894H115.444L116.443 33.6198L117.442 34.9996H119.387C120.674 34.9996 121.332 34.9361 121.332 34.8118C121.332 34.7085 120.34 33.2921 119.127 31.6642C117.915 30.0362 116.188 27.7148 115.291 26.5054L113.659 24.3064H110.944H108.228L104.717 29.0062ZM124.613 29.653V34.9996H126.334H128.056L128.104 32.7144L128.152 30.4291L129.299 30.3786L130.447 30.3279L132.494 31.6849C133.62 32.4312 135.213 33.4822 136.035 34.0207L137.529 34.9996H140C142.843 34.9996 142.825 35.0634 140.411 33.5862C135.013 30.282 133.591 29.3907 133.594 29.3112C133.596 29.262 134.12 28.9333 134.76 28.5806C137.948 26.8221 141.81 24.6164 141.956 24.4706C142.06 24.3666 141.204 24.3064 139.623 24.3064H137.126L133.848 26.3123C130.466 28.3816 129.702 28.6768 128.507 28.3772C128.066 28.2667 128.066 28.266 128.066 26.2866V24.3064H126.339H124.613V29.653ZM147.933 24.4953C145.596 24.9001 144.989 25.9816 144.989 29.7392C144.989 32.9946 145.403 33.9755 147.045 34.6084C147.75 34.8802 148.529 34.9134 154.224 34.9134C160.365 34.9134 160.644 34.8992 161.402 34.5486C162.283 34.1419 162.665 33.5326 162.857 32.2333L162.972 31.4507L161.965 31.4841C161.411 31.5026 160.604 31.525 160.17 31.534C159.45 31.5488 159.358 31.6009 159.102 32.1373C158.862 32.6385 158.693 32.752 157.939 32.9134C156.802 33.1569 151.31 33.1588 150.177 32.916C148.757 32.6117 148.613 32.3011 148.613 29.5357C148.613 27.3372 148.633 27.2027 149.019 26.8171C149.539 26.2978 151.287 26.1319 155.133 26.2364C158.093 26.3169 158.805 26.5101 159.181 27.3329C159.367 27.7422 159.431 27.7558 161.159 27.7558C162.141 27.7558 162.944 27.6975 162.943 27.6265C162.939 27.0768 162.476 26.022 162.038 25.5639C161.017 24.4961 160.54 24.422 154.397 24.3749C151.358 24.3516 148.449 24.4058 147.933 24.4953ZM166.225 29.653V34.9996L169.376 34.9948L172.527 34.9898L173.649 33.9287C181.242 26.7505 181.673 26.363 182.014 26.4116C182.36 26.4609 182.37 26.5729 182.415 30.7309L182.461 34.9996H184.185H185.908V29.653V24.3064H182.871C179.399 24.3064 179.858 24.136 177.619 26.2584C176.031 27.7636 172.142 31.3827 171.019 32.4005C169.679 33.6145 169.678 33.6103 169.678 28.6235V24.3064H167.951H166.225V29.653ZM192.371 24.4708C191.185 24.6543 190.296 25.1024 189.833 25.7505C189.466 26.2641 189.448 26.4502 189.448 29.653C189.448 32.9318 189.458 33.03 189.861 33.566C190.088 33.8684 190.671 34.2952 191.156 34.5146C192.01 34.9008 192.216 34.9151 197.65 34.9689C203.575 35.0277 204.849 34.9209 205.898 34.2778C206.951 33.6329 207.06 33.2083 207.06 29.7392C207.06 26.4639 206.973 26.0351 206.162 25.3023C205.275 24.4999 204.607 24.4161 198.772 24.3745C195.733 24.353 192.852 24.3963 192.371 24.4708ZM210.254 29.653V34.9996H212.067H213.88V30.6878C213.88 26.6886 213.902 26.3761 214.184 26.3761C214.396 26.3761 215.263 27.6689 217.076 30.688L219.664 34.9999L222.319 34.9566L224.973 34.9134L227.53 30.6878C229.393 27.6084 230.183 26.4473 230.444 26.4071C230.797 26.3526 230.801 26.4006 230.801 30.6758V34.9996H232.528H234.254V29.653V24.3064H230.91H227.566L225.215 28.3371C223.922 30.554 222.816 32.4943 222.757 32.6488C222.513 33.2847 222.061 32.8892 221.058 31.159C220.494 30.1884 219.713 28.851 219.32 28.187C218.928 27.523 218.262 26.3792 217.841 25.6451L217.074 24.3107L213.664 24.3085L210.254 24.3064V29.653ZM241.481 29.4833C239.358 32.3304 237.595 34.7364 237.564 34.8299C237.528 34.9347 238.266 34.9996 239.492 34.9996H241.479L242.384 33.7492C242.882 33.0614 243.374 32.4417 243.477 32.372C243.58 32.3023 245.663 32.2442 248.106 32.2427L252.548 32.2401L253.545 33.6109L254.542 34.9815L256.571 34.9906C257.687 34.9955 258.6 34.961 258.6 34.9135C258.6 34.8663 257.489 33.3335 256.131 31.5072C254.773 29.6811 253.018 27.314 252.231 26.2467L250.802 24.3064H248.071H245.34L241.481 29.4833ZM112.51 28.1439C113.274 29.2111 113.902 30.1423 113.904 30.2135C113.906 30.2848 112.548 30.3429 110.886 30.3429C109.224 30.3429 107.864 30.3025 107.864 30.253C107.864 30.0764 110.845 26.2036 110.98 26.2036C111.057 26.2036 111.745 27.0768 112.51 28.1439ZM249.061 27.355C249.512 27.9883 250.133 28.8427 250.442 29.2537C250.75 29.6647 251.003 30.0778 251.003 30.172C251.003 30.2784 249.858 30.3429 247.967 30.3429C246.297 30.3429 244.957 30.2848 244.988 30.2135C245.16 29.8275 247.965 26.2036 248.091 26.2036C248.174 26.2036 248.611 26.7217 249.061 27.355ZM202.727 26.5725C203.513 26.93 203.728 27.7184 203.664 30.0064C203.579 33.0379 203.492 33.0874 198.254 33.0874C194.724 33.0874 193.837 32.9665 193.237 32.4039C192.834 32.0252 192.815 31.9132 192.815 29.8929C192.815 26.2998 192.673 26.3923 198.203 26.383C200.91 26.3785 202.441 26.4425 202.727 26.5725ZM73.1359 31.6304C73.0918 31.6745 71.5442 31.9143 69.6971 32.1633C67.8497 32.4124 66.3082 32.6457 66.2714 32.6819C66.2345 32.718 66.6618 33.2488 67.2211 33.8613L68.2377 34.9749L72.3385 34.9873C74.8775 34.9949 76.4393 34.936 76.4393 34.8325C76.4393 34.5908 73.6276 31.5502 73.4042 31.5502C73.3008 31.5502 73.1801 31.5862 73.1359 31.6304Z" fill="#ED4941"/>
</svg>
