<svg width="30" height="30" viewBox="0 0 30 30" fill="none" xmlns="http://www.w3.org/2000/svg">
<g clip-path="url(#clip0)">
<path d="M29.7361 5.95996L20.6377 14.9997L29.7361 24.0395C29.9005 23.6958 30.0003 23.3157 30.0003 22.9099V7.08959C30.0003 6.68371 29.9005 6.30373 29.7361 5.95996Z" fill="#597AB2"/>
<path d="M27.364 4.45312H2.63744C2.23156 4.45312 1.85158 4.55291 1.50781 4.71738L13.1365 16.2875C14.1647 17.3157 15.8367 17.3157 16.8649 16.2875L28.4936 4.71738C28.1499 4.55291 27.7699 4.45312 27.364 4.45312Z" fill="#597AB2"/>
<path d="M0.264258 5.95996C0.0997852 6.30373 0 6.68371 0 7.08959V22.9099C0 23.3158 0.0997852 23.6958 0.264258 24.0395L9.36264 14.9997L0.264258 5.95996Z" fill="#597AB2"/>
<path d="M19.3953 16.2427L18.1078 17.5302C16.3946 19.2434 13.6068 19.2434 11.8936 17.5302L10.6062 16.2427L1.50781 25.2825C1.85158 25.4469 2.23156 25.5467 2.63744 25.5467H27.364C27.7699 25.5467 28.1499 25.4469 28.4936 25.2825L19.3953 16.2427Z" fill="#597AB2"/>
</g>
<defs>
<clipPath id="clip0">
<rect width="30" height="30" fill="white"/>
</clipPath>
</defs>
</svg>
