<svg width="17" height="17" viewBox="0 0 17 17" fill="none" xmlns="http://www.w3.org/2000/svg">
<g clip-path="url(#clip0)">
<path d="M11.2689 8.58716L17.0001 12.2103V4.81104L11.2689 8.58716Z" fill="#597AB2"/>
<path d="M0 4.81104V12.2103L5.73112 8.58716L0 4.81104Z" fill="#597AB2"/>
<path d="M15.9375 2.65625H1.06249C0.532298 2.65625 0.111548 3.0515 0.0318604 3.56044L8.49998 9.13963L16.9681 3.56044C16.8884 3.0515 16.4677 2.65625 15.9375 2.65625Z" fill="#597AB2"/>
<path d="M10.2956 9.22909L8.79212 10.2193C8.70287 10.2778 8.60194 10.3065 8.49994 10.3065C8.39794 10.3065 8.297 10.2778 8.20775 10.2193L6.70431 9.22803L0.0339355 13.4472C0.115748 13.9519 0.534373 14.344 1.06244 14.344H15.9374C16.4655 14.344 16.8841 13.9519 16.9659 13.4472L10.2956 9.22909Z" fill="#597AB2"/>
</g>
<defs>
<clipPath id="clip0">
<rect width="17" height="17" fill="white"/>
</clipPath>
</defs>
</svg>
