<svg width="120" height="120" viewBox="0 0 120 120" fill="none" xmlns="http://www.w3.org/2000/svg">
<rect opacity="0.3" x="14" y="28" width="24" height="30" fill="#597AB2"/>
<rect opacity="0.3" x="34" y="61" width="48" height="48" rx="24" fill="#597AB2"/>
<path fill-rule="evenodd" clip-rule="evenodd" d="M13.1223 17.668L13.1202 17.668C12.2339 17.6698 11.5139 18.3895 11.5139 19.2773V63.9047C11.5139 64.3232 11.1746 64.6625 10.7561 64.6625C10.3377 64.6625 9.99828 64.3231 9.99805 63.9044V19.2773C9.99805 18.0362 10.7296 16.959 11.7929 16.4552L12.3648 16.1842V11.7016C12.3648 10.4602 13.0966 9.38272 14.1605 8.87883L14.7324 8.60792V4.12547C14.7324 2.40291 16.1353 1 17.8579 1H93.6201C95.3427 1 96.7455 2.40291 96.7453 4.12537V8.60792L97.3172 8.87883C98.3811 9.38272 99.113 10.4602 99.113 11.7016V16.1838L99.6851 16.4546C100.749 16.9583 101.481 18.0359 101.481 19.2773V40.4672C101.481 40.8857 101.142 41.225 100.723 41.225C100.305 41.225 99.9655 40.8857 99.9655 40.4672V19.2773C99.9655 18.3896 99.2445 17.6686 98.3566 17.668L13.1223 17.668ZM13.8806 16.1523H97.5978V11.7016C97.5978 10.813 96.8766 10.0918 95.988 10.0918H15.4905C14.6019 10.0918 13.8806 10.813 13.8806 11.7016V16.1523ZM16.2483 8.57641H95.2301V4.12547C95.2301 3.23686 94.5089 2.51562 93.6203 2.51562H17.8581C16.9695 2.51562 16.2483 3.23686 16.2483 4.12547V8.57641Z" fill="#1A2D3A"/>
<path fill-rule="evenodd" clip-rule="evenodd" d="M60.8477 53.5607C66.6172 53.5607 72.0361 55.8052 76.1158 59.8849C80.1953 63.9644 82.44 69.3835 82.44 75.153C82.44 80.9225 80.1953 86.3416 76.1158 90.4211C72.0363 94.5006 66.6172 96.7454 60.8477 96.7454C55.0782 96.7454 49.6591 94.5006 45.5796 90.4211C41.5001 86.3416 39.2554 80.9225 39.2554 75.153C39.2554 69.3835 41.5001 63.9644 45.5796 59.8849C49.6591 55.8054 55.0782 53.5607 60.8477 53.5607ZM75.0441 89.3495C78.8346 85.5588 80.9244 80.514 80.9244 75.153C80.9244 69.792 78.8346 64.7473 75.0441 60.9565C71.2533 57.1659 66.2085 55.0761 60.8475 55.0761C55.4865 55.0761 50.4417 57.1659 46.6509 60.9564C42.8604 64.7472 40.7705 69.792 40.7705 75.153C40.7705 80.514 42.8604 85.5588 46.6509 89.3495C50.4417 93.1401 55.4865 95.23 60.8475 95.23C66.2085 95.23 71.2533 93.1401 75.0441 89.3495Z" fill="#1A2D3A"/>
<path fill-rule="evenodd" clip-rule="evenodd" d="M106.216 109.405L114.517 117.706C114.813 118.002 114.813 118.482 114.517 118.778C114.369 118.926 114.177 119 113.981 119C113.786 119 113.594 118.926 113.446 118.778L97.3434 102.676L88.3703 111.649L94.4278 117.707C94.7236 118.002 94.7235 118.482 94.4275 118.778C94.2803 118.925 94.0889 118.999 93.8934 119L93.8739 119H24.929C24.5105 119 24.1712 118.661 24.1712 118.242C24.1712 117.824 24.5105 117.484 24.929 117.484H92.0625L86.7626 112.184C86.4669 111.889 86.4667 111.409 86.7627 111.113L88.2358 109.64L83.2805 104.684L81.8073 106.158C81.6655 106.3 81.4729 106.38 81.2718 106.38C81.0707 106.38 80.8778 106.3 80.736 106.158L75.1602 100.582L74.5075 100.927C70.2521 103.18 65.5508 104.307 60.8476 104.307C53.3754 104.307 45.9079 101.464 40.2222 95.7783C38.0983 93.6542 36.3722 91.2826 35.0424 88.7561L34.7612 88.2219H6.78408L7.03363 117.484H16.7258C17.1443 117.484 17.4837 117.824 17.4837 118.242C17.4837 118.661 17.1443 119 16.7258 119H6.2821C5.86589 119 5.52778 118.665 5.52425 118.249L5.26175 87.4706C5.26003 87.2681 5.33919 87.0738 5.48116 86.9307C5.6238 86.7869 5.81763 86.7062 6.01959 86.7062H9.9985V72.1078C9.9985 71.6893 10.3378 71.35 10.7563 71.35C11.1748 71.35 11.5141 71.6893 11.5141 72.1078V86.7062H34.0265L33.5252 85.3578C29.9276 75.6796 31.6327 64.465 38.6325 56.2508L40.0374 54.6022H18.3318C17.9133 54.6022 17.574 54.2629 17.574 53.8444V24.4866C17.574 24.0681 17.9133 23.7288 18.3318 23.7288H42.0074C42.4259 23.7288 42.7652 24.0681 42.7652 24.4866V52.1858L44.3318 51.1087C55.6874 43.3012 71.3871 44.4418 81.4729 54.5276C89.7914 62.8461 92.0262 74.9842 88.1701 85.3578L87.6688 86.7062H99.9657V48.6703C99.9657 48.2518 100.305 47.9125 100.724 47.9125C101.142 47.9125 101.481 48.2518 101.481 48.6703V86.7062H105.458C105.876 86.7062 106.216 87.0456 106.216 87.4641V109.405ZM41.2496 25.2444H19.0896V53.0866H41.2496V25.2444ZM41.2937 94.7067C52.0762 105.489 69.6184 105.489 80.4011 94.7067C91.1835 83.9242 91.1836 66.3819 80.4011 55.5994C75.0093 50.2076 67.9261 47.5126 60.8474 47.5126C53.7687 47.5126 46.6855 50.2079 41.2937 55.5994C30.5113 66.3819 30.5113 83.9242 41.2937 94.7067ZM77.4943 99.1086L76.5128 99.7913L81.272 104.55L90.2451 95.5772L85.4859 90.8183L84.8032 91.7996C83.83 93.1985 82.72 94.5309 81.4728 95.7783C80.2257 97.0257 78.8932 98.1356 77.4943 99.1086ZM89.3076 98.6581L84.3524 103.613L89.3076 108.568L94.2627 103.613L89.3076 98.6581ZM90.3795 97.5864L95.3345 102.541L96.8076 101.068C97.1035 100.772 97.5834 100.772 97.8794 101.068L104.7 107.889V88.2219H86.9391L86.6563 88.7496L86.6448 88.7708C86.6391 88.7811 86.6299 88.7979 86.6201 88.8167L86.279 89.4679L91.8527 95.0417C91.9946 95.1835 92.0744 95.3761 92.0744 95.5772C92.0744 95.7783 91.9942 95.9713 91.8523 96.1131L90.3795 97.5864Z" fill="#1A2D3A"/>
<path d="M50.0571 23.7288H93.147C93.5655 23.7288 93.9048 24.0681 93.9048 24.4866C93.9048 24.9051 93.5655 25.2444 93.147 25.2444H50.0571C49.6386 25.2444 49.2993 24.9051 49.2993 24.4866C49.2993 24.0681 49.6386 23.7288 50.0571 23.7288Z" fill="#1A2D3A"/>
<path d="M93.147 31.3049C93.5655 31.3049 93.9048 31.6442 93.9048 32.0627C93.9048 32.4812 93.5655 32.8206 93.147 32.8206H50.0571C49.6386 32.8206 49.2993 32.4812 49.2993 32.0627C49.2993 31.6442 49.6386 31.3049 50.0571 31.3049H93.147Z" fill="#1A2D3A"/>
<path d="M49.2998 39.6389C49.2998 39.2204 49.6391 38.8811 50.0576 38.8811H78.942C79.3605 38.8811 79.6998 39.2204 79.6998 39.6389C79.6998 40.0574 79.3605 40.3967 78.942 40.3967H50.0576C49.6391 40.3967 49.2998 40.0574 49.2998 39.6389Z" fill="#1A2D3A"/>
</svg>
