<svg width="70" height="116" viewBox="0 0 70 116" fill="none" xmlns="http://www.w3.org/2000/svg">
<path opacity="0.3" d="M23.4628 80.2177C23.4628 72.9418 24.3433 67.1469 26.1043 62.8333C27.8653 58.5197 31.0766 54.284 35.7381 50.1263C40.4513 45.9167 43.5849 42.5125 45.1387 39.914C46.6926 37.2634 47.4695 34.483 47.4695 31.5726C47.4695 22.7894 43.4295 18.3979 35.3496 18.3979C31.5168 18.3979 28.4351 19.5932 26.1043 21.9839C23.8254 24.3226 22.6341 27.5708 22.5305 31.7285H0C0.103589 21.802 3.28894 14.0323 9.55605 8.41935C15.875 2.80645 24.4728 0 35.3496 0C46.33 0 54.8502 2.67652 60.9101 8.02957C66.97 13.3306 70 20.8405 70 30.5591C70 34.9767 69.0159 39.1604 67.0477 43.1102C65.0795 47.0081 61.6352 51.3477 56.7148 56.129L50.4217 62.1317C46.4854 65.9256 44.2323 70.3692 43.6626 75.4624L43.3518 80.2177H23.4628ZM21.2098 104.151C21.2098 100.668 22.3751 97.81 24.7059 95.5753C27.0884 93.2885 30.1184 92.1452 33.7958 92.1452C37.4732 92.1452 40.4772 93.2885 42.808 95.5753C45.1905 97.81 46.3818 100.668 46.3818 104.151C46.3818 107.581 45.2164 110.413 42.8857 112.648C40.6067 114.883 37.5768 116 33.7958 116C30.0148 116 26.9589 114.883 24.6282 112.648C22.3492 110.413 21.2098 107.581 21.2098 104.151Z" fill="white"/>
</svg>
