<svg width="36" height="60" viewBox="0 0 36 60" fill="none" xmlns="http://www.w3.org/2000/svg">
<path opacity="0.3" d="M12.0666 41.4919C12.0666 37.7285 12.5194 34.7312 13.4251 32.5C14.3307 30.2688 15.9822 28.078 18.3796 25.9274C20.8036 23.75 22.4151 21.9892 23.2142 20.6452C24.0133 19.2742 24.4129 17.836 24.4129 16.3306C24.4129 11.7876 22.3352 9.51613 18.1798 9.51613C16.2087 9.51613 14.6238 10.1344 13.4251 11.371C12.2531 12.5806 11.6404 14.2608 11.5871 16.4113H0C0.0532741 11.2769 1.69145 7.25806 4.91454 4.35484C8.16426 1.45161 12.586 0 18.1798 0C23.8269 0 28.2087 1.38441 31.3252 4.15323C34.4417 6.89516 36 10.7796 36 15.8065C36 18.0914 35.4939 20.2554 34.4817 22.2984C33.4695 24.3145 31.6981 26.5591 29.1676 29.0323L25.9312 32.1371C23.9068 34.0995 22.7481 36.3979 22.4551 39.0323L22.2952 41.4919H12.0666ZM10.9079 53.871C10.9079 52.0699 11.5072 50.5914 12.7059 49.4355C13.9312 48.2527 15.4895 47.6613 17.3807 47.6613C19.2719 47.6613 20.8169 48.2527 22.0155 49.4355C23.2408 50.5914 23.8535 52.0699 23.8535 53.871C23.8535 55.6452 23.2542 57.1102 22.0555 58.2661C20.8835 59.422 19.3252 60 17.3807 60C15.4362 60 13.8646 59.422 12.6659 58.2661C11.4939 57.1102 10.9079 55.6452 10.9079 53.871Z" fill="white"/>
</svg>
