<svg width="61" height="100" viewBox="0 0 61 100" fill="none" xmlns="http://www.w3.org/2000/svg">
<path opacity="0.3" d="M20.2266 69.1532C20.2266 62.8808 20.9856 57.8853 22.5037 54.1667C24.0218 50.448 26.7902 46.7966 30.8087 43.2124C34.8719 39.5833 37.5732 36.6487 38.9127 34.4086C40.2522 32.1237 40.922 29.7267 40.922 27.2177C40.922 19.6461 37.4392 15.8602 30.4738 15.8602C27.1697 15.8602 24.513 16.8907 22.5037 18.9516C20.5391 20.9677 19.5122 23.7679 19.4229 27.3521H0C0.0893005 18.7948 2.83529 12.0968 8.23797 7.25806C13.6853 2.41935 21.0972 0 30.4738 0C39.9397 0 47.2846 2.30735 52.5087 6.92204C57.7328 11.4919 60.3448 17.966 60.3448 26.3441C60.3448 30.1523 59.4965 33.759 57.7998 37.164C56.1031 40.5242 53.1338 44.2652 48.892 48.3871L43.467 53.5618C40.0736 56.8324 38.1313 60.6631 37.6402 65.0538L37.3723 69.1532H20.2266ZM18.2843 89.785C18.2843 86.7832 19.2889 84.319 21.2982 82.3925C23.3521 80.4212 25.9641 79.4355 29.1343 79.4355C32.3045 79.4355 34.8942 80.4212 36.9034 82.3925C38.9574 84.319 39.9843 86.7832 39.9843 89.785C39.9843 92.7419 38.9797 95.1837 36.9704 97.1102C35.0058 99.0367 32.3938 100 29.1343 100C25.8748 100 23.2405 99.0367 21.2312 97.1102C19.2666 95.1837 18.2843 92.7419 18.2843 89.785Z" fill="white"/>
</svg>
