<svg width="180" height="180" viewBox="0 0 180 180" fill="none" xmlns="http://www.w3.org/2000/svg">
<g clip-path="url(#clip0)">
<path d="M106.257 121.657H62.0157C60.6939 121.609 59.4447 121.04 58.5415 120.074C57.6382 119.107 57.1545 117.823 57.196 116.501V103.051C57.1533 101.728 57.6366 100.442 58.54 99.4752C59.4433 98.508 60.6931 97.9382 62.0157 97.8905H105.259C106.581 97.9392 107.83 98.5095 108.732 99.4766C109.635 100.444 110.117 101.729 110.075 103.051V117.589C110.106 118.634 109.722 119.649 109.006 120.412C108.291 121.174 107.302 121.622 106.257 121.657ZM62.0157 100.66C61.4289 100.708 60.8849 100.986 60.5012 101.433C60.1175 101.88 59.9249 102.459 59.9651 103.047V116.497C59.9249 117.084 60.1175 117.664 60.5012 118.11C60.8849 118.557 61.4289 118.835 62.0157 118.884H106.257C106.567 118.848 106.85 118.693 107.047 118.452C107.243 118.211 107.338 117.902 107.31 117.592V103.054C107.352 102.465 107.161 101.883 106.777 101.435C106.393 100.987 105.847 100.708 105.259 100.66H62.0157Z" fill="#F2F2F2"/>
<path d="M156.371 121.657H111.133C110.087 121.624 109.097 121.179 108.38 120.417C107.662 119.656 107.276 118.641 107.306 117.596V103.058C107.261 101.733 107.744 100.445 108.649 99.4762C109.553 98.5074 110.805 97.9371 112.129 97.8905H155.374C156.696 97.9382 157.945 98.5075 158.848 99.4738C159.751 100.44 160.234 101.725 160.193 103.047V117.585C160.225 118.631 159.841 119.648 159.124 120.412C158.408 121.175 157.418 121.623 156.371 121.657ZM112.129 100.66C111.541 100.707 110.995 100.985 110.611 101.433C110.226 101.881 110.033 102.462 110.075 103.051V117.589C110.047 117.899 110.141 118.208 110.338 118.45C110.535 118.691 110.819 118.846 111.128 118.881H156.367C156.676 118.846 156.96 118.691 157.156 118.449C157.353 118.208 157.447 117.899 157.419 117.589V103.051C157.46 102.464 157.268 101.884 156.884 101.437C156.501 100.99 155.957 100.713 155.37 100.664L112.129 100.66Z" fill="#F2F2F2"/>
<path d="M174.925 121.657H161.495C160.38 121.62 159.325 121.143 158.561 120.33C157.797 119.517 157.386 118.434 157.419 117.319V103.335C157.374 101.942 157.883 100.589 158.834 99.5708C159.784 98.5526 161.1 97.9524 162.492 97.9015H174.92C176.312 97.9495 177.628 98.5478 178.58 99.565C179.532 100.582 180.042 101.935 179.997 103.328V116.224C180.043 117.616 179.536 118.97 178.585 119.989C177.634 121.008 176.318 121.607 174.925 121.657ZM162.497 100.66C161.84 100.711 161.23 101.02 160.799 101.519C160.367 102.017 160.15 102.666 160.193 103.324V117.308C160.162 117.688 160.282 118.066 160.526 118.36C160.771 118.653 161.12 118.839 161.5 118.877H174.931C175.585 118.823 176.192 118.515 176.621 118.019C177.051 117.523 177.269 116.879 177.228 116.224V103.328C177.272 102.67 177.054 102.022 176.623 101.523C176.192 101.025 175.582 100.716 174.925 100.664L162.497 100.66Z" fill="#F2F2F2"/>
<path d="M105.259 163.642H62.0156C60.6937 163.594 59.4446 163.025 58.5413 162.058C57.6381 161.092 57.1543 159.807 57.1958 158.485V145.036C57.1543 143.714 57.6381 142.429 58.5413 141.463C59.4446 140.496 60.6937 139.927 62.0156 139.879H106.257C107.302 139.913 108.29 140.36 109.006 141.121C109.723 141.882 110.108 142.896 110.079 143.94V158.479C110.122 159.802 109.639 161.088 108.736 162.056C107.832 163.024 106.582 163.594 105.259 163.642ZM62.0156 142.649C61.4286 142.697 60.8844 142.975 60.5006 143.421C60.1168 143.868 59.9244 144.448 59.965 145.036V158.485C59.9244 159.073 60.1168 159.653 60.5006 160.1C60.8844 160.546 61.4286 160.824 62.0156 160.872H105.259C105.846 160.824 106.39 160.546 106.774 160.1C107.158 159.653 107.35 159.073 107.309 158.485V143.947C107.338 143.637 107.243 143.328 107.046 143.087C106.85 142.846 106.567 142.691 106.257 142.655L62.0156 142.649Z" fill="#F2F2F2"/>
<path d="M155.376 163.642H112.131C110.809 163.594 109.56 163.025 108.657 162.059C107.753 161.092 107.27 159.808 107.311 158.486V143.947C107.282 142.902 107.667 141.888 108.384 141.127C109.1 140.366 110.089 139.92 111.134 139.886H156.372C157.417 139.92 158.405 140.367 159.122 141.128C159.838 141.889 160.223 142.903 160.194 143.947V158.486C160.236 159.807 159.752 161.092 158.849 162.058C157.946 163.025 156.697 163.594 155.376 163.642ZM111.134 142.649C110.824 142.684 110.541 142.838 110.344 143.08C110.147 143.321 110.052 143.63 110.08 143.94V158.479C110.04 159.066 110.232 159.646 110.616 160.093C111 160.54 111.544 160.817 112.131 160.866H155.376C155.962 160.817 156.506 160.539 156.89 160.092C157.273 159.646 157.465 159.066 157.425 158.479V143.94C157.453 143.63 157.358 143.322 157.162 143.08C156.965 142.839 156.682 142.684 156.372 142.649H111.134Z" fill="#F2F2F2"/>
<path d="M174.924 163.642H162.496C161.104 163.591 159.788 162.991 158.838 161.972C157.887 160.954 157.378 159.601 157.423 158.209V144.217C157.391 143.102 157.801 142.02 158.565 141.207C159.329 140.394 160.384 139.917 161.499 139.879H174.929C176.321 139.93 177.635 140.531 178.585 141.549C179.535 142.568 180.042 143.921 179.996 145.313V158.209C180.042 159.601 179.534 160.955 178.583 161.974C177.632 162.992 176.316 163.592 174.924 163.642ZM161.493 142.649C161.113 142.686 160.763 142.872 160.519 143.166C160.274 143.459 160.155 143.837 160.186 144.217V158.209C160.143 158.866 160.36 159.515 160.791 160.013C161.223 160.512 161.833 160.821 162.49 160.872H174.918C175.576 160.822 176.188 160.514 176.62 160.015C177.052 159.516 177.27 158.867 177.226 158.209V145.313C177.27 144.655 177.053 144.007 176.622 143.508C176.191 143.009 175.581 142.701 174.924 142.649H161.493Z" fill="#F2F2F2"/>
<path d="M175.176 142.649H130.934C129.89 142.615 128.901 142.169 128.185 141.408C127.469 140.647 127.083 139.633 127.113 138.589V122.951C127.083 121.907 127.469 120.893 128.185 120.132C128.901 119.372 129.89 118.925 130.934 118.892H175.176C176.497 118.939 177.745 119.508 178.649 120.473C179.552 121.438 180.036 122.721 179.996 124.043V137.49C180.038 138.812 179.555 140.098 178.652 141.065C177.748 142.032 176.498 142.601 175.176 142.649ZM130.934 121.657C130.625 121.692 130.342 121.846 130.145 122.088C129.948 122.329 129.854 122.637 129.882 122.947V138.593C129.854 138.903 129.948 139.212 130.145 139.453C130.342 139.694 130.625 139.849 130.934 139.884H175.176C175.764 139.835 176.31 139.556 176.694 139.108C177.078 138.66 177.269 138.078 177.227 137.49V124.043C177.267 123.455 177.074 122.876 176.69 122.429C176.307 121.983 175.763 121.705 175.176 121.657H130.934Z" fill="#F2F2F2"/>
<path d="M126.059 142.649H80.8205C79.776 142.615 78.7873 142.169 78.0709 141.408C77.3544 140.647 76.9685 139.634 76.9976 138.589V122.951C76.9685 121.907 77.3544 120.893 78.0709 120.132C78.7873 119.372 79.776 118.925 80.8205 118.892H126.059C127.104 118.925 128.092 119.372 128.809 120.132C129.525 120.893 129.911 121.907 129.882 122.951V138.597C129.909 139.641 129.522 140.652 128.806 141.411C128.089 142.17 127.102 142.615 126.059 142.649ZM80.8205 121.657C80.511 121.691 80.2274 121.846 80.0304 122.087C79.8334 122.328 79.7388 122.637 79.7668 122.947V138.593C79.7388 138.903 79.8334 139.212 80.0304 139.453C80.2274 139.695 80.511 139.849 80.8205 139.884H126.059C126.369 139.849 126.652 139.695 126.849 139.453C127.046 139.212 127.141 138.903 127.113 138.593V122.951C127.141 122.641 127.046 122.333 126.849 122.091C126.652 121.85 126.369 121.696 126.059 121.661L80.8205 121.657Z" fill="#F2F2F2"/>
<path d="M75.6959 142.649H62.2654C60.8729 142.599 59.5568 142 58.6057 140.982C57.6547 139.963 57.1464 138.609 57.1923 137.217V124.319C57.1464 122.927 57.6547 121.573 58.6057 120.555C59.5568 119.536 60.8729 118.937 62.2654 118.888H75.6959C76.8111 118.925 77.866 119.403 78.6295 120.216C79.3931 121.03 79.803 122.113 79.7694 123.228V138.32C79.7996 139.434 79.3882 140.513 78.625 141.324C77.8619 142.135 76.8089 142.611 75.6959 142.649ZM62.2654 121.657C61.6085 121.709 60.9983 122.017 60.5671 122.515C60.1359 123.014 59.9183 123.662 59.9615 124.319V137.213C59.9179 137.87 60.1354 138.519 60.5667 139.017C60.998 139.516 61.6083 139.824 62.2654 139.875H75.6959C76.0752 139.837 76.4242 139.651 76.668 139.358C76.9119 139.065 77.0311 138.688 77.0002 138.308V123.228C77.0315 122.848 76.9124 122.471 76.6686 122.178C76.4247 121.884 76.0754 121.698 75.6959 121.66L62.2654 121.657Z" fill="#F2F2F2"/>
<path d="M175.177 100.66H139.073C137.751 100.612 136.502 100.043 135.6 99.0769C134.697 98.1109 134.213 96.8265 134.254 95.5049V80.9626C134.225 79.918 134.611 78.9044 135.327 78.1435C136.043 77.3827 137.031 76.9366 138.076 76.903H175.183C176.503 76.9517 177.751 77.5213 178.653 78.4872C179.555 79.4531 180.038 80.7368 179.997 82.0578V95.509C180.037 96.8302 179.553 98.1137 178.65 99.0788C177.747 100.044 176.498 100.612 175.177 100.66ZM138.07 79.668C137.761 79.7029 137.478 79.8575 137.281 80.0987C137.084 80.3399 136.99 80.6485 137.018 80.9584V95.509C136.977 96.0962 137.17 96.6757 137.553 97.1222C137.937 97.5687 138.481 97.8462 139.067 97.8946H175.172C175.759 97.8476 176.305 97.5707 176.69 97.1241C177.075 96.6775 177.268 96.0972 177.228 95.509V82.0578C177.268 81.4704 177.075 80.8909 176.692 80.4445C176.308 79.9981 175.764 79.7206 175.177 79.6721L138.07 79.668Z" fill="#F2F2F2"/>
<path d="M174.924 79.6722H161.494C160.379 79.6349 159.324 79.1576 158.56 78.3447C157.796 77.5318 157.386 76.4494 157.418 75.3343V60.2423C157.386 59.1272 157.796 58.0448 158.56 57.2319C159.324 56.419 160.379 55.9417 161.494 55.9044H174.924C176.317 55.9539 177.633 56.5537 178.584 57.5722C179.535 58.5908 180.043 59.9449 179.996 61.3375V74.2335C180.044 75.6271 179.537 76.9826 178.586 78.0024C177.635 79.0222 176.318 79.6227 174.924 79.6722ZM161.494 58.6791C161.114 58.717 160.764 58.9027 160.52 59.1961C160.275 59.4895 160.156 59.8672 160.187 60.2479V75.3398C160.156 75.7204 160.276 76.0979 160.52 76.3912C160.764 76.6845 161.114 76.8703 161.494 76.9086H174.924C175.582 76.8565 176.193 76.5469 176.624 76.0471C177.056 75.5473 177.272 74.8976 177.227 74.2391V61.3375C177.271 60.6799 177.053 60.0316 176.622 59.533C176.191 59.0344 175.581 58.7257 174.924 58.6736L161.494 58.6791Z" fill="#F2F2F2"/>
<path d="M21.9684 63.8768C19.659 63.8744 17.4022 63.1871 15.4834 61.902C13.5646 60.6169 12.07 58.7917 11.1886 56.6571C10.3072 54.5225 10.0785 52.1745 10.5316 49.91C10.9846 47.6455 12.0991 45.5662 13.7339 43.935C15.3687 42.3039 17.4505 41.1941 19.7161 40.7462C21.9816 40.2982 24.3291 40.5322 26.4617 41.4184C28.5942 42.3046 30.4161 43.8034 31.6969 45.725C32.9777 47.6467 33.6598 49.9051 33.6571 52.2145C33.6501 55.3099 32.4156 58.2762 30.2243 60.4626C28.033 62.649 25.0639 63.8768 21.9684 63.8768ZM21.9684 43.2936C20.2079 43.296 18.4876 43.8202 17.0248 44.7998C15.562 45.7794 14.4223 47.1705 13.7496 48.7975C13.077 50.4244 12.9016 52.2142 13.2455 53.9408C13.5895 55.6674 14.4374 57.2534 15.6822 58.4983C16.927 59.7433 18.5128 60.5915 20.2393 60.9357C21.9659 61.28 23.7557 61.1048 25.3828 60.4324C27.0098 59.76 28.4011 58.6205 29.381 57.1579C30.3608 55.6952 30.8852 53.975 30.8879 52.2145C30.8857 49.8494 29.9453 47.5818 28.2731 45.9094C26.6009 44.2369 24.3335 43.2961 21.9684 43.2936Z" fill="#F2F2F2"/>
<path d="M106.379 55.039C104.814 55.0371 103.284 54.5711 101.984 53.6999C100.684 52.8288 99.6708 51.5916 99.0735 50.1448C98.4762 48.698 98.3213 47.1066 98.6285 45.5717C98.9356 44.0369 99.691 42.6277 100.799 41.5221C101.907 40.4166 103.318 39.6645 104.854 39.3608C106.389 39.0572 107.98 39.2156 109.426 39.8162C110.871 40.4168 112.106 41.4325 112.974 42.7349C113.842 44.0372 114.305 45.5678 114.303 47.133C114.299 49.2316 113.462 51.2427 111.976 52.7249C110.491 54.2071 108.478 55.0394 106.379 55.039ZM106.379 41.9796C105.362 41.9815 104.369 42.2847 103.524 42.8509C102.68 43.417 102.022 44.2207 101.633 45.1606C101.245 46.1004 101.144 47.1342 101.343 48.1314C101.542 49.1286 102.032 50.0444 102.751 50.7634C103.47 51.4823 104.386 51.972 105.384 52.1707C106.381 52.3694 107.415 52.2681 108.354 51.8797C109.294 51.4912 110.098 50.8331 110.664 49.9882C111.229 49.1434 111.532 48.1499 111.534 47.133C111.532 45.7666 110.988 44.4567 110.022 43.4906C109.056 42.5245 107.746 41.9811 106.379 41.9796Z" fill="#F2F2F2"/>
<path d="M74.8334 39.8182C72.3196 39.8158 69.8631 39.0679 67.7744 37.6692C65.6857 36.2706 64.0587 34.2839 63.0991 31.9605C62.1396 29.6372 61.8905 27.0814 62.3836 24.6165C62.8766 22.1516 64.0895 19.8882 65.8689 18.1127C67.6483 16.3371 69.9143 15.1291 72.3803 14.6415C74.8463 14.1538 77.4015 14.4084 79.7228 15.373C82.0441 16.3376 84.0272 17.969 85.4213 20.0607C86.8154 22.1524 87.5579 24.6106 87.5549 27.1244C87.5476 30.4935 86.204 33.7222 83.8191 36.102C81.4341 38.4817 78.2025 39.8182 74.8334 39.8182ZM74.8334 17.1706C72.8685 17.173 70.9485 17.7578 69.3159 18.8509C67.6832 19.944 66.4111 21.4964 65.6603 23.3121C64.9094 25.1278 64.7136 27.1253 65.0974 29.0522C65.4812 30.9792 66.4275 32.7492 67.8167 34.1386C69.206 35.528 70.9758 36.4746 72.9027 36.8587C74.8296 37.2428 76.8272 37.0472 78.643 36.2966C80.4588 35.546 82.0114 34.2741 83.1047 32.6416C84.198 31.0091 84.783 29.0892 84.7858 27.1244C84.7821 24.4857 83.7325 21.9561 81.8669 20.09C80.0013 18.2239 77.472 17.1736 74.8334 17.1692V17.1706Z" fill="#F2F2F2"/>
<path d="M108.111 42.2413C107.811 42.2413 107.52 42.1441 107.28 41.9644L84.8625 24.9977C84.7176 24.8878 84.5957 24.7504 84.5039 24.5934C84.4121 24.4364 84.3521 24.2628 84.3273 24.0826C84.3026 23.9025 84.3136 23.7191 84.3597 23.5432C84.4058 23.3673 84.4861 23.2021 84.596 23.0572C84.7059 22.9123 84.8433 22.7904 85.0003 22.6986C85.1573 22.6068 85.3308 22.5468 85.511 22.522C85.6912 22.4973 85.8745 22.5083 86.0505 22.5544C86.2264 22.6005 86.3915 22.6807 86.5365 22.7907L108.949 39.7532C109.182 39.9279 109.354 40.1716 109.44 40.4497C109.527 40.7278 109.523 41.026 109.43 41.302C109.338 41.578 109.16 41.8178 108.923 41.9872C108.687 42.1565 108.402 42.2469 108.111 42.2455V42.2413Z" fill="#F2F2F2"/>
<path d="M99.8405 48.5177C99.5436 48.5169 99.255 48.4197 99.018 48.2408L82.3504 35.8737C82.055 35.655 81.8585 35.3279 81.8043 34.9644C81.75 34.6009 81.8423 34.2307 82.061 33.9352C82.2797 33.6398 82.6068 33.4434 82.9703 33.3891C83.3338 33.3348 83.704 33.4272 83.9994 33.6459L100.667 46.0171C100.9 46.1915 101.071 46.4346 101.158 46.712C101.245 46.9893 101.242 47.287 101.15 47.5626C101.058 47.8383 100.882 48.0781 100.646 48.248C100.41 48.418 100.127 48.5094 99.8363 48.5094L99.8405 48.5177Z" fill="#F2F2F2"/>
<path d="M24.5651 43.6383C24.2462 43.6394 23.9366 43.5303 23.6888 43.3296C23.441 43.1288 23.2701 42.8486 23.2049 42.5364C23.1398 42.2242 23.1845 41.899 23.3314 41.6159C23.4783 41.3329 23.7185 41.1092 24.0113 40.9827L63.1078 24.0021C63.2746 23.9294 63.454 23.8902 63.6359 23.8868C63.8177 23.8834 63.9985 23.9159 64.1678 23.9824C64.3372 24.0489 64.4917 24.148 64.6227 24.2742C64.7537 24.4005 64.8586 24.5512 64.9313 24.718C65.0041 24.8847 65.0432 25.0641 65.0466 25.246C65.05 25.4279 65.0175 25.6086 64.9511 25.778C64.8846 25.9473 64.7854 26.1019 64.6592 26.2329C64.533 26.3639 64.3822 26.4687 64.2155 26.5415L25.1162 43.522C24.9426 43.5986 24.7549 43.6382 24.5651 43.6383Z" fill="#F2F2F2"/>
<path d="M32.1643 55.039C31.8569 55.0396 31.558 54.9378 31.3149 54.7497C31.0717 54.5616 30.898 54.298 30.8212 54.0003C30.7445 53.7027 30.7689 53.3879 30.8907 53.1057C31.0126 52.8235 31.2248 52.5898 31.4941 52.4415L65.8318 33.5489C66.1535 33.3717 66.5324 33.3296 66.8852 33.4317C67.0598 33.4823 67.2228 33.5668 67.3648 33.6804C67.5068 33.794 67.6251 33.9344 67.7128 34.0937C67.8005 34.253 67.856 34.428 67.8761 34.6087C67.8962 34.7895 67.8805 34.9724 67.83 35.147C67.7794 35.3217 67.6949 35.4847 67.5813 35.6267C67.4677 35.7687 67.3273 35.887 67.168 35.9747L32.8303 54.8673C32.6266 54.9805 32.3973 55.0396 32.1643 55.039Z" fill="#F2F2F2"/>
<path d="M106.379 60.3794C106.012 60.3794 105.659 60.2335 105.4 59.9739C105.14 59.7142 104.994 59.362 104.994 58.9948V53.6545C104.994 53.2873 105.14 52.9351 105.4 52.6754C105.659 52.4158 106.012 52.2699 106.379 52.2699C106.746 52.2699 107.098 52.4158 107.358 52.6754C107.617 52.9351 107.763 53.2873 107.763 53.6545V58.9948C107.763 59.362 107.617 59.7142 107.358 59.9739C107.098 60.2335 106.746 60.3794 106.379 60.3794Z" fill="#F2F2F2"/>
<path d="M91.7772 70.7374C91.52 70.7374 91.268 70.6658 91.0492 70.5306C90.8305 70.3955 90.6537 70.202 90.5388 69.9721C90.4238 69.7421 90.3751 69.4846 90.3982 69.2285C90.4213 68.9724 90.5152 68.7278 90.6695 68.5221L96.6731 60.5427C97.3589 59.6344 98.2456 58.8972 99.2639 58.3887C100.282 57.8802 101.404 57.6142 102.542 57.6116H109.936C111.074 57.6145 112.197 57.8806 113.215 58.3891C114.234 58.8975 115.121 59.6346 115.808 60.5427L121.809 68.5221C121.918 68.6676 121.997 68.8331 122.042 69.0092C122.088 69.1854 122.098 69.3687 122.072 69.5487C122.046 69.7287 121.985 69.9018 121.893 70.0583C121.8 70.2147 121.677 70.3514 121.532 70.4605C121.386 70.5696 121.221 70.649 121.045 70.6941C120.869 70.7392 120.685 70.7492 120.505 70.7235C120.325 70.6978 120.152 70.6369 119.996 70.5442C119.839 70.4516 119.703 70.3291 119.593 70.1836L113.591 62.2042C113.164 61.639 112.611 61.1802 111.977 60.8637C111.343 60.5471 110.645 60.3814 109.936 60.3794H102.545C101.836 60.3808 101.137 60.5464 100.503 60.863C99.8692 61.1796 99.3169 61.6386 98.8898 62.2042L92.8848 70.185C92.7557 70.3567 92.5884 70.496 92.3962 70.5919C92.2039 70.6878 91.992 70.7376 91.7772 70.7374Z" fill="#F2F2F2"/>
<path d="M125.144 86.8318C124.914 86.8315 124.688 86.774 124.486 86.6645C124.284 86.555 124.113 86.397 123.987 86.2048C123.861 86.0125 123.785 85.7919 123.766 85.563C123.747 85.3341 123.785 85.104 123.877 84.8934L130.09 70.7402H81.6096L89.0726 84.8007C89.1619 84.9615 89.2183 85.1386 89.2384 85.3215C89.2585 85.5044 89.242 85.6895 89.1898 85.8659C89.1375 86.0423 89.0507 86.2066 88.9342 86.3491C88.8178 86.4915 88.6741 86.6094 88.5116 86.6957C88.3491 86.782 88.171 86.8351 87.9878 86.8518C87.8045 86.8685 87.6198 86.8485 87.4444 86.793C87.2689 86.7374 87.1063 86.6475 86.966 86.5284C86.8258 86.4093 86.7106 86.2635 86.6274 86.0994L78.0914 70.0022C77.9794 69.7914 77.9239 69.5551 77.9302 69.3165C77.9364 69.0778 78.0043 68.8448 78.1272 68.6401C78.2501 68.4354 78.4238 68.266 78.6315 68.1483C78.8392 68.0306 79.0739 67.9685 79.3126 67.9683H132.215C132.445 67.9684 132.671 68.0257 132.873 68.1351C133.075 68.2445 133.247 68.4024 133.373 68.5948C133.499 68.7871 133.575 69.0077 133.594 69.2368C133.613 69.4658 133.575 69.696 133.483 69.9067L126.422 86.0011C126.313 86.2494 126.135 86.4605 125.907 86.6082C125.68 86.7558 125.415 86.8336 125.144 86.8318Z" fill="#F2F2F2"/>
<path d="M43.2074 165.32H1.38459C1.01737 165.32 0.665196 165.174 0.405536 164.914C0.145876 164.655 0 164.302 0 163.935V142.905C0 142.538 0.145876 142.185 0.405536 141.926C0.665196 141.666 1.01737 141.52 1.38459 141.52H43.2074C43.5746 141.52 43.9267 141.666 44.1864 141.926C44.4461 142.185 44.5919 142.538 44.5919 142.905V163.935C44.5919 164.302 44.4461 164.655 44.1864 164.914C43.9267 165.174 43.5746 165.32 43.2074 165.32ZM2.76917 162.551H41.8228V144.289H2.76917V162.551Z" fill="#F2F2F2"/>
<path d="M38.726 144.289H5.86701C5.49979 144.289 5.14762 144.144 4.88796 143.884C4.6283 143.624 4.48242 143.272 4.48242 142.905V133.257C4.48242 132.89 4.6283 132.538 4.88796 132.278C5.14762 132.018 5.49979 131.872 5.86701 131.872H38.726C39.0932 131.872 39.4454 132.018 39.705 132.278C39.9647 132.538 40.1106 132.89 40.1106 133.257V142.905C40.1106 143.272 39.9647 143.624 39.705 143.884C39.4454 144.144 39.0932 144.289 38.726 144.289ZM7.25159 141.52H37.3414V134.642H7.25159V141.52Z" fill="#F2F2F2"/>
<path d="M32.5387 134.642H12.0579C11.8706 134.642 11.6852 134.604 11.5129 134.53C11.3407 134.457 11.1851 134.349 11.0557 134.214C10.9262 134.078 10.8256 133.918 10.7599 133.743C10.6942 133.567 10.6647 133.38 10.6733 133.193L14.0407 60.0623C14.0618 59.697 14.225 59.3544 14.4953 59.1079C14.7657 58.8613 15.1218 58.7303 15.4875 58.7428C15.6692 58.7512 15.8474 58.7952 16.012 58.8725C16.1767 58.9497 16.3245 59.0586 16.447 59.193C16.5695 59.3273 16.6644 59.4845 16.7262 59.6555C16.7879 59.8265 16.8154 60.0081 16.8071 60.1897L13.5076 131.872H31.0918L27.7688 59.6373C27.7605 59.4554 27.7882 59.2737 27.8501 59.1026C27.912 58.9314 28.0071 58.7742 28.1298 58.6397C28.2525 58.5053 28.4005 58.3964 28.5653 58.3192C28.7302 58.2419 28.9086 58.1979 29.0904 58.1897C29.2722 58.1814 29.4539 58.209 29.6251 58.271C29.7962 58.3329 29.9535 58.4279 30.0879 58.5507C30.2223 58.6734 30.3313 58.8214 30.4085 58.9862C30.4857 59.151 30.5297 59.3294 30.538 59.5113L33.9233 133.197C33.9319 133.385 33.9025 133.572 33.8368 133.747C33.771 133.922 33.6704 134.083 33.541 134.218C33.4115 134.353 33.256 134.461 33.0837 134.535C32.9114 134.608 32.726 134.646 32.5387 134.646V134.642Z" fill="#F2F2F2"/>
<path d="M106.257 121.657H62.0157C60.6939 121.609 59.4447 121.04 58.5415 120.074C57.6382 119.107 57.1545 117.823 57.196 116.501V103.051C57.1533 101.728 57.6366 100.442 58.54 99.4752C59.4433 98.508 60.6931 97.9382 62.0157 97.8905H105.259C106.581 97.9392 107.83 98.5095 108.732 99.4766C109.635 100.444 110.117 101.729 110.075 103.051V117.589C110.106 118.634 109.722 119.649 109.006 120.412C108.291 121.174 107.302 121.622 106.257 121.657ZM62.0157 100.66C61.4289 100.708 60.8849 100.986 60.5012 101.433C60.1175 101.88 59.9249 102.459 59.9651 103.047V116.497C59.9249 117.084 60.1175 117.664 60.5012 118.11C60.8849 118.557 61.4289 118.835 62.0157 118.884H106.257C106.567 118.848 106.85 118.693 107.047 118.452C107.243 118.211 107.338 117.902 107.31 117.592V103.054C107.352 102.465 107.161 101.883 106.777 101.435C106.393 100.987 105.847 100.708 105.259 100.66H62.0157Z" fill="#F2F2F2"/>
<path d="M156.371 121.657H111.133C110.087 121.624 109.097 121.179 108.38 120.417C107.662 119.656 107.276 118.641 107.306 117.596V103.058C107.261 101.733 107.744 100.445 108.649 99.4762C109.553 98.5074 110.805 97.9371 112.129 97.8905H155.374C156.696 97.9382 157.945 98.5075 158.848 99.4738C159.751 100.44 160.234 101.725 160.193 103.047V117.585C160.225 118.631 159.841 119.648 159.124 120.412C158.408 121.175 157.418 121.623 156.371 121.657ZM112.129 100.66C111.541 100.707 110.995 100.985 110.611 101.433C110.226 101.881 110.033 102.462 110.075 103.051V117.589C110.047 117.899 110.141 118.208 110.338 118.45C110.535 118.691 110.819 118.846 111.128 118.881H156.367C156.676 118.846 156.96 118.691 157.156 118.449C157.353 118.208 157.447 117.899 157.419 117.589V103.051C157.46 102.464 157.268 101.884 156.884 101.437C156.501 100.99 155.957 100.713 155.37 100.664L112.129 100.66Z" fill="#F2F2F2"/>
<path d="M174.925 121.657H161.495C160.38 121.62 159.325 121.143 158.561 120.33C157.797 119.517 157.386 118.434 157.419 117.319V103.335C157.374 101.942 157.883 100.589 158.834 99.5708C159.784 98.5526 161.1 97.9524 162.492 97.9015H174.92C176.312 97.9495 177.628 98.5478 178.58 99.565C179.532 100.582 180.042 101.935 179.997 103.328V116.224C180.043 117.616 179.536 118.97 178.585 119.989C177.634 121.008 176.318 121.607 174.925 121.657ZM162.497 100.66C161.84 100.711 161.23 101.02 160.799 101.519C160.367 102.017 160.15 102.666 160.193 103.324V117.308C160.162 117.688 160.282 118.066 160.526 118.36C160.771 118.653 161.12 118.839 161.5 118.877H174.931C175.585 118.823 176.192 118.515 176.621 118.019C177.051 117.523 177.269 116.879 177.228 116.224V103.328C177.272 102.67 177.054 102.022 176.623 101.523C176.192 101.025 175.582 100.716 174.925 100.664L162.497 100.66Z" fill="#F2F2F2"/>
<path d="M105.259 163.642H62.0156C60.6937 163.594 59.4446 163.025 58.5413 162.058C57.6381 161.092 57.1543 159.807 57.1958 158.485V145.036C57.1543 143.714 57.6381 142.429 58.5413 141.463C59.4446 140.496 60.6937 139.927 62.0156 139.879H106.257C107.302 139.913 108.29 140.36 109.006 141.121C109.723 141.882 110.108 142.896 110.079 143.94V158.479C110.122 159.802 109.639 161.088 108.736 162.056C107.832 163.024 106.582 163.594 105.259 163.642ZM62.0156 142.649C61.4286 142.697 60.8844 142.975 60.5006 143.421C60.1168 143.868 59.9244 144.448 59.965 145.036V158.485C59.9244 159.073 60.1168 159.653 60.5006 160.1C60.8844 160.546 61.4286 160.824 62.0156 160.872H105.259C105.846 160.824 106.39 160.546 106.774 160.1C107.158 159.653 107.35 159.073 107.309 158.485V143.947C107.338 143.637 107.243 143.328 107.046 143.087C106.85 142.846 106.567 142.691 106.257 142.655L62.0156 142.649Z" fill="#F2F2F2"/>
<path d="M155.376 163.642H112.131C110.809 163.594 109.56 163.025 108.657 162.059C107.753 161.092 107.27 159.808 107.311 158.486V143.947C107.282 142.902 107.667 141.888 108.384 141.127C109.1 140.366 110.089 139.92 111.134 139.886H156.372C157.417 139.92 158.405 140.367 159.122 141.128C159.838 141.889 160.223 142.903 160.194 143.947V158.486C160.236 159.807 159.752 161.092 158.849 162.058C157.946 163.025 156.697 163.594 155.376 163.642ZM111.134 142.649C110.824 142.684 110.541 142.838 110.344 143.08C110.147 143.321 110.052 143.63 110.08 143.94V158.479C110.04 159.066 110.232 159.646 110.616 160.093C111 160.54 111.544 160.817 112.131 160.866H155.376C155.962 160.817 156.506 160.539 156.89 160.092C157.273 159.646 157.465 159.066 157.425 158.479V143.94C157.453 143.63 157.358 143.322 157.162 143.08C156.965 142.839 156.682 142.684 156.372 142.649H111.134Z" fill="#F2F2F2"/>
<path d="M174.924 163.642H162.496C161.104 163.591 159.788 162.991 158.838 161.972C157.887 160.954 157.378 159.601 157.423 158.209V144.217C157.391 143.102 157.801 142.02 158.565 141.207C159.329 140.394 160.384 139.917 161.499 139.879H174.929C176.321 139.93 177.635 140.531 178.585 141.549C179.535 142.568 180.042 143.921 179.996 145.313V158.209C180.042 159.601 179.534 160.955 178.583 161.974C177.632 162.992 176.316 163.592 174.924 163.642ZM161.493 142.649C161.113 142.686 160.763 142.872 160.519 143.166C160.274 143.459 160.155 143.837 160.186 144.217V158.209C160.143 158.866 160.36 159.515 160.791 160.013C161.223 160.512 161.833 160.821 162.49 160.872H174.918C175.576 160.822 176.188 160.514 176.62 160.015C177.052 159.516 177.27 158.867 177.226 158.209V145.313C177.27 144.655 177.053 144.007 176.622 143.508C176.191 143.009 175.581 142.701 174.924 142.649H161.493Z" fill="#F2F2F2"/>
<path d="M175.176 142.649H130.934C129.89 142.615 128.901 142.169 128.185 141.408C127.469 140.647 127.083 139.633 127.113 138.589V122.951C127.083 121.907 127.469 120.893 128.185 120.132C128.901 119.372 129.89 118.925 130.934 118.892H175.176C176.497 118.939 177.745 119.508 178.649 120.473C179.552 121.438 180.036 122.721 179.996 124.043V137.49C180.038 138.812 179.555 140.098 178.652 141.065C177.748 142.032 176.498 142.601 175.176 142.649ZM130.934 121.657C130.625 121.692 130.342 121.846 130.145 122.088C129.948 122.329 129.854 122.637 129.882 122.947V138.593C129.854 138.903 129.948 139.212 130.145 139.453C130.342 139.694 130.625 139.849 130.934 139.884H175.176C175.764 139.835 176.31 139.556 176.694 139.108C177.078 138.66 177.269 138.078 177.227 137.49V124.043C177.267 123.455 177.074 122.876 176.69 122.429C176.307 121.983 175.763 121.705 175.176 121.657H130.934Z" fill="#F2F2F2"/>
<path d="M126.059 142.649H80.8205C79.776 142.615 78.7873 142.169 78.0709 141.408C77.3544 140.647 76.9685 139.634 76.9976 138.589V122.951C76.9685 121.907 77.3544 120.893 78.0709 120.132C78.7873 119.372 79.776 118.925 80.8205 118.892H126.059C127.104 118.925 128.092 119.372 128.809 120.132C129.525 120.893 129.911 121.907 129.882 122.951V138.597C129.909 139.641 129.522 140.652 128.806 141.411C128.089 142.17 127.102 142.615 126.059 142.649ZM80.8205 121.657C80.511 121.691 80.2274 121.846 80.0304 122.087C79.8334 122.328 79.7388 122.637 79.7668 122.947V138.593C79.7388 138.903 79.8334 139.212 80.0304 139.453C80.2274 139.695 80.511 139.849 80.8205 139.884H126.059C126.369 139.849 126.652 139.695 126.849 139.453C127.046 139.212 127.141 138.903 127.113 138.593V122.951C127.141 122.641 127.046 122.333 126.849 122.091C126.652 121.85 126.369 121.696 126.059 121.661L80.8205 121.657Z" fill="#F2F2F2"/>
<path d="M75.6959 142.649H62.2654C60.8729 142.599 59.5568 142 58.6057 140.982C57.6547 139.963 57.1464 138.609 57.1923 137.217V124.319C57.1464 122.927 57.6547 121.573 58.6057 120.555C59.5568 119.536 60.8729 118.937 62.2654 118.888H75.6959C76.8111 118.925 77.866 119.403 78.6295 120.216C79.3931 121.03 79.803 122.113 79.7694 123.228V138.32C79.7996 139.434 79.3882 140.513 78.625 141.324C77.8619 142.135 76.8089 142.611 75.6959 142.649ZM62.2654 121.657C61.6085 121.709 60.9983 122.017 60.5671 122.515C60.1359 123.014 59.9183 123.662 59.9615 124.319V137.213C59.9179 137.87 60.1354 138.519 60.5667 139.017C60.998 139.516 61.6083 139.824 62.2654 139.875H75.6959C76.0752 139.837 76.4242 139.651 76.668 139.358C76.9119 139.065 77.0311 138.688 77.0002 138.308V123.228C77.0315 122.848 76.9124 122.471 76.6686 122.178C76.4247 121.884 76.0754 121.698 75.6959 121.66L62.2654 121.657Z" fill="#F2F2F2"/>
<path d="M175.177 100.66H139.073C137.751 100.612 136.502 100.043 135.6 99.0769C134.697 98.1109 134.213 96.8265 134.254 95.5049V80.9626C134.225 79.918 134.611 78.9044 135.327 78.1435C136.043 77.3827 137.031 76.9366 138.076 76.903H175.183C176.503 76.9517 177.751 77.5213 178.653 78.4872C179.555 79.4531 180.038 80.7368 179.997 82.0578V95.509C180.037 96.8302 179.553 98.1137 178.65 99.0788C177.747 100.044 176.498 100.612 175.177 100.66ZM138.07 79.668C137.761 79.7029 137.478 79.8575 137.281 80.0987C137.084 80.3399 136.99 80.6485 137.018 80.9584V95.509C136.977 96.0962 137.17 96.6757 137.553 97.1222C137.937 97.5687 138.481 97.8462 139.067 97.8946H175.172C175.759 97.8476 176.305 97.5707 176.69 97.1241C177.075 96.6775 177.268 96.0972 177.228 95.509V82.0578C177.268 81.4704 177.075 80.8909 176.692 80.4445C176.308 79.9981 175.764 79.7206 175.177 79.6721L138.07 79.668Z" fill="#F2F2F2"/>
<path d="M174.924 79.6722H161.494C160.379 79.6349 159.324 79.1576 158.56 78.3447C157.796 77.5318 157.386 76.4494 157.418 75.3343V60.2423C157.386 59.1272 157.796 58.0448 158.56 57.2319C159.324 56.419 160.379 55.9417 161.494 55.9044H174.924C176.317 55.9539 177.633 56.5537 178.584 57.5722C179.535 58.5908 180.043 59.9449 179.996 61.3375V74.2335C180.044 75.6271 179.537 76.9826 178.586 78.0024C177.635 79.0222 176.318 79.6227 174.924 79.6722ZM161.494 58.6791C161.114 58.717 160.764 58.9027 160.52 59.1961C160.275 59.4895 160.156 59.8672 160.187 60.2479V75.3398C160.156 75.7204 160.276 76.0979 160.52 76.3912C160.764 76.6845 161.114 76.8703 161.494 76.9086H174.924C175.582 76.8565 176.193 76.5469 176.624 76.0471C177.056 75.5473 177.272 74.8976 177.227 74.2391V61.3375C177.271 60.6799 177.053 60.0316 176.622 59.533C176.191 59.0344 175.581 58.7257 174.924 58.6736L161.494 58.6791Z" fill="#F2F2F2"/>
<path d="M21.9684 63.8768C19.659 63.8744 17.4022 63.1871 15.4834 61.902C13.5646 60.6169 12.07 58.7917 11.1886 56.6571C10.3072 54.5225 10.0785 52.1745 10.5316 49.91C10.9846 47.6455 12.0991 45.5662 13.7339 43.935C15.3687 42.3039 17.4505 41.1941 19.7161 40.7462C21.9816 40.2982 24.3291 40.5322 26.4617 41.4184C28.5942 42.3046 30.4161 43.8034 31.6969 45.725C32.9777 47.6467 33.6598 49.9051 33.6571 52.2145C33.6501 55.3099 32.4156 58.2762 30.2243 60.4626C28.033 62.649 25.0639 63.8768 21.9684 63.8768ZM21.9684 43.2936C20.2079 43.296 18.4876 43.8202 17.0248 44.7998C15.562 45.7794 14.4223 47.1705 13.7496 48.7975C13.077 50.4244 12.9016 52.2142 13.2455 53.9408C13.5895 55.6674 14.4374 57.2534 15.6822 58.4983C16.927 59.7433 18.5128 60.5915 20.2393 60.9357C21.9659 61.28 23.7557 61.1048 25.3828 60.4324C27.0098 59.76 28.4011 58.6205 29.381 57.1579C30.3608 55.6952 30.8852 53.975 30.8879 52.2145C30.8857 49.8494 29.9453 47.5818 28.2731 45.9094C26.6009 44.2369 24.3335 43.2961 21.9684 43.2936Z" fill="#F2F2F2"/>
<path d="M106.379 55.039C104.814 55.0371 103.284 54.5711 101.984 53.6999C100.684 52.8288 99.6708 51.5916 99.0735 50.1448C98.4762 48.698 98.3213 47.1066 98.6285 45.5717C98.9356 44.0369 99.691 42.6277 100.799 41.5221C101.907 40.4166 103.318 39.6645 104.854 39.3608C106.389 39.0572 107.98 39.2156 109.426 39.8162C110.871 40.4168 112.106 41.4325 112.974 42.7349C113.842 44.0372 114.305 45.5678 114.303 47.133C114.299 49.2316 113.462 51.2427 111.976 52.7249C110.491 54.2071 108.478 55.0394 106.379 55.039ZM106.379 41.9796C105.362 41.9815 104.369 42.2847 103.524 42.8509C102.68 43.417 102.022 44.2207 101.633 45.1606C101.245 46.1004 101.144 47.1342 101.343 48.1314C101.542 49.1286 102.032 50.0444 102.751 50.7634C103.47 51.4823 104.386 51.972 105.384 52.1707C106.381 52.3694 107.415 52.2681 108.354 51.8797C109.294 51.4912 110.098 50.8331 110.664 49.9882C111.229 49.1434 111.532 48.1499 111.534 47.133C111.532 45.7666 110.988 44.4567 110.022 43.4906C109.056 42.5245 107.746 41.9811 106.379 41.9796Z" fill="#F2F2F2"/>
<path d="M74.8334 39.8182C72.3196 39.8158 69.8631 39.0679 67.7744 37.6692C65.6857 36.2706 64.0587 34.2839 63.0991 31.9605C62.1396 29.6372 61.8905 27.0814 62.3836 24.6165C62.8766 22.1516 64.0895 19.8882 65.8689 18.1127C67.6483 16.3371 69.9143 15.1291 72.3803 14.6415C74.8463 14.1538 77.4015 14.4084 79.7228 15.373C82.0441 16.3376 84.0272 17.969 85.4213 20.0607C86.8154 22.1524 87.5579 24.6106 87.5549 27.1244C87.5476 30.4935 86.204 33.7222 83.8191 36.102C81.4341 38.4817 78.2025 39.8182 74.8334 39.8182ZM74.8334 17.1706C72.8685 17.173 70.9485 17.7578 69.3159 18.8509C67.6832 19.944 66.4111 21.4964 65.6603 23.3121C64.9094 25.1278 64.7136 27.1253 65.0974 29.0522C65.4812 30.9792 66.4275 32.7492 67.8167 34.1386C69.206 35.528 70.9758 36.4746 72.9027 36.8587C74.8296 37.2428 76.8272 37.0472 78.643 36.2966C80.4588 35.546 82.0114 34.2741 83.1047 32.6416C84.198 31.0091 84.783 29.0892 84.7858 27.1244C84.7821 24.4857 83.7325 21.9561 81.8669 20.09C80.0013 18.2239 77.472 17.1736 74.8334 17.1692V17.1706Z" fill="#F2F2F2"/>
<path d="M108.111 42.2413C107.811 42.2413 107.52 42.1441 107.28 41.9644L84.8625 24.9977C84.7176 24.8878 84.5957 24.7504 84.5039 24.5934C84.4121 24.4364 84.3521 24.2628 84.3273 24.0826C84.3026 23.9025 84.3136 23.7191 84.3597 23.5432C84.4058 23.3673 84.4861 23.2021 84.596 23.0572C84.7059 22.9123 84.8433 22.7904 85.0003 22.6986C85.1573 22.6068 85.3308 22.5468 85.511 22.522C85.6912 22.4973 85.8745 22.5083 86.0505 22.5544C86.2264 22.6005 86.3915 22.6807 86.5365 22.7907L108.949 39.7532C109.182 39.9279 109.354 40.1716 109.44 40.4497C109.527 40.7278 109.523 41.026 109.43 41.302C109.338 41.578 109.16 41.8178 108.923 41.9872C108.687 42.1565 108.402 42.2469 108.111 42.2455V42.2413Z" fill="#F2F2F2"/>
<path d="M99.8405 48.5177C99.5436 48.5169 99.255 48.4197 99.018 48.2408L82.3504 35.8737C82.055 35.655 81.8585 35.3279 81.8043 34.9644C81.75 34.6009 81.8423 34.2307 82.061 33.9352C82.2797 33.6398 82.6068 33.4434 82.9703 33.3891C83.3338 33.3348 83.704 33.4272 83.9994 33.6459L100.667 46.0171C100.9 46.1915 101.071 46.4346 101.158 46.712C101.245 46.9893 101.242 47.287 101.15 47.5626C101.058 47.8383 100.882 48.0781 100.646 48.248C100.41 48.418 100.127 48.5094 99.8363 48.5094L99.8405 48.5177Z" fill="#F2F2F2"/>
<path d="M24.5651 43.6383C24.2462 43.6394 23.9366 43.5303 23.6888 43.3296C23.441 43.1288 23.2701 42.8486 23.2049 42.5364C23.1398 42.2242 23.1845 41.899 23.3314 41.6159C23.4783 41.3329 23.7185 41.1092 24.0113 40.9827L63.1078 24.0021C63.2746 23.9294 63.454 23.8902 63.6359 23.8868C63.8177 23.8834 63.9985 23.9159 64.1678 23.9824C64.3372 24.0489 64.4917 24.148 64.6227 24.2742C64.7537 24.4005 64.8586 24.5512 64.9313 24.718C65.0041 24.8847 65.0432 25.0641 65.0466 25.246C65.05 25.4279 65.0175 25.6086 64.9511 25.778C64.8846 25.9473 64.7854 26.1019 64.6592 26.2329C64.533 26.3639 64.3822 26.4687 64.2155 26.5415L25.1162 43.522C24.9426 43.5986 24.7549 43.6382 24.5651 43.6383Z" fill="#F2F2F2"/>
<path d="M32.1643 55.039C31.8569 55.0396 31.558 54.9378 31.3149 54.7497C31.0717 54.5616 30.898 54.298 30.8212 54.0003C30.7445 53.7027 30.7689 53.3879 30.8907 53.1057C31.0126 52.8235 31.2248 52.5898 31.4941 52.4415L65.8318 33.5489C66.1535 33.3717 66.5324 33.3296 66.8852 33.4317C67.0598 33.4823 67.2228 33.5668 67.3648 33.6804C67.5068 33.794 67.6251 33.9344 67.7128 34.0937C67.8005 34.253 67.856 34.428 67.8761 34.6087C67.8962 34.7895 67.8805 34.9724 67.83 35.147C67.7794 35.3217 67.6949 35.4847 67.5813 35.6267C67.4677 35.7687 67.3273 35.887 67.168 35.9747L32.8303 54.8673C32.6266 54.9805 32.3973 55.0396 32.1643 55.039Z" fill="#F2F2F2"/>
<path d="M106.379 60.3794C106.012 60.3794 105.659 60.2335 105.4 59.9739C105.14 59.7142 104.994 59.362 104.994 58.9948V53.6545C104.994 53.2873 105.14 52.9351 105.4 52.6754C105.659 52.4158 106.012 52.2699 106.379 52.2699C106.746 52.2699 107.098 52.4158 107.358 52.6754C107.617 52.9351 107.763 53.2873 107.763 53.6545V58.9948C107.763 59.362 107.617 59.7142 107.358 59.9739C107.098 60.2335 106.746 60.3794 106.379 60.3794Z" fill="#F2F2F2"/>
<path d="M91.7772 70.7374C91.52 70.7374 91.268 70.6658 91.0492 70.5306C90.8305 70.3955 90.6537 70.202 90.5388 69.9721C90.4238 69.7421 90.3751 69.4846 90.3982 69.2285C90.4213 68.9724 90.5152 68.7278 90.6695 68.5221L96.6731 60.5427C97.3589 59.6344 98.2456 58.8972 99.2639 58.3887C100.282 57.8802 101.404 57.6142 102.542 57.6116H109.936C111.074 57.6145 112.197 57.8806 113.215 58.3891C114.234 58.8975 115.121 59.6346 115.808 60.5427L121.809 68.5221C121.918 68.6676 121.997 68.8331 122.042 69.0092C122.088 69.1854 122.098 69.3687 122.072 69.5487C122.046 69.7287 121.985 69.9018 121.893 70.0583C121.8 70.2147 121.677 70.3514 121.532 70.4605C121.386 70.5696 121.221 70.649 121.045 70.6941C120.869 70.7392 120.685 70.7492 120.505 70.7235C120.325 70.6978 120.152 70.6369 119.996 70.5442C119.839 70.4516 119.703 70.3291 119.593 70.1836L113.591 62.2042C113.164 61.639 112.611 61.1802 111.977 60.8637C111.343 60.5471 110.645 60.3814 109.936 60.3794H102.545C101.836 60.3808 101.137 60.5464 100.503 60.863C99.8692 61.1796 99.3169 61.6386 98.8898 62.2042L92.8848 70.185C92.7557 70.3567 92.5884 70.496 92.3962 70.5919C92.2039 70.6878 91.992 70.7376 91.7772 70.7374Z" fill="#F2F2F2"/>
<path d="M125.144 86.8318C124.914 86.8315 124.688 86.774 124.486 86.6645C124.284 86.555 124.113 86.397 123.987 86.2048C123.861 86.0125 123.785 85.7919 123.766 85.563C123.747 85.3341 123.785 85.104 123.877 84.8934L130.09 70.7402H81.6096L89.0726 84.8007C89.1619 84.9615 89.2183 85.1386 89.2384 85.3215C89.2585 85.5044 89.242 85.6895 89.1898 85.8659C89.1375 86.0423 89.0507 86.2066 88.9342 86.3491C88.8178 86.4915 88.6741 86.6094 88.5116 86.6957C88.3491 86.782 88.171 86.8351 87.9878 86.8518C87.8045 86.8685 87.6198 86.8485 87.4444 86.793C87.2689 86.7374 87.1063 86.6475 86.966 86.5284C86.8258 86.4093 86.7106 86.2635 86.6274 86.0994L78.0914 70.0022C77.9794 69.7914 77.9239 69.5551 77.9302 69.3165C77.9364 69.0778 78.0043 68.8448 78.1272 68.6401C78.2501 68.4354 78.4238 68.266 78.6315 68.1483C78.8392 68.0306 79.0739 67.9685 79.3126 67.9683H132.215C132.445 67.9684 132.671 68.0257 132.873 68.1351C133.075 68.2445 133.247 68.4024 133.373 68.5948C133.499 68.7871 133.575 69.0077 133.594 69.2368C133.613 69.4658 133.575 69.696 133.483 69.9067L126.422 86.0011C126.313 86.2494 126.135 86.4605 125.907 86.6082C125.68 86.7558 125.415 86.8336 125.144 86.8318Z" fill="#F2F2F2"/>
<path d="M43.2074 165.32H1.38459C1.01737 165.32 0.665196 165.174 0.405536 164.914C0.145876 164.655 0 164.302 0 163.935V142.905C0 142.538 0.145876 142.185 0.405536 141.926C0.665196 141.666 1.01737 141.52 1.38459 141.52H43.2074C43.5746 141.52 43.9267 141.666 44.1864 141.926C44.4461 142.185 44.5919 142.538 44.5919 142.905V163.935C44.5919 164.302 44.4461 164.655 44.1864 164.914C43.9267 165.174 43.5746 165.32 43.2074 165.32ZM2.76917 162.551H41.8228V144.289H2.76917V162.551Z" fill="#F2F2F2"/>
<path d="M38.726 144.289H5.86701C5.49979 144.289 5.14762 144.144 4.88796 143.884C4.6283 143.624 4.48242 143.272 4.48242 142.905V133.257C4.48242 132.89 4.6283 132.538 4.88796 132.278C5.14762 132.018 5.49979 131.872 5.86701 131.872H38.726C39.0932 131.872 39.4454 132.018 39.705 132.278C39.9647 132.538 40.1106 132.89 40.1106 133.257V142.905C40.1106 143.272 39.9647 143.624 39.705 143.884C39.4454 144.144 39.0932 144.289 38.726 144.289ZM7.25159 141.52H37.3414V134.642H7.25159V141.52Z" fill="#F2F2F2"/>
<path d="M32.5387 134.642H12.0579C11.8706 134.642 11.6852 134.604 11.5129 134.53C11.3407 134.457 11.1851 134.349 11.0557 134.214C10.9262 134.078 10.8256 133.918 10.7599 133.743C10.6942 133.567 10.6647 133.38 10.6733 133.193L14.0407 60.0623C14.0618 59.697 14.225 59.3544 14.4953 59.1079C14.7657 58.8613 15.1218 58.7303 15.4875 58.7428C15.6692 58.7512 15.8474 58.7952 16.012 58.8725C16.1767 58.9497 16.3245 59.0586 16.447 59.193C16.5695 59.3273 16.6644 59.4845 16.7262 59.6555C16.7879 59.8265 16.8154 60.0081 16.8071 60.1897L13.5076 131.872H31.0918L27.7688 59.6373C27.7605 59.4554 27.7882 59.2737 27.8501 59.1026C27.912 58.9314 28.0071 58.7742 28.1298 58.6397C28.2525 58.5053 28.4005 58.3964 28.5653 58.3192C28.7302 58.2419 28.9086 58.1979 29.0904 58.1897C29.2722 58.1814 29.4539 58.209 29.6251 58.271C29.7962 58.3329 29.9535 58.4279 30.0879 58.5507C30.2223 58.6734 30.3313 58.8214 30.4085 58.9862C30.4857 59.151 30.5297 59.3294 30.538 59.5113L33.9233 133.197C33.9319 133.385 33.9025 133.572 33.8368 133.747C33.771 133.922 33.6704 134.083 33.541 134.218C33.4115 134.353 33.256 134.461 33.0837 134.535C32.9114 134.608 32.726 134.646 32.5387 134.646V134.642Z" fill="#F2F2F2"/>
</g>
<defs>
<clipPath id="clip0">
<rect width="180" height="180" fill="white"/>
</clipPath>
</defs>
</svg>
