<svg width="25" height="25" viewBox="0 0 25 25" fill="none" xmlns="http://www.w3.org/2000/svg">
<g clip-path="url(#clip0)">
<path d="M20.7448 13.571C20.3406 13.0606 20.4562 12.8335 20.7448 12.3772C20.75 12.372 24.0865 7.76162 24.4302 6.19808L24.4323 6.19704C24.6031 5.62725 24.4323 5.2085 23.6062 5.2085H20.8729C20.1771 5.2085 19.8562 5.56787 19.6844 5.96995C19.6844 5.96995 18.2927 9.3012 16.324 11.4606C15.6885 12.0845 15.3948 12.2845 15.0479 12.2845C14.8771 12.2845 14.6115 12.0845 14.6115 11.5147V6.19704C14.6115 5.5137 14.4167 5.2085 13.8406 5.2085H9.54271C9.10625 5.2085 8.84687 5.52725 8.84687 5.82412C8.84687 6.47204 9.83125 6.621 9.93333 8.44391V12.3991C9.93333 13.2658 9.77604 13.4252 9.42708 13.4252C8.49792 13.4252 6.24271 10.0804 4.90625 6.25225C4.63646 5.50954 4.37292 5.20954 3.67188 5.20954H0.9375C0.157292 5.20954 0 5.56891 0 5.971C0 6.68141 0.929166 10.2137 4.32083 14.8804C6.58125 18.0658 9.76458 19.7918 12.6604 19.7918C14.401 19.7918 14.6135 19.4085 14.6135 18.7491C14.6135 15.7054 14.4562 15.4179 15.3281 15.4179C15.7323 15.4179 16.4281 15.6179 18.0531 17.1543C19.9104 18.9762 20.2156 19.7918 21.2552 19.7918H23.9885C24.7677 19.7918 25.1625 19.4085 24.9354 18.6522C24.4156 17.0616 20.9031 13.7897 20.7448 13.571Z" fill="white"/>
</g>
<defs>
<clipPath id="clip0">
<rect width="25" height="25" fill="white"/>
</clipPath>
</defs>
</svg>
